<mxfile host="app.diagrams.net" agent="Mozilla/5.0 (Macintosh; Intel Mac OS X 10_15_7) AppleWebKit/537.36 (KHTML, like Gecko) Chrome/133.0.0.0 Safari/537.36" version="26.0.8">
  <diagram name="Page-1" id="qdpGSCQ2rw0ZAC7wmEMI">
    <mxGraphModel dx="2826" dy="2147" grid="1" gridSize="10" guides="1" tooltips="1" connect="1" arrows="1" fold="1" page="1" pageScale="1" pageWidth="850" pageHeight="1100" math="0" shadow="0">
      <root>
        <mxCell id="0" />
        <mxCell id="1" parent="0" />
        <UserObject label="" plantUmlData="{&quot;data&quot;:&quot;@startuml\n\ninterface IDiveable {\n    + Dive()\n}\n\ninterface IBorrow {\n    + BorrowItem(Item item, int quantity)\n}\n\ninterface ISign {\n    + Signature Sign()\n}\n\nabstract class Person {\n    - string id\n    - string fName\n    - string lName\n    - int day\n    - int month\n    - int year\n    + Person(string id, string fName, string lName, int day, int month, int year)\n    + GetId(): string\n    + GetFName(): string\n    + GetLName(): string\n    + GetDay(): int\n    + GetMonth(): int\n    + GetYear(): int\n    + ToString(): string\n}\n\nclass User {\n    - Diver diver\n    - string email\n    - string password\n    + User(Diver diver, string email, string password)\n    + SetUserDiver(Diver diver)\n    + SetEmail(string email)\n    + SetUserPass(string password)\n    + GetUserDiver(): Diver\n    + GetEmail(): string\n    + GetUserPass(): string\n    + DisplayAllDives()\n    + ToString(): string\n}\n\nclass Diver {\n    - string id\n    - string fName\n    - string lName\n    - int day\n    - int month\n    - int year\n    - int divesDone\n    - bool currentlyDiving\n    - Dictionary&lt;Item, int&gt; items\n    - DiveRankGiven rankCurrent\n    - DiveRankGiven[] rankHistory\n    + SetDivesDone(int divesDone)\n    + SetCurrentlyDiving(bool currentlyDiving)\n    + SetItems(Dictionary&lt;Item, int&gt; items)\n    + SetRankCurrent(DiveRankGiven rankCurrent)\n    + SetRankHistory(DiveRankGiven[] rankHistory)\n    + GetDivesDone(): int\n    + GetCurrentlyDiving(): bool\n    + GetItems(): Dictionary&lt;Item, int&gt;\n    + GetRankCurrent(): DiveRankGiven\n    + GetRankHistory(): DiveRankGiven[]\n    + ToString(): string\n    + Signature Sign()\n}\n\nclass DiverInstructor {\n    + ToString(): string\n    + Signature Sign()\n}\n\nDiverInstructor --|&gt; Diver\n\nclass DiveRank {\n    - string id\n    - string name\n    - string description\n    - int requiredDives\n    + ToString(): string\n}\n\nclass DiveRankGiven {\n    - DiveRank rank\n    - DivingClub club\n    + ToString(): string\n}\n\nclass DivingClub {\n    - string id\n    - string name\n    - Person contactPerson\n    - Address address\n    - string phone\n    - string email\n    - DivingSite divingSite\n    - string website\n    - Dictionary&lt;Item, int&gt; items\n    - DivingInfo[] divingLogs\n    + SetItems(Dictionary&lt;Item, int&gt; items)\n    + GetItems(): Dictionary&lt;Item, int&gt;\n    + ToString(): string\n    + Signature Sign()\n}\n\nclass DivingSite {\n    - string name\n    - string description\n    - double length\n    - double width\n    - double depth\n    - bool waterSalty\n    - Address address\n    + SetName(string name)\n    + SetDescription(string description)\n    + SetLength(double length)\n    + SetWidth(double width)\n    + SetDepth(double depth)\n    + SetWaterSalty(bool waterSalty)\n    + SetAddress(Address address)\n    + GetName(): string\n    + GetDescription(): string\n    + GetLength(): double\n    + GetWidth(): double\n    + GetDepth(): double\n    + GetWaterSalty(): bool\n    + GetAddress(): Address\n    + ToString(): string\n}\n\nclass DiveRegulation {\n    - string name\n    - bool atLeastTwoDivers\n    - bool[] regulations\n    - bool passed\n    + SetName(string name)\n    + SetAtLeastTwoDivers(bool atLeastTwoDivers)\n    + SetRegulations(bool[] regulations)\n    + SetPassed()\n    + GetName(): string\n    + GetAtLeastTwoDivers(): bool\n    + GetRegulations(): bool[]\n    + GetPassed(): bool\n    + ToString(): string\n}\n\nclass DivingInfo {\n    - int diveID\n    - User diveInfoFiller\n    - DateOnly diveDate\n    - DivingClub divingClub\n    - DivingSite divingSite\n    - DiveRegulation diveRegulation\n    - DiverInstructor headDiver\n    - Diver[] divers\n    - Dictionary&lt;Item, int&gt; itemsTaken\n    - TimeOnly waterEnter\n    - TimeOnly waterExit\n    - double waterTemp\n    - double tideLevel\n    - Signature[] signatureDivers\n    - Signature signatureClub\n    + ToString(): string\n}\n\nclass Item {\n    - string id\n    - string name\n    - string description\n    - int quantity\n    + ToString(): string\n}\n\nclass Signature {\n    - string details\n    + ToString(): string\n}\n\nclass Address {\n    - string street\n    - string number\n    - string city\n    - string state\n    - string zip\n    - Country country\n    + ToString(): string\n}\n\nclass Country {\n    - string name\n    - DiveRegulation regulation\n    - string[] languages\n    + ToString(): string\n}\n\nUser --&gt; Diver\nDiverInstructor --&gt; DiveRankGiven\nDiveRankGiven --&gt; DiveRank\nDiveRankGiven --&gt; DivingClub\nDivingClub --&gt; Person\nDivingClub --&gt; Address\nDivingClub --&gt; DivingSite\nDivingClub --&gt; Item\nDivingClub --&gt; DivingInfo\nDivingSite --&gt; Address\nDivingInfo --&gt; User\nDivingInfo --&gt; DivingClub\nDivingInfo --&gt; DivingSite\nDivingInfo --&gt; DiveRegulation\nDivingInfo --&gt; DiverInstructor\nDivingInfo --&gt; Diver\nDivingInfo --&gt; Item\nDivingInfo --&gt; Signature\nAddress --&gt; Country\nCountry --&gt; DiveRegulation\n\nDiver ..|&gt; Person\nDiverInstructor ..|&gt; Person\nDiver ..|&gt; IDiveable\nDiver ..|&gt; IBorrow\nDiver ..|&gt; ISign\nDiverInstructor ..|&gt; ISign\nDivingClub ..|&gt; ISign\n\n@enduml&quot;,&quot;format&quot;:&quot;svg&quot;}" id="ShVuFp9tJV6gp_K82wog-1">
          <mxCell style="shape=image;noLabel=1;verticalAlign=top;aspect=fixed;imageAspect=0;image=data:image/svg+xml,PD94bWwgdmVyc2lvbj0iMS4wIiBlbmNvZGluZz0idXMtYXNjaWkiIHN0YW5kYWxvbmU9Im5vIj8+PHN2ZyB4bWxucz0iaHR0cDovL3d3dy53My5vcmcvMjAwMC9zdmciIHhtbG5zOnhsaW5rPSJodHRwOi8vd3d3LnczLm9yZy8xOTk5L3hsaW5rIiBjb250ZW50U3R5bGVUeXBlPSJ0ZXh0L2NzcyIgaGVpZ2h0PSIyNDIycHgiIHByZXNlcnZlQXNwZWN0UmF0aW89Im5vbmUiIHN0eWxlPSJ3aWR0aDoxODE3cHg7aGVpZ2h0OjI0MjJweDtiYWNrZ3JvdW5kOiNGRkZGRkY7IiB2ZXJzaW9uPSIxLjEiIHZpZXdCb3g9IjAgMCAxODE3IDI0MjIiIHdpZHRoPSIxODE3cHgiIHpvb21BbmRQYW49Im1hZ25pZnkiPjxkZWZzLz48Zz48IS0tY2xhc3MgSURpdmVhYmxlLS0+PGcgaWQ9ImVsZW1fSURpdmVhYmxlIj48cmVjdCBjb2RlTGluZT0iMSIgZmlsbD0iI0YxRjFGMSIgaGVpZ2h0PSI2Mi45ODQ0IiBpZD0iSURpdmVhYmxlIiByeD0iMi41IiByeT0iMi41IiBzdHlsZT0ic3Ryb2tlOiMxODE4MTg7c3Ryb2tlLXdpZHRoOjAuNTsiIHdpZHRoPSI5NSIgeD0iMTE0MC41IiB5PSIxOTUyLjUiLz48ZWxsaXBzZSBjeD0iMTE1NS41IiBjeT0iMTk2OC41IiBmaWxsPSIjQjRBN0U1IiByeD0iMTEiIHJ5PSIxMSIgc3R5bGU9InN0cm9rZTojMTgxODE4O3N0cm9rZS13aWR0aDoxLjA7Ii8+PHBhdGggZD0iTTExNTguNjI1LDE5NzQuNSBMMTE1OC42MjUsMTk3Mi43NSBMMTE1Ni41LDE5NzIuNzUgUTExNTYuNSwxOTcyLjc1IDExNTYuNSwxOTY0LjkzNzUgTDExNTguNjI1LDE5NjQuOTM3NSBMMTE1OC42MjUsMTk2My4xODc1IEwxMTUyLjYyNSwxOTYzLjE4NzUgTDExNTIuNjI1LDE5NjQuOTM3NSBMMTE1NC43NSwxOTY0LjkzNzUgUTExNTQuNzUsMTk2NC45Mzc1IDExNTQuNzUsMTk3Mi43NSBMMTE1Mi42MjUsMTk3Mi43NSBMMTE1Mi42MjUsMTk3NC41IEwxMTU4LjYyNSwxOTc0LjUgWiAiIGZpbGw9IiMwMDAwMDAiLz48dGV4dCBmaWxsPSIjMDAwMDAwIiBmb250LWZhbWlseT0ic2Fucy1zZXJpZiIgZm9udC1zaXplPSIxNCIgZm9udC1zdHlsZT0iaXRhbGljIiBsZW5ndGhBZGp1c3Q9InNwYWNpbmciIHRleHRMZW5ndGg9IjYzIiB4PSIxMTY5LjUiIHk9IjE5NzQuMjQyMiI+SURpdmVhYmxlPC90ZXh0PjxsaW5lIHN0eWxlPSJzdHJva2U6IzE4MTgxODtzdHJva2Utd2lkdGg6MC41OyIgeDE9IjExNDEuNSIgeDI9IjEyMzQuNSIgeTE9IjE5ODQuNSIgeTI9IjE5ODQuNSIvPjxsaW5lIHN0eWxlPSJzdHJva2U6IzE4MTgxODtzdHJva2Utd2lkdGg6MC41OyIgeDE9IjExNDEuNSIgeDI9IjEyMzQuNSIgeTE9IjE5OTIuNSIgeTI9IjE5OTIuNSIvPjxlbGxpcHNlIGN4PSIxMTUxLjUiIGN5PSIyMDA1LjQ5MjIiIGZpbGw9IiM4NEJFODQiIHJ4PSIzIiByeT0iMyIgc3R5bGU9InN0cm9rZTojMDM4MDQ4O3N0cm9rZS13aWR0aDoxLjA7Ii8+PHRleHQgZmlsbD0iIzAwMDAwMCIgZm9udC1mYW1pbHk9InNhbnMtc2VyaWYiIGZvbnQtc2l6ZT0iMTQiIGxlbmd0aEFkanVzdD0ic3BhY2luZyIgdGV4dExlbmd0aD0iNDQiIHg9IjExNjAuNSIgeT0iMjAwOS43MzQ0Ij5EaXZlKCk8L3RleHQ+PC9nPjwhLS1jbGFzcyBJQm9ycm93LS0+PGcgaWQ9ImVsZW1fSUJvcnJvdyI+PHJlY3QgY29kZUxpbmU9IjUiIGZpbGw9IiNGMUYxRjEiIGhlaWdodD0iNjIuOTg0NCIgaWQ9IklCb3Jyb3ciIHJ4PSIyLjUiIHJ5PSIyLjUiIHN0eWxlPSJzdHJva2U6IzE4MTgxODtzdHJva2Utd2lkdGg6MC41OyIgd2lkdGg9IjI3NyIgeD0iMTI3MC41IiB5PSIxOTUyLjUiLz48ZWxsaXBzZSBjeD0iMTM3OS43NSIgY3k9IjE5NjguNSIgZmlsbD0iI0I0QTdFNSIgcng9IjExIiByeT0iMTEiIHN0eWxlPSJzdHJva2U6IzE4MTgxODtzdHJva2Utd2lkdGg6MS4wOyIvPjxwYXRoIGQ9Ik0xMzgyLjg3NSwxOTc0LjUgTDEzODIuODc1LDE5NzIuNzUgTDEzODAuNzUsMTk3Mi43NSBRMTM4MC43NSwxOTcyLjc1IDEzODAuNzUsMTk2NC45Mzc1IEwxMzgyLjg3NSwxOTY0LjkzNzUgTDEzODIuODc1LDE5NjMuMTg3NSBMMTM3Ni44NzUsMTk2My4xODc1IEwxMzc2Ljg3NSwxOTY0LjkzNzUgTDEzNzksMTk2NC45Mzc1IFExMzc5LDE5NjQuOTM3NSAxMzc5LDE5NzIuNzUgTDEzNzYuODc1LDE5NzIuNzUgTDEzNzYuODc1LDE5NzQuNSBMMTM4Mi44NzUsMTk3NC41IFogIiBmaWxsPSIjMDAwMDAwIi8+PHRleHQgZmlsbD0iIzAwMDAwMCIgZm9udC1mYW1pbHk9InNhbnMtc2VyaWYiIGZvbnQtc2l6ZT0iMTQiIGZvbnQtc3R5bGU9Iml0YWxpYyIgbGVuZ3RoQWRqdXN0PSJzcGFjaW5nIiB0ZXh0TGVuZ3RoPSI1MCIgeD0iMTQwMC4yNSIgeT0iMTk3NC4yNDIyIj5JQm9ycm93PC90ZXh0PjxsaW5lIHN0eWxlPSJzdHJva2U6IzE4MTgxODtzdHJva2Utd2lkdGg6MC41OyIgeDE9IjEyNzEuNSIgeDI9IjE1NDYuNSIgeTE9IjE5ODQuNSIgeTI9IjE5ODQuNSIvPjxsaW5lIHN0eWxlPSJzdHJva2U6IzE4MTgxODtzdHJva2Utd2lkdGg6MC41OyIgeDE9IjEyNzEuNSIgeDI9IjE1NDYuNSIgeTE9IjE5OTIuNSIgeTI9IjE5OTIuNSIvPjxlbGxpcHNlIGN4PSIxMjgxLjUiIGN5PSIyMDA1LjQ5MjIiIGZpbGw9IiM4NEJFODQiIHJ4PSIzIiByeT0iMyIgc3R5bGU9InN0cm9rZTojMDM4MDQ4O3N0cm9rZS13aWR0aDoxLjA7Ii8+PHRleHQgZmlsbD0iIzAwMDAwMCIgZm9udC1mYW1pbHk9InNhbnMtc2VyaWYiIGZvbnQtc2l6ZT0iMTQiIGxlbmd0aEFkanVzdD0ic3BhY2luZyIgdGV4dExlbmd0aD0iMjUxIiB4PSIxMjkwLjUiIHk9IjIwMDkuNzM0NCI+Qm9ycm93SXRlbShJdGVtIGl0ZW0sIGludCBxdWFudGl0eSk8L3RleHQ+PC9nPjwhLS1jbGFzcyBJU2lnbi0tPjxnIGlkPSJlbGVtX0lTaWduIj48cmVjdCBjb2RlTGluZT0iOSIgZmlsbD0iI0YxRjFGMSIgaGVpZ2h0PSI2Mi45ODQ0IiBpZD0iSVNpZ24iIHJ4PSIyLjUiIHJ5PSIyLjUiIHN0eWxlPSJzdHJva2U6IzE4MTgxODtzdHJva2Utd2lkdGg6MC41OyIgd2lkdGg9IjE0MCIgeD0iMTU4MyIgeT0iMTk1Mi41Ii8+PGVsbGlwc2UgY3g9IjE2MzEuMjUiIGN5PSIxOTY4LjUiIGZpbGw9IiNCNEE3RTUiIHJ4PSIxMSIgcnk9IjExIiBzdHlsZT0ic3Ryb2tlOiMxODE4MTg7c3Ryb2tlLXdpZHRoOjEuMDsiLz48cGF0aCBkPSJNMTYzNC4zNzUsMTk3NC41IEwxNjM0LjM3NSwxOTcyLjc1IEwxNjMyLjI1LDE5NzIuNzUgUTE2MzIuMjUsMTk3Mi43NSAxNjMyLjI1LDE5NjQuOTM3NSBMMTYzNC4zNzUsMTk2NC45Mzc1IEwxNjM0LjM3NSwxOTYzLjE4NzUgTDE2MjguMzc1LDE5NjMuMTg3NSBMMTYyOC4zNzUsMTk2NC45Mzc1IEwxNjMwLjUsMTk2NC45Mzc1IFExNjMwLjUsMTk2NC45Mzc1IDE2MzAuNSwxOTcyLjc1IEwxNjI4LjM3NSwxOTcyLjc1IEwxNjI4LjM3NSwxOTc0LjUgTDE2MzQuMzc1LDE5NzQuNSBaICIgZmlsbD0iIzAwMDAwMCIvPjx0ZXh0IGZpbGw9IiMwMDAwMDAiIGZvbnQtZmFtaWx5PSJzYW5zLXNlcmlmIiBmb250LXNpemU9IjE0IiBmb250LXN0eWxlPSJpdGFsaWMiIGxlbmd0aEFkanVzdD0ic3BhY2luZyIgdGV4dExlbmd0aD0iMzUiIHg9IjE2NTEuNzUiIHk9IjE5NzQuMjQyMiI+SVNpZ248L3RleHQ+PGxpbmUgc3R5bGU9InN0cm9rZTojMTgxODE4O3N0cm9rZS13aWR0aDowLjU7IiB4MT0iMTU4NCIgeDI9IjE3MjIiIHkxPSIxOTg0LjUiIHkyPSIxOTg0LjUiLz48bGluZSBzdHlsZT0ic3Ryb2tlOiMxODE4MTg7c3Ryb2tlLXdpZHRoOjAuNTsiIHgxPSIxNTg0IiB4Mj0iMTcyMiIgeTE9IjE5OTIuNSIgeTI9IjE5OTIuNSIvPjxlbGxpcHNlIGN4PSIxNTk0IiBjeT0iMjAwNS40OTIyIiBmaWxsPSIjODRCRTg0IiByeD0iMyIgcnk9IjMiIHN0eWxlPSJzdHJva2U6IzAzODA0ODtzdHJva2Utd2lkdGg6MS4wOyIvPjx0ZXh0IGZpbGw9IiMwMDAwMDAiIGZvbnQtZmFtaWx5PSJzYW5zLXNlcmlmIiBmb250LXNpemU9IjE0IiBsZW5ndGhBZGp1c3Q9InNwYWNpbmciIHRleHRMZW5ndGg9IjExNCIgeD0iMTYwMyIgeT0iMjAwOS43MzQ0Ij5TaWduYXR1cmUgU2lnbigpPC90ZXh0PjwvZz48IS0tY2xhc3MgUGVyc29uLS0+PGcgaWQ9ImVsZW1fUGVyc29uIj48cmVjdCBjb2RlTGluZT0iMTMiIGZpbGw9IiNGMUYxRjEiIGhlaWdodD0iMjU3Ljc4MTMiIGlkPSJQZXJzb24iIHJ4PSIyLjUiIHJ5PSIyLjUiIHN0eWxlPSJzdHJva2U6IzE4MTgxODtzdHJva2Utd2lkdGg6MC41OyIgd2lkdGg9IjU1NiIgeD0iNyIgeT0iMTg1NSIvPjxlbGxpcHNlIGN4PSIyNTkuNzUiIGN5PSIxODcxIiBmaWxsPSIjQTlEQ0RGIiByeD0iMTEiIHJ5PSIxMSIgc3R5bGU9InN0cm9rZTojMTgxODE4O3N0cm9rZS13aWR0aDoxLjA7Ii8+PHBhdGggZD0iTTI1Ni4zMTI1LDE4NjguNjI1IEwyNTYuMzEyNSwxODc2Ljc1IEwyNTguMDYyNSwxODc2Ljc1IFEyNTguMDYyNSwxODc2Ljc1IDI1OC4wNjI1LDE4NzIuNSBMMjYxLjYyNSwxODcyLjUgUTI2MS42MjUsMTg3Mi41IDI2MS42MjUsMTg3Ni43NSBMMjYzLjM3NSwxODc2Ljc1IEwyNjMuMzc1LDE4NjguNjI1IEwyNjEuNjI1LDE4NjguNjI1IFEyNjEuNjI1LDE4NjguNjI1IDI2MS42MjUsMTg3MC43NSBMMjU4LjA2MjUsMTg3MC43NSBRMjU4LjA2MjUsMTg3MC43NSAyNTguMDYyNSwxODY4LjYyNSBMMjU2LjMxMjUsMTg2OC42MjUgWiBNMjU3LjM3NSwxODY5LjMxMjUgTDI1OS4xMjUsMTg2OS4zMTI1IFEyNTkuMTI1LDE4NjkuMzEyNSAyNTkuMTI1LDE4NjYuNSBMMjU3LjM3NSwxODY2LjUgUTI1Ny4zNzUsMTg2Ni41IDI1Ny4zNzUsMTg2OS4zMTI1IFogTTI2Mi4zMTI1LDE4NjkuMzEyNSBRMjYyLjMxMjUsMTg2OS4zMTI1IDI2Mi4zMTI1LDE4NjYuNSBMMjYwLjU2MjUsMTg2Ni41IFEyNjAuNTYyNSwxODY2LjUgMjYwLjU2MjUsMTg2OS4zMTI1IEwyNjIuMzEyNSwxODY5LjMxMjUgWiBNMjU4LjQzNzUsMTg2Ny4xODc1IEwyNjEuMjUsMTg2Ny4xODc1IEwyNjEuMjUsMTg2NS40Mzc1IEwyNTguNDM3NSwxODY1LjQzNzUgTDI1OC40Mzc1LDE4NjcuMTg3NSBaICIgZmlsbD0iIzAwMDAwMCIvPjx0ZXh0IGZpbGw9IiMwMDAwMDAiIGZvbnQtZmFtaWx5PSJzYW5zLXNlcmlmIiBmb250LXNpemU9IjE0IiBmb250LXN0eWxlPSJpdGFsaWMiIGxlbmd0aEFkanVzdD0ic3BhY2luZyIgdGV4dExlbmd0aD0iNDIiIHg9IjI4MC4yNSIgeT0iMTg3Ni43NDIyIj5QZXJzb248L3RleHQ+PGxpbmUgc3R5bGU9InN0cm9rZTojMTgxODE4O3N0cm9rZS13aWR0aDowLjU7IiB4MT0iOCIgeDI9IjU2MiIgeTE9IjE4ODciIHkyPSIxODg3Ii8+PHJlY3QgZmlsbD0ibm9uZSIgaGVpZ2h0PSI2IiBzdHlsZT0ic3Ryb2tlOiNDODI5MzA7c3Ryb2tlLXdpZHRoOjEuMDsiIHdpZHRoPSI2IiB4PSIxNSIgeT0iMTg5Ni45OTIyIi8+PHRleHQgZmlsbD0iIzAwMDAwMCIgZm9udC1mYW1pbHk9InNhbnMtc2VyaWYiIGZvbnQtc2l6ZT0iMTQiIGxlbmd0aEFkanVzdD0ic3BhY2luZyIgdGV4dExlbmd0aD0iNjMiIHg9IjI3IiB5PSIxOTA0LjIzNDQiPnN0cmluZyBpZDwvdGV4dD48cmVjdCBmaWxsPSJub25lIiBoZWlnaHQ9IjYiIHN0eWxlPSJzdHJva2U6I0M4MjkzMDtzdHJva2Utd2lkdGg6MS4wOyIgd2lkdGg9IjYiIHg9IjE1IiB5PSIxOTExLjk3NjYiLz48dGV4dCBmaWxsPSIjMDAwMDAwIiBmb250LWZhbWlseT0ic2Fucy1zZXJpZiIgZm9udC1zaXplPSIxNCIgbGVuZ3RoQWRqdXN0PSJzcGFjaW5nIiB0ZXh0TGVuZ3RoPSI4NSIgeD0iMjciIHk9IjE5MTkuMjE4OCI+c3RyaW5nIGZOYW1lPC90ZXh0PjxyZWN0IGZpbGw9Im5vbmUiIGhlaWdodD0iNiIgc3R5bGU9InN0cm9rZTojQzgyOTMwO3N0cm9rZS13aWR0aDoxLjA7IiB3aWR0aD0iNiIgeD0iMTUiIHk9IjE5MjYuOTYwOSIvPjx0ZXh0IGZpbGw9IiMwMDAwMDAiIGZvbnQtZmFtaWx5PSJzYW5zLXNlcmlmIiBmb250LXNpemU9IjE0IiBsZW5ndGhBZGp1c3Q9InNwYWNpbmciIHRleHRMZW5ndGg9Ijg1IiB4PSIyNyIgeT0iMTkzNC4yMDMxIj5zdHJpbmcgbE5hbWU8L3RleHQ+PHJlY3QgZmlsbD0ibm9uZSIgaGVpZ2h0PSI2IiBzdHlsZT0ic3Ryb2tlOiNDODI5MzA7c3Ryb2tlLXdpZHRoOjEuMDsiIHdpZHRoPSI2IiB4PSIxNSIgeT0iMTk0MS45NDUzIi8+PHRleHQgZmlsbD0iIzAwMDAwMCIgZm9udC1mYW1pbHk9InNhbnMtc2VyaWYiIGZvbnQtc2l6ZT0iMTQiIGxlbmd0aEFkanVzdD0ic3BhY2luZyIgdGV4dExlbmd0aD0iNDkiIHg9IjI3IiB5PSIxOTQ5LjE4NzUiPmludCBkYXk8L3RleHQ+PHJlY3QgZmlsbD0ibm9uZSIgaGVpZ2h0PSI2IiBzdHlsZT0ic3Ryb2tlOiNDODI5MzA7c3Ryb2tlLXdpZHRoOjEuMDsiIHdpZHRoPSI2IiB4PSIxNSIgeT0iMTk1Ni45Mjk3Ii8+PHRleHQgZmlsbD0iIzAwMDAwMCIgZm9udC1mYW1pbHk9InNhbnMtc2VyaWYiIGZvbnQtc2l6ZT0iMTQiIGxlbmd0aEFkanVzdD0ic3BhY2luZyIgdGV4dExlbmd0aD0iNjQiIHg9IjI3IiB5PSIxOTY0LjE3MTkiPmludCBtb250aDwvdGV4dD48cmVjdCBmaWxsPSJub25lIiBoZWlnaHQ9IjYiIHN0eWxlPSJzdHJva2U6I0M4MjkzMDtzdHJva2Utd2lkdGg6MS4wOyIgd2lkdGg9IjYiIHg9IjE1IiB5PSIxOTcxLjkxNDEiLz48dGV4dCBmaWxsPSIjMDAwMDAwIiBmb250LWZhbWlseT0ic2Fucy1zZXJpZiIgZm9udC1zaXplPSIxNCIgbGVuZ3RoQWRqdXN0PSJzcGFjaW5nIiB0ZXh0TGVuZ3RoPSI1NiIgeD0iMjciIHk9IjE5NzkuMTU2MyI+aW50IHllYXI8L3RleHQ+PGxpbmUgc3R5bGU9InN0cm9rZTojMTgxODE4O3N0cm9rZS13aWR0aDowLjU7IiB4MT0iOCIgeDI9IjU2MiIgeTE9IjE5ODQuOTA2MyIgeTI9IjE5ODQuOTA2MyIvPjxlbGxpcHNlIGN4PSIxOCIgY3k9IjE5OTcuODk4NCIgZmlsbD0iIzg0QkU4NCIgcng9IjMiIHJ5PSIzIiBzdHlsZT0ic3Ryb2tlOiMwMzgwNDg7c3Ryb2tlLXdpZHRoOjEuMDsiLz48dGV4dCBmaWxsPSIjMDAwMDAwIiBmb250LWZhbWlseT0ic2Fucy1zZXJpZiIgZm9udC1zaXplPSIxNCIgbGVuZ3RoQWRqdXN0PSJzcGFjaW5nIiB0ZXh0TGVuZ3RoPSI1MzAiIHg9IjI3IiB5PSIyMDAyLjE0MDYiPlBlcnNvbihzdHJpbmcgaWQsIHN0cmluZyBmTmFtZSwgc3RyaW5nIGxOYW1lLCBpbnQgZGF5LCBpbnQgbW9udGgsIGludCB5ZWFyKTwvdGV4dD48ZWxsaXBzZSBjeD0iMTgiIGN5PSIyMDEyLjg4MjgiIGZpbGw9IiM4NEJFODQiIHJ4PSIzIiByeT0iMyIgc3R5bGU9InN0cm9rZTojMDM4MDQ4O3N0cm9rZS13aWR0aDoxLjA7Ii8+PHRleHQgZmlsbD0iIzAwMDAwMCIgZm9udC1mYW1pbHk9InNhbnMtc2VyaWYiIGZvbnQtc2l6ZT0iMTQiIGxlbmd0aEFkanVzdD0ic3BhY2luZyIgdGV4dExlbmd0aD0iMTA3IiB4PSIyNyIgeT0iMjAxNy4xMjUiPkdldElkKCk6IHN0cmluZzwvdGV4dD48ZWxsaXBzZSBjeD0iMTgiIGN5PSIyMDI3Ljg2NzIiIGZpbGw9IiM4NEJFODQiIHJ4PSIzIiByeT0iMyIgc3R5bGU9InN0cm9rZTojMDM4MDQ4O3N0cm9rZS13aWR0aDoxLjA7Ii8+PHRleHQgZmlsbD0iIzAwMDAwMCIgZm9udC1mYW1pbHk9InNhbnMtc2VyaWYiIGZvbnQtc2l6ZT0iMTQiIGxlbmd0aEFkanVzdD0ic3BhY2luZyIgdGV4dExlbmd0aD0iMTI5IiB4PSIyNyIgeT0iMjAzMi4xMDk0Ij5HZXRGTmFtZSgpOiBzdHJpbmc8L3RleHQ+PGVsbGlwc2UgY3g9IjE4IiBjeT0iMjA0Mi44NTE2IiBmaWxsPSIjODRCRTg0IiByeD0iMyIgcnk9IjMiIHN0eWxlPSJzdHJva2U6IzAzODA0ODtzdHJva2Utd2lkdGg6MS4wOyIvPjx0ZXh0IGZpbGw9IiMwMDAwMDAiIGZvbnQtZmFtaWx5PSJzYW5zLXNlcmlmIiBmb250LXNpemU9IjE0IiBsZW5ndGhBZGp1c3Q9InNwYWNpbmciIHRleHRMZW5ndGg9IjEyOSIgeD0iMjciIHk9IjIwNDcuMDkzOCI+R2V0TE5hbWUoKTogc3RyaW5nPC90ZXh0PjxlbGxpcHNlIGN4PSIxOCIgY3k9IjIwNTcuODM1OSIgZmlsbD0iIzg0QkU4NCIgcng9IjMiIHJ5PSIzIiBzdHlsZT0ic3Ryb2tlOiMwMzgwNDg7c3Ryb2tlLXdpZHRoOjEuMDsiLz48dGV4dCBmaWxsPSIjMDAwMDAwIiBmb250LWZhbWlseT0ic2Fucy1zZXJpZiIgZm9udC1zaXplPSIxNCIgbGVuZ3RoQWRqdXN0PSJzcGFjaW5nIiB0ZXh0TGVuZ3RoPSI5MyIgeD0iMjciIHk9IjIwNjIuMDc4MSI+R2V0RGF5KCk6IGludDwvdGV4dD48ZWxsaXBzZSBjeD0iMTgiIGN5PSIyMDcyLjgyMDMiIGZpbGw9IiM4NEJFODQiIHJ4PSIzIiByeT0iMyIgc3R5bGU9InN0cm9rZTojMDM4MDQ4O3N0cm9rZS13aWR0aDoxLjA7Ii8+PHRleHQgZmlsbD0iIzAwMDAwMCIgZm9udC1mYW1pbHk9InNhbnMtc2VyaWYiIGZvbnQtc2l6ZT0iMTQiIGxlbmd0aEFkanVzdD0ic3BhY2luZyIgdGV4dExlbmd0aD0iMTA3IiB4PSIyNyIgeT0iMjA3Ny4wNjI1Ij5HZXRNb250aCgpOiBpbnQ8L3RleHQ+PGVsbGlwc2UgY3g9IjE4IiBjeT0iMjA4Ny44MDQ3IiBmaWxsPSIjODRCRTg0IiByeD0iMyIgcnk9IjMiIHN0eWxlPSJzdHJva2U6IzAzODA0ODtzdHJva2Utd2lkdGg6MS4wOyIvPjx0ZXh0IGZpbGw9IiMwMDAwMDAiIGZvbnQtZmFtaWx5PSJzYW5zLXNlcmlmIiBmb250LXNpemU9IjE0IiBsZW5ndGhBZGp1c3Q9InNwYWNpbmciIHRleHRMZW5ndGg9IjEwMCIgeD0iMjciIHk9IjIwOTIuMDQ2OSI+R2V0WWVhcigpOiBpbnQ8L3RleHQ+PGVsbGlwc2UgY3g9IjE4IiBjeT0iMjEwMi43ODkxIiBmaWxsPSIjODRCRTg0IiByeD0iMyIgcnk9IjMiIHN0eWxlPSJzdHJva2U6IzAzODA0ODtzdHJva2Utd2lkdGg6MS4wOyIvPjx0ZXh0IGZpbGw9IiMwMDAwMDAiIGZvbnQtZmFtaWx5PSJzYW5zLXNlcmlmIiBmb250LXNpemU9IjE0IiBsZW5ndGhBZGp1c3Q9InNwYWNpbmciIHRleHRMZW5ndGg9IjEyOCIgeD0iMjciIHk9IjIxMDcuMDMxMyI+VG9TdHJpbmcoKTogc3RyaW5nPC90ZXh0PjwvZz48IS0tY2xhc3MgVXNlci0tPjxnIGlkPSJlbGVtX1VzZXIiPjxyZWN0IGNvZGVMaW5lPSIzMCIgZmlsbD0iI0YxRjFGMSIgaGVpZ2h0PSIyMjcuODEyNSIgaWQ9IlVzZXIiIHJ4PSIyLjUiIHJ5PSIyLjUiIHN0eWxlPSJzdHJva2U6IzE4MTgxODtzdHJva2Utd2lkdGg6MC41OyIgd2lkdGg9IjM2NiIgeD0iMTIzMCIgeT0iMTAzOSIvPjxlbGxpcHNlIGN4PSIxMzk0Ljc1IiBjeT0iMTA1NSIgZmlsbD0iI0FERDFCMiIgcng9IjExIiByeT0iMTEiIHN0eWxlPSJzdHJva2U6IzE4MTgxODtzdHJva2Utd2lkdGg6MS4wOyIvPjxwYXRoIGQ9Ik0xMzkyLjM3NSwxMDU5LjI1IEwxMzkyLjM3NSwxMDYxIEwxMzk3LjMxMjUsMTA2MSBMMTM5Ny4zMTI1LDEwNTkuMjUgTDEzOTIuMzc1LDEwNTkuMjUgWiBNMTM5My4wNjI1LDEwNTkuOTM3NSBRMTM5My4wNjI1LDEwNTkuOTM3NSAxMzkzLjA2MjUsMTA1MC43NSBMMTM5MS4zMTI1LDEwNTAuNzUgUTEzOTEuMzEyNSwxMDUwLjc1IDEzOTEuMzEyNSwxMDU5LjkzNzUgTDEzOTMuMDYyNSwxMDU5LjkzNzUgWiBNMTM5Ni42MjUsMTA1OS45Mzc1IEwxMzk4LjM3NSwxMDU5LjkzNzUgUTEzOTguMzc1LDEwNTkuOTM3NSAxMzk4LjM3NSwxMDU3LjEyNSBMMTM5Ni42MjUsMTA1Ny4xMjUgUTEzOTYuNjI1LDEwNTcuMTI1IDEzOTYuNjI1LDEwNTkuOTM3NSBaIE0xMzk2LjYyNSwxMDUwLjc1IFExMzk2LjYyNSwxMDUwLjc1IDEzOTYuNjI1LDEwNTMuNTYyNSBMMTM5OC4zNzUsMTA1My41NjI1IFExMzk4LjM3NSwxMDUzLjU2MjUgMTM5OC4zNzUsMTA1MC43NSBMMTM5Ni42MjUsMTA1MC43NSBaIE0xMzkyLjM3NSwxMDUxLjQzNzUgTDEzOTcuMzEyNSwxMDUxLjQzNzUgTDEzOTcuMzEyNSwxMDQ5LjY4NzUgTDEzOTIuMzc1LDEwNDkuNjg3NSBMMTM5Mi4zNzUsMTA1MS40Mzc1IFogIiBmaWxsPSIjMDAwMDAwIi8+PHRleHQgZmlsbD0iIzAwMDAwMCIgZm9udC1mYW1pbHk9InNhbnMtc2VyaWYiIGZvbnQtc2l6ZT0iMTQiIGxlbmd0aEFkanVzdD0ic3BhY2luZyIgdGV4dExlbmd0aD0iMjgiIHg9IjE0MTUuMjUiIHk9IjEwNjAuNzQyMiI+VXNlcjwvdGV4dD48bGluZSBzdHlsZT0ic3Ryb2tlOiMxODE4MTg7c3Ryb2tlLXdpZHRoOjAuNTsiIHgxPSIxMjMxIiB4Mj0iMTU5NSIgeTE9IjEwNzEiIHkyPSIxMDcxIi8+PHJlY3QgZmlsbD0ibm9uZSIgaGVpZ2h0PSI2IiBzdHlsZT0ic3Ryb2tlOiNDODI5MzA7c3Ryb2tlLXdpZHRoOjEuMDsiIHdpZHRoPSI2IiB4PSIxMjM4IiB5PSIxMDgwLjk5MjIiLz48dGV4dCBmaWxsPSIjMDAwMDAwIiBmb250LWZhbWlseT0ic2Fucy1zZXJpZiIgZm9udC1zaXplPSIxNCIgbGVuZ3RoQWRqdXN0PSJzcGFjaW5nIiB0ZXh0TGVuZ3RoPSI3NyIgeD0iMTI1MCIgeT0iMTA4OC4yMzQ0Ij5EaXZlciBkaXZlcjwvdGV4dD48cmVjdCBmaWxsPSJub25lIiBoZWlnaHQ9IjYiIHN0eWxlPSJzdHJva2U6I0M4MjkzMDtzdHJva2Utd2lkdGg6MS4wOyIgd2lkdGg9IjYiIHg9IjEyMzgiIHk9IjEwOTUuOTc2NiIvPjx0ZXh0IGZpbGw9IiMwMDAwMDAiIGZvbnQtZmFtaWx5PSJzYW5zLXNlcmlmIiBmb250LXNpemU9IjE0IiBsZW5ndGhBZGp1c3Q9InNwYWNpbmciIHRleHRMZW5ndGg9Ijg1IiB4PSIxMjUwIiB5PSIxMTAzLjIxODgiPnN0cmluZyBlbWFpbDwvdGV4dD48cmVjdCBmaWxsPSJub25lIiBoZWlnaHQ9IjYiIHN0eWxlPSJzdHJva2U6I0M4MjkzMDtzdHJva2Utd2lkdGg6MS4wOyIgd2lkdGg9IjYiIHg9IjEyMzgiIHk9IjExMTAuOTYwOSIvPjx0ZXh0IGZpbGw9IiMwMDAwMDAiIGZvbnQtZmFtaWx5PSJzYW5zLXNlcmlmIiBmb250LXNpemU9IjE0IiBsZW5ndGhBZGp1c3Q9InNwYWNpbmciIHRleHRMZW5ndGg9IjEwNiIgeD0iMTI1MCIgeT0iMTExOC4yMDMxIj5zdHJpbmcgcGFzc3dvcmQ8L3RleHQ+PGxpbmUgc3R5bGU9InN0cm9rZTojMTgxODE4O3N0cm9rZS13aWR0aDowLjU7IiB4MT0iMTIzMSIgeDI9IjE1OTUiIHkxPSIxMTIzLjk1MzEiIHkyPSIxMTIzLjk1MzEiLz48ZWxsaXBzZSBjeD0iMTI0MSIgY3k9IjExMzYuOTQ1MyIgZmlsbD0iIzg0QkU4NCIgcng9IjMiIHJ5PSIzIiBzdHlsZT0ic3Ryb2tlOiMwMzgwNDg7c3Ryb2tlLXdpZHRoOjEuMDsiLz48dGV4dCBmaWxsPSIjMDAwMDAwIiBmb250LWZhbWlseT0ic2Fucy1zZXJpZiIgZm9udC1zaXplPSIxNCIgbGVuZ3RoQWRqdXN0PSJzcGFjaW5nIiB0ZXh0TGVuZ3RoPSIzNDAiIHg9IjEyNTAiIHk9IjExNDEuMTg3NSI+VXNlcihEaXZlciBkaXZlciwgc3RyaW5nIGVtYWlsLCBzdHJpbmcgcGFzc3dvcmQpPC90ZXh0PjxlbGxpcHNlIGN4PSIxMjQxIiBjeT0iMTE1MS45Mjk3IiBmaWxsPSIjODRCRTg0IiByeD0iMyIgcnk9IjMiIHN0eWxlPSJzdHJva2U6IzAzODA0ODtzdHJva2Utd2lkdGg6MS4wOyIvPjx0ZXh0IGZpbGw9IiMwMDAwMDAiIGZvbnQtZmFtaWx5PSJzYW5zLXNlcmlmIiBmb250LXNpemU9IjE0IiBsZW5ndGhBZGp1c3Q9InNwYWNpbmciIHRleHRMZW5ndGg9IjE3NyIgeD0iMTI1MCIgeT0iMTE1Ni4xNzE5Ij5TZXRVc2VyRGl2ZXIoRGl2ZXIgZGl2ZXIpPC90ZXh0PjxlbGxpcHNlIGN4PSIxMjQxIiBjeT0iMTE2Ni45MTQxIiBmaWxsPSIjODRCRTg0IiByeD0iMyIgcnk9IjMiIHN0eWxlPSJzdHJva2U6IzAzODA0ODtzdHJva2Utd2lkdGg6MS4wOyIvPjx0ZXh0IGZpbGw9IiMwMDAwMDAiIGZvbnQtZmFtaWx5PSJzYW5zLXNlcmlmIiBmb250LXNpemU9IjE0IiBsZW5ndGhBZGp1c3Q9InNwYWNpbmciIHRleHRMZW5ndGg9IjE1OCIgeD0iMTI1MCIgeT0iMTE3MS4xNTYzIj5TZXRFbWFpbChzdHJpbmcgZW1haWwpPC90ZXh0PjxlbGxpcHNlIGN4PSIxMjQxIiBjeT0iMTE4MS44OTg0IiBmaWxsPSIjODRCRTg0IiByeD0iMyIgcnk9IjMiIHN0eWxlPSJzdHJva2U6IzAzODA0ODtzdHJva2Utd2lkdGg6MS4wOyIvPjx0ZXh0IGZpbGw9IiMwMDAwMDAiIGZvbnQtZmFtaWx5PSJzYW5zLXNlcmlmIiBmb250LXNpemU9IjE0IiBsZW5ndGhBZGp1c3Q9InNwYWNpbmciIHRleHRMZW5ndGg9IjE5OSIgeD0iMTI1MCIgeT0iMTE4Ni4xNDA2Ij5TZXRVc2VyUGFzcyhzdHJpbmcgcGFzc3dvcmQpPC90ZXh0PjxlbGxpcHNlIGN4PSIxMjQxIiBjeT0iMTE5Ni44ODI4IiBmaWxsPSIjODRCRTg0IiByeD0iMyIgcnk9IjMiIHN0eWxlPSJzdHJva2U6IzAzODA0ODtzdHJva2Utd2lkdGg6MS4wOyIvPjx0ZXh0IGZpbGw9IiMwMDAwMDAiIGZvbnQtZmFtaWx5PSJzYW5zLXNlcmlmIiBmb250LXNpemU9IjE0IiBsZW5ndGhBZGp1c3Q9InNwYWNpbmciIHRleHRMZW5ndGg9IjE0OSIgeD0iMTI1MCIgeT0iMTIwMS4xMjUiPkdldFVzZXJEaXZlcigpOiBEaXZlcjwvdGV4dD48ZWxsaXBzZSBjeD0iMTI0MSIgY3k9IjEyMTEuODY3MiIgZmlsbD0iIzg0QkU4NCIgcng9IjMiIHJ5PSIzIiBzdHlsZT0ic3Ryb2tlOiMwMzgwNDg7c3Ryb2tlLXdpZHRoOjEuMDsiLz48dGV4dCBmaWxsPSIjMDAwMDAwIiBmb250LWZhbWlseT0ic2Fucy1zZXJpZiIgZm9udC1zaXplPSIxNCIgbGVuZ3RoQWRqdXN0PSJzcGFjaW5nIiB0ZXh0TGVuZ3RoPSIxMjkiIHg9IjEyNTAiIHk9IjEyMTYuMTA5NCI+R2V0RW1haWwoKTogc3RyaW5nPC90ZXh0PjxlbGxpcHNlIGN4PSIxMjQxIiBjeT0iMTIyNi44NTE2IiBmaWxsPSIjODRCRTg0IiByeD0iMyIgcnk9IjMiIHN0eWxlPSJzdHJva2U6IzAzODA0ODtzdHJva2Utd2lkdGg6MS4wOyIvPjx0ZXh0IGZpbGw9IiMwMDAwMDAiIGZvbnQtZmFtaWx5PSJzYW5zLXNlcmlmIiBmb250LXNpemU9IjE0IiBsZW5ndGhBZGp1c3Q9InNwYWNpbmciIHRleHRMZW5ndGg9IjE0OSIgeD0iMTI1MCIgeT0iMTIzMS4wOTM4Ij5HZXRVc2VyUGFzcygpOiBzdHJpbmc8L3RleHQ+PGVsbGlwc2UgY3g9IjEyNDEiIGN5PSIxMjQxLjgzNTkiIGZpbGw9IiM4NEJFODQiIHJ4PSIzIiByeT0iMyIgc3R5bGU9InN0cm9rZTojMDM4MDQ4O3N0cm9rZS13aWR0aDoxLjA7Ii8+PHRleHQgZmlsbD0iIzAwMDAwMCIgZm9udC1mYW1pbHk9InNhbnMtc2VyaWYiIGZvbnQtc2l6ZT0iMTQiIGxlbmd0aEFkanVzdD0ic3BhY2luZyIgdGV4dExlbmd0aD0iMTIxIiB4PSIxMjUwIiB5PSIxMjQ2LjA3ODEiPkRpc3BsYXlBbGxEaXZlcygpPC90ZXh0PjxlbGxpcHNlIGN4PSIxMjQxIiBjeT0iMTI1Ni44MjAzIiBmaWxsPSIjODRCRTg0IiByeD0iMyIgcnk9IjMiIHN0eWxlPSJzdHJva2U6IzAzODA0ODtzdHJva2Utd2lkdGg6MS4wOyIvPjx0ZXh0IGZpbGw9IiMwMDAwMDAiIGZvbnQtZmFtaWx5PSJzYW5zLXNlcmlmIiBmb250LXNpemU9IjE0IiBsZW5ndGhBZGp1c3Q9InNwYWNpbmciIHRleHRMZW5ndGg9IjEyOCIgeD0iMTI1MCIgeT0iMTI2MS4wNjI1Ij5Ub1N0cmluZygpOiBzdHJpbmc8L3RleHQ+PC9nPjwhLS1jbGFzcyBEaXZlci0tPjxnIGlkPSJlbGVtX0RpdmVyIj48cmVjdCBjb2RlTGluZT0iNDUiIGZpbGw9IiNGMUYxRjEiIGhlaWdodD0iMzkyLjY0MDYiIGlkPSJEaXZlciIgcng9IjIuNSIgcnk9IjIuNSIgc3R5bGU9InN0cm9rZTojMTgxODE4O3N0cm9rZS13aWR0aDowLjU7IiB3aWR0aD0iMzI5IiB4PSIxMjQ0LjUiIHk9IjE0MDIiLz48ZWxsaXBzZSBjeD0iMTM4Ny4yNSIgY3k9IjE0MTgiIGZpbGw9IiNBREQxQjIiIHJ4PSIxMSIgcnk9IjExIiBzdHlsZT0ic3Ryb2tlOiMxODE4MTg7c3Ryb2tlLXdpZHRoOjEuMDsiLz48cGF0aCBkPSJNMTM4NC44NzUsMTQyMi4yNSBMMTM4NC44NzUsMTQyNCBMMTM4OS44MTI1LDE0MjQgTDEzODkuODEyNSwxNDIyLjI1IEwxMzg0Ljg3NSwxNDIyLjI1IFogTTEzODUuNTYyNSwxNDIyLjkzNzUgUTEzODUuNTYyNSwxNDIyLjkzNzUgMTM4NS41NjI1LDE0MTMuNzUgTDEzODMuODEyNSwxNDEzLjc1IFExMzgzLjgxMjUsMTQxMy43NSAxMzgzLjgxMjUsMTQyMi45Mzc1IEwxMzg1LjU2MjUsMTQyMi45Mzc1IFogTTEzODkuMTI1LDE0MjIuOTM3NSBMMTM5MC44NzUsMTQyMi45Mzc1IFExMzkwLjg3NSwxNDIyLjkzNzUgMTM5MC44NzUsMTQyMC4xMjUgTDEzODkuMTI1LDE0MjAuMTI1IFExMzg5LjEyNSwxNDIwLjEyNSAxMzg5LjEyNSwxNDIyLjkzNzUgWiBNMTM4OS4xMjUsMTQxMy43NSBRMTM4OS4xMjUsMTQxMy43NSAxMzg5LjEyNSwxNDE2LjU2MjUgTDEzOTAuODc1LDE0MTYuNTYyNSBRMTM5MC44NzUsMTQxNi41NjI1IDEzOTAuODc1LDE0MTMuNzUgTDEzODkuMTI1LDE0MTMuNzUgWiBNMTM4NC44NzUsMTQxNC40Mzc1IEwxMzg5LjgxMjUsMTQxNC40Mzc1IEwxMzg5LjgxMjUsMTQxMi42ODc1IEwxMzg0Ljg3NSwxNDEyLjY4NzUgTDEzODQuODc1LDE0MTQuNDM3NSBaICIgZmlsbD0iIzAwMDAwMCIvPjx0ZXh0IGZpbGw9IiMwMDAwMDAiIGZvbnQtZmFtaWx5PSJzYW5zLXNlcmlmIiBmb250LXNpemU9IjE0IiBsZW5ndGhBZGp1c3Q9InNwYWNpbmciIHRleHRMZW5ndGg9IjM1IiB4PSIxNDA3Ljc1IiB5PSIxNDIzLjc0MjIiPkRpdmVyPC90ZXh0PjxsaW5lIHN0eWxlPSJzdHJva2U6IzE4MTgxODtzdHJva2Utd2lkdGg6MC41OyIgeDE9IjEyNDUuNSIgeDI9IjE1NzIuNSIgeTE9IjE0MzQiIHkyPSIxNDM0Ii8+PHJlY3QgZmlsbD0ibm9uZSIgaGVpZ2h0PSI2IiBzdHlsZT0ic3Ryb2tlOiNDODI5MzA7c3Ryb2tlLXdpZHRoOjEuMDsiIHdpZHRoPSI2IiB4PSIxMjUyLjUiIHk9IjE0NDMuOTkyMiIvPjx0ZXh0IGZpbGw9IiMwMDAwMDAiIGZvbnQtZmFtaWx5PSJzYW5zLXNlcmlmIiBmb250LXNpemU9IjE0IiBsZW5ndGhBZGp1c3Q9InNwYWNpbmciIHRleHRMZW5ndGg9IjYzIiB4PSIxMjY0LjUiIHk9IjE0NTEuMjM0NCI+c3RyaW5nIGlkPC90ZXh0PjxyZWN0IGZpbGw9Im5vbmUiIGhlaWdodD0iNiIgc3R5bGU9InN0cm9rZTojQzgyOTMwO3N0cm9rZS13aWR0aDoxLjA7IiB3aWR0aD0iNiIgeD0iMTI1Mi41IiB5PSIxNDU4Ljk3NjYiLz48dGV4dCBmaWxsPSIjMDAwMDAwIiBmb250LWZhbWlseT0ic2Fucy1zZXJpZiIgZm9udC1zaXplPSIxNCIgbGVuZ3RoQWRqdXN0PSJzcGFjaW5nIiB0ZXh0TGVuZ3RoPSI4NSIgeD0iMTI2NC41IiB5PSIxNDY2LjIxODgiPnN0cmluZyBmTmFtZTwvdGV4dD48cmVjdCBmaWxsPSJub25lIiBoZWlnaHQ9IjYiIHN0eWxlPSJzdHJva2U6I0M4MjkzMDtzdHJva2Utd2lkdGg6MS4wOyIgd2lkdGg9IjYiIHg9IjEyNTIuNSIgeT0iMTQ3My45NjA5Ii8+PHRleHQgZmlsbD0iIzAwMDAwMCIgZm9udC1mYW1pbHk9InNhbnMtc2VyaWYiIGZvbnQtc2l6ZT0iMTQiIGxlbmd0aEFkanVzdD0ic3BhY2luZyIgdGV4dExlbmd0aD0iODUiIHg9IjEyNjQuNSIgeT0iMTQ4MS4yMDMxIj5zdHJpbmcgbE5hbWU8L3RleHQ+PHJlY3QgZmlsbD0ibm9uZSIgaGVpZ2h0PSI2IiBzdHlsZT0ic3Ryb2tlOiNDODI5MzA7c3Ryb2tlLXdpZHRoOjEuMDsiIHdpZHRoPSI2IiB4PSIxMjUyLjUiIHk9IjE0ODguOTQ1MyIvPjx0ZXh0IGZpbGw9IiMwMDAwMDAiIGZvbnQtZmFtaWx5PSJzYW5zLXNlcmlmIiBmb250LXNpemU9IjE0IiBsZW5ndGhBZGp1c3Q9InNwYWNpbmciIHRleHRMZW5ndGg9IjQ5IiB4PSIxMjY0LjUiIHk9IjE0OTYuMTg3NSI+aW50IGRheTwvdGV4dD48cmVjdCBmaWxsPSJub25lIiBoZWlnaHQ9IjYiIHN0eWxlPSJzdHJva2U6I0M4MjkzMDtzdHJva2Utd2lkdGg6MS4wOyIgd2lkdGg9IjYiIHg9IjEyNTIuNSIgeT0iMTUwMy45Mjk3Ii8+PHRleHQgZmlsbD0iIzAwMDAwMCIgZm9udC1mYW1pbHk9InNhbnMtc2VyaWYiIGZvbnQtc2l6ZT0iMTQiIGxlbmd0aEFkanVzdD0ic3BhY2luZyIgdGV4dExlbmd0aD0iNjQiIHg9IjEyNjQuNSIgeT0iMTUxMS4xNzE5Ij5pbnQgbW9udGg8L3RleHQ+PHJlY3QgZmlsbD0ibm9uZSIgaGVpZ2h0PSI2IiBzdHlsZT0ic3Ryb2tlOiNDODI5MzA7c3Ryb2tlLXdpZHRoOjEuMDsiIHdpZHRoPSI2IiB4PSIxMjUyLjUiIHk9IjE1MTguOTE0MSIvPjx0ZXh0IGZpbGw9IiMwMDAwMDAiIGZvbnQtZmFtaWx5PSJzYW5zLXNlcmlmIiBmb250LXNpemU9IjE0IiBsZW5ndGhBZGp1c3Q9InNwYWNpbmciIHRleHRMZW5ndGg9IjU2IiB4PSIxMjY0LjUiIHk9IjE1MjYuMTU2MyI+aW50IHllYXI8L3RleHQ+PHJlY3QgZmlsbD0ibm9uZSIgaGVpZ2h0PSI2IiBzdHlsZT0ic3Ryb2tlOiNDODI5MzA7c3Ryb2tlLXdpZHRoOjEuMDsiIHdpZHRoPSI2IiB4PSIxMjUyLjUiIHk9IjE1MzMuODk4NCIvPjx0ZXh0IGZpbGw9IiMwMDAwMDAiIGZvbnQtZmFtaWx5PSJzYW5zLXNlcmlmIiBmb250LXNpemU9IjE0IiBsZW5ndGhBZGp1c3Q9InNwYWNpbmciIHRleHRMZW5ndGg9IjkxIiB4PSIxMjY0LjUiIHk9IjE1NDEuMTQwNiI+aW50IGRpdmVzRG9uZTwvdGV4dD48cmVjdCBmaWxsPSJub25lIiBoZWlnaHQ9IjYiIHN0eWxlPSJzdHJva2U6I0M4MjkzMDtzdHJva2Utd2lkdGg6MS4wOyIgd2lkdGg9IjYiIHg9IjEyNTIuNSIgeT0iMTU0OC44ODI4Ii8+PHRleHQgZmlsbD0iIzAwMDAwMCIgZm9udC1mYW1pbHk9InNhbnMtc2VyaWYiIGZvbnQtc2l6ZT0iMTQiIGxlbmd0aEFkanVzdD0ic3BhY2luZyIgdGV4dExlbmd0aD0iMTQwIiB4PSIxMjY0LjUiIHk9IjE1NTYuMTI1Ij5ib29sIGN1cnJlbnRseURpdmluZzwvdGV4dD48cmVjdCBmaWxsPSJub25lIiBoZWlnaHQ9IjYiIHN0eWxlPSJzdHJva2U6I0M4MjkzMDtzdHJva2Utd2lkdGg6MS4wOyIgd2lkdGg9IjYiIHg9IjEyNTIuNSIgeT0iMTU2My44NjcyIi8+PHRleHQgZmlsbD0iIzAwMDAwMCIgZm9udC1mYW1pbHk9InNhbnMtc2VyaWYiIGZvbnQtc2l6ZT0iMTQiIGxlbmd0aEFkanVzdD0ic3BhY2luZyIgdGV4dExlbmd0aD0iMTkxIiB4PSIxMjY0LjUiIHk9IjE1NzEuMTA5NCI+RGljdGlvbmFyeSZsdDtJdGVtLCBpbnQmZ3Q7IGl0ZW1zPC90ZXh0PjxyZWN0IGZpbGw9Im5vbmUiIGhlaWdodD0iNiIgc3R5bGU9InN0cm9rZTojQzgyOTMwO3N0cm9rZS13aWR0aDoxLjA7IiB3aWR0aD0iNiIgeD0iMTI1Mi41IiB5PSIxNTc4Ljg1MTYiLz48dGV4dCBmaWxsPSIjMDAwMDAwIiBmb250LWZhbWlseT0ic2Fucy1zZXJpZiIgZm9udC1zaXplPSIxNCIgbGVuZ3RoQWRqdXN0PSJzcGFjaW5nIiB0ZXh0TGVuZ3RoPSIxNzUiIHg9IjEyNjQuNSIgeT0iMTU4Ni4wOTM4Ij5EaXZlUmFua0dpdmVuIHJhbmtDdXJyZW50PC90ZXh0PjxyZWN0IGZpbGw9Im5vbmUiIGhlaWdodD0iNiIgc3R5bGU9InN0cm9rZTojQzgyOTMwO3N0cm9rZS13aWR0aDoxLjA7IiB3aWR0aD0iNiIgeD0iMTI1Mi41IiB5PSIxNTkzLjgzNTkiLz48dGV4dCBmaWxsPSIjMDAwMDAwIiBmb250LWZhbWlseT0ic2Fucy1zZXJpZiIgZm9udC1zaXplPSIxNCIgbGVuZ3RoQWRqdXN0PSJzcGFjaW5nIiB0ZXh0TGVuZ3RoPSIxODkiIHg9IjEyNjQuNSIgeT0iMTYwMS4wNzgxIj5EaXZlUmFua0dpdmVuW10gcmFua0hpc3Rvcnk8L3RleHQ+PGxpbmUgc3R5bGU9InN0cm9rZTojMTgxODE4O3N0cm9rZS13aWR0aDowLjU7IiB4MT0iMTI0NS41IiB4Mj0iMTU3Mi41IiB5MT0iMTYwNi44MjgxIiB5Mj0iMTYwNi44MjgxIi8+PGVsbGlwc2UgY3g9IjEyNTUuNSIgY3k9IjE2MTkuODIwMyIgZmlsbD0iIzg0QkU4NCIgcng9IjMiIHJ5PSIzIiBzdHlsZT0ic3Ryb2tlOiMwMzgwNDg7c3Ryb2tlLXdpZHRoOjEuMDsiLz48dGV4dCBmaWxsPSIjMDAwMDAwIiBmb250LWZhbWlseT0ic2Fucy1zZXJpZiIgZm9udC1zaXplPSIxNCIgbGVuZ3RoQWRqdXN0PSJzcGFjaW5nIiB0ZXh0TGVuZ3RoPSIxOTEiIHg9IjEyNjQuNSIgeT0iMTYyNC4wNjI1Ij5TZXREaXZlc0RvbmUoaW50IGRpdmVzRG9uZSk8L3RleHQ+PGVsbGlwc2UgY3g9IjEyNTUuNSIgY3k9IjE2MzQuODA0NyIgZmlsbD0iIzg0QkU4NCIgcng9IjMiIHJ5PSIzIiBzdHlsZT0ic3Ryb2tlOiMwMzgwNDg7c3Ryb2tlLXdpZHRoOjEuMDsiLz48dGV4dCBmaWxsPSIjMDAwMDAwIiBmb250LWZhbWlseT0ic2Fucy1zZXJpZiIgZm9udC1zaXplPSIxNCIgbGVuZ3RoQWRqdXN0PSJzcGFjaW5nIiB0ZXh0TGVuZ3RoPSIyODIiIHg9IjEyNjQuNSIgeT0iMTYzOS4wNDY5Ij5TZXRDdXJyZW50bHlEaXZpbmcoYm9vbCBjdXJyZW50bHlEaXZpbmcpPC90ZXh0PjxlbGxpcHNlIGN4PSIxMjU1LjUiIGN5PSIxNjQ5Ljc4OTEiIGZpbGw9IiM4NEJFODQiIHJ4PSIzIiByeT0iMyIgc3R5bGU9InN0cm9rZTojMDM4MDQ4O3N0cm9rZS13aWR0aDoxLjA7Ii8+PHRleHQgZmlsbD0iIzAwMDAwMCIgZm9udC1mYW1pbHk9InNhbnMtc2VyaWYiIGZvbnQtc2l6ZT0iMTQiIGxlbmd0aEFkanVzdD0ic3BhY2luZyIgdGV4dExlbmd0aD0iMjY0IiB4PSIxMjY0LjUiIHk9IjE2NTQuMDMxMyI+U2V0SXRlbXMoRGljdGlvbmFyeSZsdDtJdGVtLCBpbnQmZ3Q7IGl0ZW1zKTwvdGV4dD48ZWxsaXBzZSBjeD0iMTI1NS41IiBjeT0iMTY2NC43NzM0IiBmaWxsPSIjODRCRTg0IiByeD0iMyIgcnk9IjMiIHN0eWxlPSJzdHJva2U6IzAzODA0ODtzdHJva2Utd2lkdGg6MS4wOyIvPjx0ZXh0IGZpbGw9IiMwMDAwMDAiIGZvbnQtZmFtaWx5PSJzYW5zLXNlcmlmIiBmb250LXNpemU9IjE0IiBsZW5ndGhBZGp1c3Q9InNwYWNpbmciIHRleHRMZW5ndGg9IjI4OSIgeD0iMTI2NC41IiB5PSIxNjY5LjAxNTYiPlNldFJhbmtDdXJyZW50KERpdmVSYW5rR2l2ZW4gcmFua0N1cnJlbnQpPC90ZXh0PjxlbGxpcHNlIGN4PSIxMjU1LjUiIGN5PSIxNjc5Ljc1NzgiIGZpbGw9IiM4NEJFODQiIHJ4PSIzIiByeT0iMyIgc3R5bGU9InN0cm9rZTojMDM4MDQ4O3N0cm9rZS13aWR0aDoxLjA7Ii8+PHRleHQgZmlsbD0iIzAwMDAwMCIgZm9udC1mYW1pbHk9InNhbnMtc2VyaWYiIGZvbnQtc2l6ZT0iMTQiIGxlbmd0aEFkanVzdD0ic3BhY2luZyIgdGV4dExlbmd0aD0iMzAzIiB4PSIxMjY0LjUiIHk9IjE2ODQiPlNldFJhbmtIaXN0b3J5KERpdmVSYW5rR2l2ZW5bXSByYW5rSGlzdG9yeSk8L3RleHQ+PGVsbGlwc2UgY3g9IjEyNTUuNSIgY3k9IjE2OTQuNzQyMiIgZmlsbD0iIzg0QkU4NCIgcng9IjMiIHJ5PSIzIiBzdHlsZT0ic3Ryb2tlOiMwMzgwNDg7c3Ryb2tlLXdpZHRoOjEuMDsiLz48dGV4dCBmaWxsPSIjMDAwMDAwIiBmb250LWZhbWlseT0ic2Fucy1zZXJpZiIgZm9udC1zaXplPSIxNCIgbGVuZ3RoQWRqdXN0PSJzcGFjaW5nIiB0ZXh0TGVuZ3RoPSIxMzUiIHg9IjEyNjQuNSIgeT0iMTY5OC45ODQ0Ij5HZXREaXZlc0RvbmUoKTogaW50PC90ZXh0PjxlbGxpcHNlIGN4PSIxMjU1LjUiIGN5PSIxNzA5LjcyNjYiIGZpbGw9IiM4NEJFODQiIHJ4PSIzIiByeT0iMyIgc3R5bGU9InN0cm9rZTojMDM4MDQ4O3N0cm9rZS13aWR0aDoxLjA7Ii8+PHRleHQgZmlsbD0iIzAwMDAwMCIgZm9udC1mYW1pbHk9InNhbnMtc2VyaWYiIGZvbnQtc2l6ZT0iMTQiIGxlbmd0aEFkanVzdD0ic3BhY2luZyIgdGV4dExlbmd0aD0iMTg0IiB4PSIxMjY0LjUiIHk9IjE3MTMuOTY4OCI+R2V0Q3VycmVudGx5RGl2aW5nKCk6IGJvb2w8L3RleHQ+PGVsbGlwc2UgY3g9IjEyNTUuNSIgY3k9IjE3MjQuNzEwOSIgZmlsbD0iIzg0QkU4NCIgcng9IjMiIHJ5PSIzIiBzdHlsZT0ic3Ryb2tlOiMwMzgwNDg7c3Ryb2tlLXdpZHRoOjEuMDsiLz48dGV4dCBmaWxsPSIjMDAwMDAwIiBmb250LWZhbWlseT0ic2Fucy1zZXJpZiIgZm9udC1zaXplPSIxNCIgbGVuZ3RoQWRqdXN0PSJzcGFjaW5nIiB0ZXh0TGVuZ3RoPSIyMzUiIHg9IjEyNjQuNSIgeT0iMTcyOC45NTMxIj5HZXRJdGVtcygpOiBEaWN0aW9uYXJ5Jmx0O0l0ZW0sIGludCZndDs8L3RleHQ+PGVsbGlwc2UgY3g9IjEyNTUuNSIgY3k9IjE3MzkuNjk1MyIgZmlsbD0iIzg0QkU4NCIgcng9IjMiIHJ5PSIzIiBzdHlsZT0ic3Ryb2tlOiMwMzgwNDg7c3Ryb2tlLXdpZHRoOjEuMDsiLz48dGV4dCBmaWxsPSIjMDAwMDAwIiBmb250LWZhbWlseT0ic2Fucy1zZXJpZiIgZm9udC1zaXplPSIxNCIgbGVuZ3RoQWRqdXN0PSJzcGFjaW5nIiB0ZXh0TGVuZ3RoPSIyMTkiIHg9IjEyNjQuNSIgeT0iMTc0My45Mzc1Ij5HZXRSYW5rQ3VycmVudCgpOiBEaXZlUmFua0dpdmVuPC90ZXh0PjxlbGxpcHNlIGN4PSIxMjU1LjUiIGN5PSIxNzU0LjY3OTciIGZpbGw9IiM4NEJFODQiIHJ4PSIzIiByeT0iMyIgc3R5bGU9InN0cm9rZTojMDM4MDQ4O3N0cm9rZS13aWR0aDoxLjA7Ii8+PHRleHQgZmlsbD0iIzAwMDAwMCIgZm9udC1mYW1pbHk9InNhbnMtc2VyaWYiIGZvbnQtc2l6ZT0iMTQiIGxlbmd0aEFkanVzdD0ic3BhY2luZyIgdGV4dExlbmd0aD0iMjMzIiB4PSIxMjY0LjUiIHk9IjE3NTguOTIxOSI+R2V0UmFua0hpc3RvcnkoKTogRGl2ZVJhbmtHaXZlbltdPC90ZXh0PjxlbGxpcHNlIGN4PSIxMjU1LjUiIGN5PSIxNzY5LjY2NDEiIGZpbGw9IiM4NEJFODQiIHJ4PSIzIiByeT0iMyIgc3R5bGU9InN0cm9rZTojMDM4MDQ4O3N0cm9rZS13aWR0aDoxLjA7Ii8+PHRleHQgZmlsbD0iIzAwMDAwMCIgZm9udC1mYW1pbHk9InNhbnMtc2VyaWYiIGZvbnQtc2l6ZT0iMTQiIGxlbmd0aEFkanVzdD0ic3BhY2luZyIgdGV4dExlbmd0aD0iMTI4IiB4PSIxMjY0LjUiIHk9IjE3NzMuOTA2MyI+VG9TdHJpbmcoKTogc3RyaW5nPC90ZXh0PjxlbGxpcHNlIGN4PSIxMjU1LjUiIGN5PSIxNzg0LjY0ODQiIGZpbGw9IiM4NEJFODQiIHJ4PSIzIiByeT0iMyIgc3R5bGU9InN0cm9rZTojMDM4MDQ4O3N0cm9rZS13aWR0aDoxLjA7Ii8+PHRleHQgZmlsbD0iIzAwMDAwMCIgZm9udC1mYW1pbHk9InNhbnMtc2VyaWYiIGZvbnQtc2l6ZT0iMTQiIGxlbmd0aEFkanVzdD0ic3BhY2luZyIgdGV4dExlbmd0aD0iMTE0IiB4PSIxMjY0LjUiIHk9IjE3ODguODkwNiI+U2lnbmF0dXJlIFNpZ24oKTwvdGV4dD48L2c+PCEtLWNsYXNzIERpdmVySW5zdHJ1Y3Rvci0tPjxnIGlkPSJlbGVtX0RpdmVySW5zdHJ1Y3RvciI+PHJlY3QgY29kZUxpbmU9IjcxIiBmaWxsPSIjRjFGMUYxIiBoZWlnaHQ9Ijc3Ljk2ODgiIGlkPSJEaXZlckluc3RydWN0b3IiIHJ4PSIyLjUiIHJ5PSIyLjUiIHN0eWxlPSJzdHJva2U6IzE4MTgxODtzdHJva2Utd2lkdGg6MC41OyIgd2lkdGg9IjE1NCIgeD0iMTA0MSIgeT0iNyIvPjxlbGxpcHNlIGN4PSIxMDYzLjY1IiBjeT0iMjMiIGZpbGw9IiNBREQxQjIiIHJ4PSIxMSIgcnk9IjExIiBzdHlsZT0ic3Ryb2tlOiMxODE4MTg7c3Ryb2tlLXdpZHRoOjEuMDsiLz48cGF0aCBkPSJNMTA2MS4yNzUsMjcuMjUgTDEwNjEuMjc1LDI5IEwxMDY2LjIxMjUsMjkgTDEwNjYuMjEyNSwyNy4yNSBMMTA2MS4yNzUsMjcuMjUgWiBNMTA2MS45NjI1LDI3LjkzNzUgUTEwNjEuOTYyNSwyNy45Mzc1IDEwNjEuOTYyNSwxOC43NSBMMTA2MC4yMTI1LDE4Ljc1IFExMDYwLjIxMjUsMTguNzUgMTA2MC4yMTI1LDI3LjkzNzUgTDEwNjEuOTYyNSwyNy45Mzc1IFogTTEwNjUuNTI1LDI3LjkzNzUgTDEwNjcuMjc1LDI3LjkzNzUgUTEwNjcuMjc1LDI3LjkzNzUgMTA2Ny4yNzUsMjUuMTI1IEwxMDY1LjUyNSwyNS4xMjUgUTEwNjUuNTI1LDI1LjEyNSAxMDY1LjUyNSwyNy45Mzc1IFogTTEwNjUuNTI1LDE4Ljc1IFExMDY1LjUyNSwxOC43NSAxMDY1LjUyNSwyMS41NjI1IEwxMDY3LjI3NSwyMS41NjI1IFExMDY3LjI3NSwyMS41NjI1IDEwNjcuMjc1LDE4Ljc1IEwxMDY1LjUyNSwxOC43NSBaIE0xMDYxLjI3NSwxOS40Mzc1IEwxMDY2LjIxMjUsMTkuNDM3NSBMMTA2Ni4yMTI1LDE3LjY4NzUgTDEwNjEuMjc1LDE3LjY4NzUgTDEwNjEuMjc1LDE5LjQzNzUgWiAiIGZpbGw9IiMwMDAwMDAiLz48dGV4dCBmaWxsPSIjMDAwMDAwIiBmb250LWZhbWlseT0ic2Fucy1zZXJpZiIgZm9udC1zaXplPSIxNCIgbGVuZ3RoQWRqdXN0PSJzcGFjaW5nIiB0ZXh0TGVuZ3RoPSIxMDUiIHg9IjEwNzkuMzUiIHk9IjI4Ljc0MjIiPkRpdmVySW5zdHJ1Y3RvcjwvdGV4dD48bGluZSBzdHlsZT0ic3Ryb2tlOiMxODE4MTg7c3Ryb2tlLXdpZHRoOjAuNTsiIHgxPSIxMDQyIiB4Mj0iMTE5NCIgeTE9IjM5IiB5Mj0iMzkiLz48bGluZSBzdHlsZT0ic3Ryb2tlOiMxODE4MTg7c3Ryb2tlLXdpZHRoOjAuNTsiIHgxPSIxMDQyIiB4Mj0iMTE5NCIgeTE9IjQ3IiB5Mj0iNDciLz48ZWxsaXBzZSBjeD0iMTA1MiIgY3k9IjU5Ljk5MjIiIGZpbGw9IiM4NEJFODQiIHJ4PSIzIiByeT0iMyIgc3R5bGU9InN0cm9rZTojMDM4MDQ4O3N0cm9rZS13aWR0aDoxLjA7Ii8+PHRleHQgZmlsbD0iIzAwMDAwMCIgZm9udC1mYW1pbHk9InNhbnMtc2VyaWYiIGZvbnQtc2l6ZT0iMTQiIGxlbmd0aEFkanVzdD0ic3BhY2luZyIgdGV4dExlbmd0aD0iMTI4IiB4PSIxMDYxIiB5PSI2NC4yMzQ0Ij5Ub1N0cmluZygpOiBzdHJpbmc8L3RleHQ+PGVsbGlwc2UgY3g9IjEwNTIiIGN5PSI3NC45NzY2IiBmaWxsPSIjODRCRTg0IiByeD0iMyIgcnk9IjMiIHN0eWxlPSJzdHJva2U6IzAzODA0ODtzdHJva2Utd2lkdGg6MS4wOyIvPjx0ZXh0IGZpbGw9IiMwMDAwMDAiIGZvbnQtZmFtaWx5PSJzYW5zLXNlcmlmIiBmb250LXNpemU9IjE0IiBsZW5ndGhBZGp1c3Q9InNwYWNpbmciIHRleHRMZW5ndGg9IjExNCIgeD0iMTA2MSIgeT0iNzkuMjE4OCI+U2lnbmF0dXJlIFNpZ24oKTwvdGV4dD48L2c+PCEtLWNsYXNzIERpdmVSYW5rLS0+PGcgaWQ9ImVsZW1fRGl2ZVJhbmsiPjxyZWN0IGNvZGVMaW5lPSI3OCIgZmlsbD0iI0YxRjFGMSIgaGVpZ2h0PSIxMjIuOTIxOSIgaWQ9IkRpdmVSYW5rIiByeD0iMi41IiByeT0iMi41IiBzdHlsZT0ic3Ryb2tlOiMxODE4MTg7c3Ryb2tlLXdpZHRoOjAuNTsiIHdpZHRoPSIxNTQiIHg9IjkxMSIgeT0iMzY1LjUiLz48ZWxsaXBzZSBjeD0iOTU1Ljc1IiBjeT0iMzgxLjUiIGZpbGw9IiNBREQxQjIiIHJ4PSIxMSIgcnk9IjExIiBzdHlsZT0ic3Ryb2tlOiMxODE4MTg7c3Ryb2tlLXdpZHRoOjEuMDsiLz48cGF0aCBkPSJNOTUzLjM3NSwzODUuNzUgTDk1My4zNzUsMzg3LjUgTDk1OC4zMTI1LDM4Ny41IEw5NTguMzEyNSwzODUuNzUgTDk1My4zNzUsMzg1Ljc1IFogTTk1NC4wNjI1LDM4Ni40Mzc1IFE5NTQuMDYyNSwzODYuNDM3NSA5NTQuMDYyNSwzNzcuMjUgTDk1Mi4zMTI1LDM3Ny4yNSBROTUyLjMxMjUsMzc3LjI1IDk1Mi4zMTI1LDM4Ni40Mzc1IEw5NTQuMDYyNSwzODYuNDM3NSBaIE05NTcuNjI1LDM4Ni40Mzc1IEw5NTkuMzc1LDM4Ni40Mzc1IFE5NTkuMzc1LDM4Ni40Mzc1IDk1OS4zNzUsMzgzLjYyNSBMOTU3LjYyNSwzODMuNjI1IFE5NTcuNjI1LDM4My42MjUgOTU3LjYyNSwzODYuNDM3NSBaIE05NTcuNjI1LDM3Ny4yNSBROTU3LjYyNSwzNzcuMjUgOTU3LjYyNSwzODAuMDYyNSBMOTU5LjM3NSwzODAuMDYyNSBROTU5LjM3NSwzODAuMDYyNSA5NTkuMzc1LDM3Ny4yNSBMOTU3LjYyNSwzNzcuMjUgWiBNOTUzLjM3NSwzNzcuOTM3NSBMOTU4LjMxMjUsMzc3LjkzNzUgTDk1OC4zMTI1LDM3Ni4xODc1IEw5NTMuMzc1LDM3Ni4xODc1IEw5NTMuMzc1LDM3Ny45Mzc1IFogIiBmaWxsPSIjMDAwMDAwIi8+PHRleHQgZmlsbD0iIzAwMDAwMCIgZm9udC1mYW1pbHk9InNhbnMtc2VyaWYiIGZvbnQtc2l6ZT0iMTQiIGxlbmd0aEFkanVzdD0ic3BhY2luZyIgdGV4dExlbmd0aD0iNTYiIHg9Ijk3Ni4yNSIgeT0iMzg3LjI0MjIiPkRpdmVSYW5rPC90ZXh0PjxsaW5lIHN0eWxlPSJzdHJva2U6IzE4MTgxODtzdHJva2Utd2lkdGg6MC41OyIgeDE9IjkxMiIgeDI9IjEwNjQiIHkxPSIzOTcuNSIgeTI9IjM5Ny41Ii8+PHJlY3QgZmlsbD0ibm9uZSIgaGVpZ2h0PSI2IiBzdHlsZT0ic3Ryb2tlOiNDODI5MzA7c3Ryb2tlLXdpZHRoOjEuMDsiIHdpZHRoPSI2IiB4PSI5MTkiIHk9IjQwNy40OTIyIi8+PHRleHQgZmlsbD0iIzAwMDAwMCIgZm9udC1mYW1pbHk9InNhbnMtc2VyaWYiIGZvbnQtc2l6ZT0iMTQiIGxlbmd0aEFkanVzdD0ic3BhY2luZyIgdGV4dExlbmd0aD0iNjMiIHg9IjkzMSIgeT0iNDE0LjczNDQiPnN0cmluZyBpZDwvdGV4dD48cmVjdCBmaWxsPSJub25lIiBoZWlnaHQ9IjYiIHN0eWxlPSJzdHJva2U6I0M4MjkzMDtzdHJva2Utd2lkdGg6MS4wOyIgd2lkdGg9IjYiIHg9IjkxOSIgeT0iNDIyLjQ3NjYiLz48dGV4dCBmaWxsPSIjMDAwMDAwIiBmb250LWZhbWlseT0ic2Fucy1zZXJpZiIgZm9udC1zaXplPSIxNCIgbGVuZ3RoQWRqdXN0PSJzcGFjaW5nIiB0ZXh0TGVuZ3RoPSI3OCIgeD0iOTMxIiB5PSI0MjkuNzE4OCI+c3RyaW5nIG5hbWU8L3RleHQ+PHJlY3QgZmlsbD0ibm9uZSIgaGVpZ2h0PSI2IiBzdHlsZT0ic3Ryb2tlOiNDODI5MzA7c3Ryb2tlLXdpZHRoOjEuMDsiIHdpZHRoPSI2IiB4PSI5MTkiIHk9IjQzNy40NjA5Ii8+PHRleHQgZmlsbD0iIzAwMDAwMCIgZm9udC1mYW1pbHk9InNhbnMtc2VyaWYiIGZvbnQtc2l6ZT0iMTQiIGxlbmd0aEFkanVzdD0ic3BhY2luZyIgdGV4dExlbmd0aD0iMTI2IiB4PSI5MzEiIHk9IjQ0NC43MDMxIj5zdHJpbmcgZGVzY3JpcHRpb248L3RleHQ+PHJlY3QgZmlsbD0ibm9uZSIgaGVpZ2h0PSI2IiBzdHlsZT0ic3Ryb2tlOiNDODI5MzA7c3Ryb2tlLXdpZHRoOjEuMDsiIHdpZHRoPSI2IiB4PSI5MTkiIHk9IjQ1Mi40NDUzIi8+PHRleHQgZmlsbD0iIzAwMDAwMCIgZm9udC1mYW1pbHk9InNhbnMtc2VyaWYiIGZvbnQtc2l6ZT0iMTQiIGxlbmd0aEFkanVzdD0ic3BhY2luZyIgdGV4dExlbmd0aD0iMTE5IiB4PSI5MzEiIHk9IjQ1OS42ODc1Ij5pbnQgcmVxdWlyZWREaXZlczwvdGV4dD48bGluZSBzdHlsZT0ic3Ryb2tlOiMxODE4MTg7c3Ryb2tlLXdpZHRoOjAuNTsiIHgxPSI5MTIiIHgyPSIxMDY0IiB5MT0iNDY1LjQzNzUiIHkyPSI0NjUuNDM3NSIvPjxlbGxpcHNlIGN4PSI5MjIiIGN5PSI0NzguNDI5NyIgZmlsbD0iIzg0QkU4NCIgcng9IjMiIHJ5PSIzIiBzdHlsZT0ic3Ryb2tlOiMwMzgwNDg7c3Ryb2tlLXdpZHRoOjEuMDsiLz48dGV4dCBmaWxsPSIjMDAwMDAwIiBmb250LWZhbWlseT0ic2Fucy1zZXJpZiIgZm9udC1zaXplPSIxNCIgbGVuZ3RoQWRqdXN0PSJzcGFjaW5nIiB0ZXh0TGVuZ3RoPSIxMjgiIHg9IjkzMSIgeT0iNDgyLjY3MTkiPlRvU3RyaW5nKCk6IHN0cmluZzwvdGV4dD48L2c+PCEtLWNsYXNzIERpdmVSYW5rR2l2ZW4tLT48ZyBpZD0iZWxlbV9EaXZlUmFua0dpdmVuIj48cmVjdCBjb2RlTGluZT0iODYiIGZpbGw9IiNGMUYxRjEiIGhlaWdodD0iOTIuOTUzMSIgaWQ9IkRpdmVSYW5rR2l2ZW4iIHJ4PSIyLjUiIHJ5PSIyLjUiIHN0eWxlPSJzdHJva2U6IzE4MTgxODtzdHJva2Utd2lkdGg6MC41OyIgd2lkdGg9IjE1NCIgeD0iOTExIiB5PSIxNDUiLz48ZWxsaXBzZSBjeD0iOTM5Ljk1IiBjeT0iMTYxIiBmaWxsPSIjQUREMUIyIiByeD0iMTEiIHJ5PSIxMSIgc3R5bGU9InN0cm9rZTojMTgxODE4O3N0cm9rZS13aWR0aDoxLjA7Ii8+PHBhdGggZD0iTTkzNy41NzUsMTY1LjI1IEw5MzcuNTc1LDE2NyBMOTQyLjUxMjUsMTY3IEw5NDIuNTEyNSwxNjUuMjUgTDkzNy41NzUsMTY1LjI1IFogTTkzOC4yNjI1LDE2NS45Mzc1IFE5MzguMjYyNSwxNjUuOTM3NSA5MzguMjYyNSwxNTYuNzUgTDkzNi41MTI1LDE1Ni43NSBROTM2LjUxMjUsMTU2Ljc1IDkzNi41MTI1LDE2NS45Mzc1IEw5MzguMjYyNSwxNjUuOTM3NSBaIE05NDEuODI1LDE2NS45Mzc1IEw5NDMuNTc1LDE2NS45Mzc1IFE5NDMuNTc1LDE2NS45Mzc1IDk0My41NzUsMTYzLjEyNSBMOTQxLjgyNSwxNjMuMTI1IFE5NDEuODI1LDE2My4xMjUgOTQxLjgyNSwxNjUuOTM3NSBaIE05NDEuODI1LDE1Ni43NSBROTQxLjgyNSwxNTYuNzUgOTQxLjgyNSwxNTkuNTYyNSBMOTQzLjU3NSwxNTkuNTYyNSBROTQzLjU3NSwxNTkuNTYyNSA5NDMuNTc1LDE1Ni43NSBMOTQxLjgyNSwxNTYuNzUgWiBNOTM3LjU3NSwxNTcuNDM3NSBMOTQyLjUxMjUsMTU3LjQzNzUgTDk0Mi41MTI1LDE1NS42ODc1IEw5MzcuNTc1LDE1NS42ODc1IEw5MzcuNTc1LDE1Ny40Mzc1IFogIiBmaWxsPSIjMDAwMDAwIi8+PHRleHQgZmlsbD0iIzAwMDAwMCIgZm9udC1mYW1pbHk9InNhbnMtc2VyaWYiIGZvbnQtc2l6ZT0iMTQiIGxlbmd0aEFkanVzdD0ic3BhY2luZyIgdGV4dExlbmd0aD0iOTEiIHg9Ijk1Ny4wNSIgeT0iMTY2Ljc0MjIiPkRpdmVSYW5rR2l2ZW48L3RleHQ+PGxpbmUgc3R5bGU9InN0cm9rZTojMTgxODE4O3N0cm9rZS13aWR0aDowLjU7IiB4MT0iOTEyIiB4Mj0iMTA2NCIgeTE9IjE3NyIgeTI9IjE3NyIvPjxyZWN0IGZpbGw9Im5vbmUiIGhlaWdodD0iNiIgc3R5bGU9InN0cm9rZTojQzgyOTMwO3N0cm9rZS13aWR0aDoxLjA7IiB3aWR0aD0iNiIgeD0iOTE5IiB5PSIxODYuOTkyMiIvPjx0ZXh0IGZpbGw9IiMwMDAwMDAiIGZvbnQtZmFtaWx5PSJzYW5zLXNlcmlmIiBmb250LXNpemU9IjE0IiBsZW5ndGhBZGp1c3Q9InNwYWNpbmciIHRleHRMZW5ndGg9IjkxIiB4PSI5MzEiIHk9IjE5NC4yMzQ0Ij5EaXZlUmFuayByYW5rPC90ZXh0PjxyZWN0IGZpbGw9Im5vbmUiIGhlaWdodD0iNiIgc3R5bGU9InN0cm9rZTojQzgyOTMwO3N0cm9rZS13aWR0aDoxLjA7IiB3aWR0aD0iNiIgeD0iOTE5IiB5PSIyMDEuOTc2NiIvPjx0ZXh0IGZpbGw9IiMwMDAwMDAiIGZvbnQtZmFtaWx5PSJzYW5zLXNlcmlmIiBmb250LXNpemU9IjE0IiBsZW5ndGhBZGp1c3Q9InNwYWNpbmciIHRleHRMZW5ndGg9IjEwNSIgeD0iOTMxIiB5PSIyMDkuMjE4OCI+RGl2aW5nQ2x1YiBjbHViPC90ZXh0PjxsaW5lIHN0eWxlPSJzdHJva2U6IzE4MTgxODtzdHJva2Utd2lkdGg6MC41OyIgeDE9IjkxMiIgeDI9IjEwNjQiIHkxPSIyMTQuOTY4OCIgeTI9IjIxNC45Njg4Ii8+PGVsbGlwc2UgY3g9IjkyMiIgY3k9IjIyNy45NjA5IiBmaWxsPSIjODRCRTg0IiByeD0iMyIgcnk9IjMiIHN0eWxlPSJzdHJva2U6IzAzODA0ODtzdHJva2Utd2lkdGg6MS4wOyIvPjx0ZXh0IGZpbGw9IiMwMDAwMDAiIGZvbnQtZmFtaWx5PSJzYW5zLXNlcmlmIiBmb250LXNpemU9IjE0IiBsZW5ndGhBZGp1c3Q9InNwYWNpbmciIHRleHRMZW5ndGg9IjEyOCIgeD0iOTMxIiB5PSIyMzIuMjAzMSI+VG9TdHJpbmcoKTogc3RyaW5nPC90ZXh0PjwvZz48IS0tY2xhc3MgRGl2aW5nQ2x1Yi0tPjxnIGlkPSJlbGVtX0RpdmluZ0NsdWIiPjxyZWN0IGNvZGVMaW5lPSI5MiIgZmlsbD0iI0YxRjFGMSIgaGVpZ2h0PSIyNTcuNzgxMyIgaWQ9IkRpdmluZ0NsdWIiIHJ4PSIyLjUiIHJ5PSIyLjUiIHN0eWxlPSJzdHJva2U6IzE4MTgxODtzdHJva2Utd2lkdGg6MC41OyIgd2lkdGg9IjI5MCIgeD0iNTg2IiB5PSIyOTgiLz48ZWxsaXBzZSBjeD0iNjkxLjc1IiBjeT0iMzE0IiBmaWxsPSIjQUREMUIyIiByeD0iMTEiIHJ5PSIxMSIgc3R5bGU9InN0cm9rZTojMTgxODE4O3N0cm9rZS13aWR0aDoxLjA7Ii8+PHBhdGggZD0iTTY4OS4zNzUsMzE4LjI1IEw2ODkuMzc1LDMyMCBMNjk0LjMxMjUsMzIwIEw2OTQuMzEyNSwzMTguMjUgTDY4OS4zNzUsMzE4LjI1IFogTTY5MC4wNjI1LDMxOC45Mzc1IFE2OTAuMDYyNSwzMTguOTM3NSA2OTAuMDYyNSwzMDkuNzUgTDY4OC4zMTI1LDMwOS43NSBRNjg4LjMxMjUsMzA5Ljc1IDY4OC4zMTI1LDMxOC45Mzc1IEw2OTAuMDYyNSwzMTguOTM3NSBaIE02OTMuNjI1LDMxOC45Mzc1IEw2OTUuMzc1LDMxOC45Mzc1IFE2OTUuMzc1LDMxOC45Mzc1IDY5NS4zNzUsMzE2LjEyNSBMNjkzLjYyNSwzMTYuMTI1IFE2OTMuNjI1LDMxNi4xMjUgNjkzLjYyNSwzMTguOTM3NSBaIE02OTMuNjI1LDMwOS43NSBRNjkzLjYyNSwzMDkuNzUgNjkzLjYyNSwzMTIuNTYyNSBMNjk1LjM3NSwzMTIuNTYyNSBRNjk1LjM3NSwzMTIuNTYyNSA2OTUuMzc1LDMwOS43NSBMNjkzLjYyNSwzMDkuNzUgWiBNNjg5LjM3NSwzMTAuNDM3NSBMNjk0LjMxMjUsMzEwLjQzNzUgTDY5NC4zMTI1LDMwOC42ODc1IEw2ODkuMzc1LDMwOC42ODc1IEw2ODkuMzc1LDMxMC40Mzc1IFogIiBmaWxsPSIjMDAwMDAwIi8+PHRleHQgZmlsbD0iIzAwMDAwMCIgZm9udC1mYW1pbHk9InNhbnMtc2VyaWYiIGZvbnQtc2l6ZT0iMTQiIGxlbmd0aEFkanVzdD0ic3BhY2luZyIgdGV4dExlbmd0aD0iNzAiIHg9IjcxMi4yNSIgeT0iMzE5Ljc0MjIiPkRpdmluZ0NsdWI8L3RleHQ+PGxpbmUgc3R5bGU9InN0cm9rZTojMTgxODE4O3N0cm9rZS13aWR0aDowLjU7IiB4MT0iNTg3IiB4Mj0iODc1IiB5MT0iMzMwIiB5Mj0iMzMwIi8+PHJlY3QgZmlsbD0ibm9uZSIgaGVpZ2h0PSI2IiBzdHlsZT0ic3Ryb2tlOiNDODI5MzA7c3Ryb2tlLXdpZHRoOjEuMDsiIHdpZHRoPSI2IiB4PSI1OTQiIHk9IjMzOS45OTIyIi8+PHRleHQgZmlsbD0iIzAwMDAwMCIgZm9udC1mYW1pbHk9InNhbnMtc2VyaWYiIGZvbnQtc2l6ZT0iMTQiIGxlbmd0aEFkanVzdD0ic3BhY2luZyIgdGV4dExlbmd0aD0iNjMiIHg9IjYwNiIgeT0iMzQ3LjIzNDQiPnN0cmluZyBpZDwvdGV4dD48cmVjdCBmaWxsPSJub25lIiBoZWlnaHQ9IjYiIHN0eWxlPSJzdHJva2U6I0M4MjkzMDtzdHJva2Utd2lkdGg6MS4wOyIgd2lkdGg9IjYiIHg9IjU5NCIgeT0iMzU0Ljk3NjYiLz48dGV4dCBmaWxsPSIjMDAwMDAwIiBmb250LWZhbWlseT0ic2Fucy1zZXJpZiIgZm9udC1zaXplPSIxNCIgbGVuZ3RoQWRqdXN0PSJzcGFjaW5nIiB0ZXh0TGVuZ3RoPSI3OCIgeD0iNjA2IiB5PSIzNjIuMjE4OCI+c3RyaW5nIG5hbWU8L3RleHQ+PHJlY3QgZmlsbD0ibm9uZSIgaGVpZ2h0PSI2IiBzdHlsZT0ic3Ryb2tlOiNDODI5MzA7c3Ryb2tlLXdpZHRoOjEuMDsiIHdpZHRoPSI2IiB4PSI1OTQiIHk9IjM2OS45NjA5Ii8+PHRleHQgZmlsbD0iIzAwMDAwMCIgZm9udC1mYW1pbHk9InNhbnMtc2VyaWYiIGZvbnQtc2l6ZT0iMTQiIGxlbmd0aEFkanVzdD0ic3BhY2luZyIgdGV4dExlbmd0aD0iMTQwIiB4PSI2MDYiIHk9IjM3Ny4yMDMxIj5QZXJzb24gY29udGFjdFBlcnNvbjwvdGV4dD48cmVjdCBmaWxsPSJub25lIiBoZWlnaHQ9IjYiIHN0eWxlPSJzdHJva2U6I0M4MjkzMDtzdHJva2Utd2lkdGg6MS4wOyIgd2lkdGg9IjYiIHg9IjU5NCIgeT0iMzg0Ljk0NTMiLz48dGV4dCBmaWxsPSIjMDAwMDAwIiBmb250LWZhbWlseT0ic2Fucy1zZXJpZiIgZm9udC1zaXplPSIxNCIgbGVuZ3RoQWRqdXN0PSJzcGFjaW5nIiB0ZXh0TGVuZ3RoPSIxMDUiIHg9IjYwNiIgeT0iMzkyLjE4NzUiPkFkZHJlc3MgYWRkcmVzczwvdGV4dD48cmVjdCBmaWxsPSJub25lIiBoZWlnaHQ9IjYiIHN0eWxlPSJzdHJva2U6I0M4MjkzMDtzdHJva2Utd2lkdGg6MS4wOyIgd2lkdGg9IjYiIHg9IjU5NCIgeT0iMzk5LjkyOTciLz48dGV4dCBmaWxsPSIjMDAwMDAwIiBmb250LWZhbWlseT0ic2Fucy1zZXJpZiIgZm9udC1zaXplPSIxNCIgbGVuZ3RoQWRqdXN0PSJzcGFjaW5nIiB0ZXh0TGVuZ3RoPSI4NCIgeD0iNjA2IiB5PSI0MDcuMTcxOSI+c3RyaW5nIHBob25lPC90ZXh0PjxyZWN0IGZpbGw9Im5vbmUiIGhlaWdodD0iNiIgc3R5bGU9InN0cm9rZTojQzgyOTMwO3N0cm9rZS13aWR0aDoxLjA7IiB3aWR0aD0iNiIgeD0iNTk0IiB5PSI0MTQuOTE0MSIvPjx0ZXh0IGZpbGw9IiMwMDAwMDAiIGZvbnQtZmFtaWx5PSJzYW5zLXNlcmlmIiBmb250LXNpemU9IjE0IiBsZW5ndGhBZGp1c3Q9InNwYWNpbmciIHRleHRMZW5ndGg9Ijg1IiB4PSI2MDYiIHk9IjQyMi4xNTYzIj5zdHJpbmcgZW1haWw8L3RleHQ+PHJlY3QgZmlsbD0ibm9uZSIgaGVpZ2h0PSI2IiBzdHlsZT0ic3Ryb2tlOiNDODI5MzA7c3Ryb2tlLXdpZHRoOjEuMDsiIHdpZHRoPSI2IiB4PSI1OTQiIHk9IjQyOS44OTg0Ii8+PHRleHQgZmlsbD0iIzAwMDAwMCIgZm9udC1mYW1pbHk9InNhbnMtc2VyaWYiIGZvbnQtc2l6ZT0iMTQiIGxlbmd0aEFkanVzdD0ic3BhY2luZyIgdGV4dExlbmd0aD0iMTQ3IiB4PSI2MDYiIHk9IjQzNy4xNDA2Ij5EaXZpbmdTaXRlIGRpdmluZ1NpdGU8L3RleHQ+PHJlY3QgZmlsbD0ibm9uZSIgaGVpZ2h0PSI2IiBzdHlsZT0ic3Ryb2tlOiNDODI5MzA7c3Ryb2tlLXdpZHRoOjEuMDsiIHdpZHRoPSI2IiB4PSI1OTQiIHk9IjQ0NC44ODI4Ii8+PHRleHQgZmlsbD0iIzAwMDAwMCIgZm9udC1mYW1pbHk9InNhbnMtc2VyaWYiIGZvbnQtc2l6ZT0iMTQiIGxlbmd0aEFkanVzdD0ic3BhY2luZyIgdGV4dExlbmd0aD0iOTkiIHg9IjYwNiIgeT0iNDUyLjEyNSI+c3RyaW5nIHdlYnNpdGU8L3RleHQ+PHJlY3QgZmlsbD0ibm9uZSIgaGVpZ2h0PSI2IiBzdHlsZT0ic3Ryb2tlOiNDODI5MzA7c3Ryb2tlLXdpZHRoOjEuMDsiIHdpZHRoPSI2IiB4PSI1OTQiIHk9IjQ1OS44NjcyIi8+PHRleHQgZmlsbD0iIzAwMDAwMCIgZm9udC1mYW1pbHk9InNhbnMtc2VyaWYiIGZvbnQtc2l6ZT0iMTQiIGxlbmd0aEFkanVzdD0ic3BhY2luZyIgdGV4dExlbmd0aD0iMTkxIiB4PSI2MDYiIHk9IjQ2Ny4xMDk0Ij5EaWN0aW9uYXJ5Jmx0O0l0ZW0sIGludCZndDsgaXRlbXM8L3RleHQ+PHJlY3QgZmlsbD0ibm9uZSIgaGVpZ2h0PSI2IiBzdHlsZT0ic3Ryb2tlOiNDODI5MzA7c3Ryb2tlLXdpZHRoOjEuMDsiIHdpZHRoPSI2IiB4PSI1OTQiIHk9IjQ3NC44NTE2Ii8+PHRleHQgZmlsbD0iIzAwMDAwMCIgZm9udC1mYW1pbHk9InNhbnMtc2VyaWYiIGZvbnQtc2l6ZT0iMTQiIGxlbmd0aEFkanVzdD0ic3BhY2luZyIgdGV4dExlbmd0aD0iMTYxIiB4PSI2MDYiIHk9IjQ4Mi4wOTM4Ij5EaXZpbmdJbmZvW10gZGl2aW5nTG9nczwvdGV4dD48bGluZSBzdHlsZT0ic3Ryb2tlOiMxODE4MTg7c3Ryb2tlLXdpZHRoOjAuNTsiIHgxPSI1ODciIHgyPSI4NzUiIHkxPSI0ODcuODQzOCIgeTI9IjQ4Ny44NDM4Ii8+PGVsbGlwc2UgY3g9IjU5NyIgY3k9IjUwMC44MzU5IiBmaWxsPSIjODRCRTg0IiByeD0iMyIgcnk9IjMiIHN0eWxlPSJzdHJva2U6IzAzODA0ODtzdHJva2Utd2lkdGg6MS4wOyIvPjx0ZXh0IGZpbGw9IiMwMDAwMDAiIGZvbnQtZmFtaWx5PSJzYW5zLXNlcmlmIiBmb250LXNpemU9IjE0IiBsZW5ndGhBZGp1c3Q9InNwYWNpbmciIHRleHRMZW5ndGg9IjI2NCIgeD0iNjA2IiB5PSI1MDUuMDc4MSI+U2V0SXRlbXMoRGljdGlvbmFyeSZsdDtJdGVtLCBpbnQmZ3Q7IGl0ZW1zKTwvdGV4dD48ZWxsaXBzZSBjeD0iNTk3IiBjeT0iNTE1LjgyMDMiIGZpbGw9IiM4NEJFODQiIHJ4PSIzIiByeT0iMyIgc3R5bGU9InN0cm9rZTojMDM4MDQ4O3N0cm9rZS13aWR0aDoxLjA7Ii8+PHRleHQgZmlsbD0iIzAwMDAwMCIgZm9udC1mYW1pbHk9InNhbnMtc2VyaWYiIGZvbnQtc2l6ZT0iMTQiIGxlbmd0aEFkanVzdD0ic3BhY2luZyIgdGV4dExlbmd0aD0iMjM1IiB4PSI2MDYiIHk9IjUyMC4wNjI1Ij5HZXRJdGVtcygpOiBEaWN0aW9uYXJ5Jmx0O0l0ZW0sIGludCZndDs8L3RleHQ+PGVsbGlwc2UgY3g9IjU5NyIgY3k9IjUzMC44MDQ3IiBmaWxsPSIjODRCRTg0IiByeD0iMyIgcnk9IjMiIHN0eWxlPSJzdHJva2U6IzAzODA0ODtzdHJva2Utd2lkdGg6MS4wOyIvPjx0ZXh0IGZpbGw9IiMwMDAwMDAiIGZvbnQtZmFtaWx5PSJzYW5zLXNlcmlmIiBmb250LXNpemU9IjE0IiBsZW5ndGhBZGp1c3Q9InNwYWNpbmciIHRleHRMZW5ndGg9IjEyOCIgeD0iNjA2IiB5PSI1MzUuMDQ2OSI+VG9TdHJpbmcoKTogc3RyaW5nPC90ZXh0PjxlbGxpcHNlIGN4PSI1OTciIGN5PSI1NDUuNzg5MSIgZmlsbD0iIzg0QkU4NCIgcng9IjMiIHJ5PSIzIiBzdHlsZT0ic3Ryb2tlOiMwMzgwNDg7c3Ryb2tlLXdpZHRoOjEuMDsiLz48dGV4dCBmaWxsPSIjMDAwMDAwIiBmb250LWZhbWlseT0ic2Fucy1zZXJpZiIgZm9udC1zaXplPSIxNCIgbGVuZ3RoQWRqdXN0PSJzcGFjaW5nIiB0ZXh0TGVuZ3RoPSIxMTQiIHg9IjYwNiIgeT0iNTUwLjAzMTMiPlNpZ25hdHVyZSBTaWduKCk8L3RleHQ+PC9nPjwhLS1jbGFzcyBEaXZpbmdTaXRlLS0+PGcgaWQ9ImVsZW1fRGl2aW5nU2l0ZSI+PHJlY3QgY29kZUxpbmU9IjEwOSIgZmlsbD0iI0YxRjFGMSIgaGVpZ2h0PSIzNzcuNjU2MyIgaWQ9IkRpdmluZ1NpdGUiIHJ4PSIyLjUiIHJ5PSIyLjUiIHN0eWxlPSJzdHJva2U6IzE4MTgxODtzdHJva2Utd2lkdGg6MC41OyIgd2lkdGg9IjI2NiIgeD0iNTk4IiB5PSI5NjQiLz48ZWxsaXBzZSBjeD0iNjkxLjc1IiBjeT0iOTgwIiBmaWxsPSIjQUREMUIyIiByeD0iMTEiIHJ5PSIxMSIgc3R5bGU9InN0cm9rZTojMTgxODE4O3N0cm9rZS13aWR0aDoxLjA7Ii8+PHBhdGggZD0iTTY4OS4zNzUsOTg0LjI1IEw2ODkuMzc1LDk4NiBMNjk0LjMxMjUsOTg2IEw2OTQuMzEyNSw5ODQuMjUgTDY4OS4zNzUsOTg0LjI1IFogTTY5MC4wNjI1LDk4NC45Mzc1IFE2OTAuMDYyNSw5ODQuOTM3NSA2OTAuMDYyNSw5NzUuNzUgTDY4OC4zMTI1LDk3NS43NSBRNjg4LjMxMjUsOTc1Ljc1IDY4OC4zMTI1LDk4NC45Mzc1IEw2OTAuMDYyNSw5ODQuOTM3NSBaIE02OTMuNjI1LDk4NC45Mzc1IEw2OTUuMzc1LDk4NC45Mzc1IFE2OTUuMzc1LDk4NC45Mzc1IDY5NS4zNzUsOTgyLjEyNSBMNjkzLjYyNSw5ODIuMTI1IFE2OTMuNjI1LDk4Mi4xMjUgNjkzLjYyNSw5ODQuOTM3NSBaIE02OTMuNjI1LDk3NS43NSBRNjkzLjYyNSw5NzUuNzUgNjkzLjYyNSw5NzguNTYyNSBMNjk1LjM3NSw5NzguNTYyNSBRNjk1LjM3NSw5NzguNTYyNSA2OTUuMzc1LDk3NS43NSBMNjkzLjYyNSw5NzUuNzUgWiBNNjg5LjM3NSw5NzYuNDM3NSBMNjk0LjMxMjUsOTc2LjQzNzUgTDY5NC4zMTI1LDk3NC42ODc1IEw2ODkuMzc1LDk3NC42ODc1IEw2ODkuMzc1LDk3Ni40Mzc1IFogIiBmaWxsPSIjMDAwMDAwIi8+PHRleHQgZmlsbD0iIzAwMDAwMCIgZm9udC1mYW1pbHk9InNhbnMtc2VyaWYiIGZvbnQtc2l6ZT0iMTQiIGxlbmd0aEFkanVzdD0ic3BhY2luZyIgdGV4dExlbmd0aD0iNzAiIHg9IjcxMi4yNSIgeT0iOTg1Ljc0MjIiPkRpdmluZ1NpdGU8L3RleHQ+PGxpbmUgc3R5bGU9InN0cm9rZTojMTgxODE4O3N0cm9rZS13aWR0aDowLjU7IiB4MT0iNTk5IiB4Mj0iODYzIiB5MT0iOTk2IiB5Mj0iOTk2Ii8+PHJlY3QgZmlsbD0ibm9uZSIgaGVpZ2h0PSI2IiBzdHlsZT0ic3Ryb2tlOiNDODI5MzA7c3Ryb2tlLXdpZHRoOjEuMDsiIHdpZHRoPSI2IiB4PSI2MDYiIHk9IjEwMDUuOTkyMiIvPjx0ZXh0IGZpbGw9IiMwMDAwMDAiIGZvbnQtZmFtaWx5PSJzYW5zLXNlcmlmIiBmb250LXNpemU9IjE0IiBsZW5ndGhBZGp1c3Q9InNwYWNpbmciIHRleHRMZW5ndGg9Ijc4IiB4PSI2MTgiIHk9IjEwMTMuMjM0NCI+c3RyaW5nIG5hbWU8L3RleHQ+PHJlY3QgZmlsbD0ibm9uZSIgaGVpZ2h0PSI2IiBzdHlsZT0ic3Ryb2tlOiNDODI5MzA7c3Ryb2tlLXdpZHRoOjEuMDsiIHdpZHRoPSI2IiB4PSI2MDYiIHk9IjEwMjAuOTc2NiIvPjx0ZXh0IGZpbGw9IiMwMDAwMDAiIGZvbnQtZmFtaWx5PSJzYW5zLXNlcmlmIiBmb250LXNpemU9IjE0IiBsZW5ndGhBZGp1c3Q9InNwYWNpbmciIHRleHRMZW5ndGg9IjEyNiIgeD0iNjE4IiB5PSIxMDI4LjIxODgiPnN0cmluZyBkZXNjcmlwdGlvbjwvdGV4dD48cmVjdCBmaWxsPSJub25lIiBoZWlnaHQ9IjYiIHN0eWxlPSJzdHJva2U6I0M4MjkzMDtzdHJva2Utd2lkdGg6MS4wOyIgd2lkdGg9IjYiIHg9IjYwNiIgeT0iMTAzNS45NjA5Ii8+PHRleHQgZmlsbD0iIzAwMDAwMCIgZm9udC1mYW1pbHk9InNhbnMtc2VyaWYiIGZvbnQtc2l6ZT0iMTQiIGxlbmd0aEFkanVzdD0ic3BhY2luZyIgdGV4dExlbmd0aD0iOTEiIHg9IjYxOCIgeT0iMTA0My4yMDMxIj5kb3VibGUgbGVuZ3RoPC90ZXh0PjxyZWN0IGZpbGw9Im5vbmUiIGhlaWdodD0iNiIgc3R5bGU9InN0cm9rZTojQzgyOTMwO3N0cm9rZS13aWR0aDoxLjA7IiB3aWR0aD0iNiIgeD0iNjA2IiB5PSIxMDUwLjk0NTMiLz48dGV4dCBmaWxsPSIjMDAwMDAwIiBmb250LWZhbWlseT0ic2Fucy1zZXJpZiIgZm9udC1zaXplPSIxNCIgbGVuZ3RoQWRqdXN0PSJzcGFjaW5nIiB0ZXh0TGVuZ3RoPSI4NSIgeD0iNjE4IiB5PSIxMDU4LjE4NzUiPmRvdWJsZSB3aWR0aDwvdGV4dD48cmVjdCBmaWxsPSJub25lIiBoZWlnaHQ9IjYiIHN0eWxlPSJzdHJva2U6I0M4MjkzMDtzdHJva2Utd2lkdGg6MS4wOyIgd2lkdGg9IjYiIHg9IjYwNiIgeT0iMTA2NS45Mjk3Ii8+PHRleHQgZmlsbD0iIzAwMDAwMCIgZm9udC1mYW1pbHk9InNhbnMtc2VyaWYiIGZvbnQtc2l6ZT0iMTQiIGxlbmd0aEFkanVzdD0ic3BhY2luZyIgdGV4dExlbmd0aD0iODQiIHg9IjYxOCIgeT0iMTA3My4xNzE5Ij5kb3VibGUgZGVwdGg8L3RleHQ+PHJlY3QgZmlsbD0ibm9uZSIgaGVpZ2h0PSI2IiBzdHlsZT0ic3Ryb2tlOiNDODI5MzA7c3Ryb2tlLXdpZHRoOjEuMDsiIHdpZHRoPSI2IiB4PSI2MDYiIHk9IjEwODAuOTE0MSIvPjx0ZXh0IGZpbGw9IiMwMDAwMDAiIGZvbnQtZmFtaWx5PSJzYW5zLXNlcmlmIiBmb250LXNpemU9IjE0IiBsZW5ndGhBZGp1c3Q9InNwYWNpbmciIHRleHRMZW5ndGg9IjEwNiIgeD0iNjE4IiB5PSIxMDg4LjE1NjMiPmJvb2wgd2F0ZXJTYWx0eTwvdGV4dD48cmVjdCBmaWxsPSJub25lIiBoZWlnaHQ9IjYiIHN0eWxlPSJzdHJva2U6I0M4MjkzMDtzdHJva2Utd2lkdGg6MS4wOyIgd2lkdGg9IjYiIHg9IjYwNiIgeT0iMTA5NS44OTg0Ii8+PHRleHQgZmlsbD0iIzAwMDAwMCIgZm9udC1mYW1pbHk9InNhbnMtc2VyaWYiIGZvbnQtc2l6ZT0iMTQiIGxlbmd0aEFkanVzdD0ic3BhY2luZyIgdGV4dExlbmd0aD0iMTA1IiB4PSI2MTgiIHk9IjExMDMuMTQwNiI+QWRkcmVzcyBhZGRyZXNzPC90ZXh0PjxsaW5lIHN0eWxlPSJzdHJva2U6IzE4MTgxODtzdHJva2Utd2lkdGg6MC41OyIgeDE9IjU5OSIgeDI9Ijg2MyIgeTE9IjExMDguODkwNiIgeTI9IjExMDguODkwNiIvPjxlbGxpcHNlIGN4PSI2MDkiIGN5PSIxMTIxLjg4MjgiIGZpbGw9IiM4NEJFODQiIHJ4PSIzIiByeT0iMyIgc3R5bGU9InN0cm9rZTojMDM4MDQ4O3N0cm9rZS13aWR0aDoxLjA7Ii8+PHRleHQgZmlsbD0iIzAwMDAwMCIgZm9udC1mYW1pbHk9InNhbnMtc2VyaWYiIGZvbnQtc2l6ZT0iMTQiIGxlbmd0aEFkanVzdD0ic3BhY2luZyIgdGV4dExlbmd0aD0iMTQ0IiB4PSI2MTgiIHk9IjExMjYuMTI1Ij5TZXROYW1lKHN0cmluZyBuYW1lKTwvdGV4dD48ZWxsaXBzZSBjeD0iNjA5IiBjeT0iMTEzNi44NjcyIiBmaWxsPSIjODRCRTg0IiByeD0iMyIgcnk9IjMiIHN0eWxlPSJzdHJva2U6IzAzODA0ODtzdHJva2Utd2lkdGg6MS4wOyIvPjx0ZXh0IGZpbGw9IiMwMDAwMDAiIGZvbnQtZmFtaWx5PSJzYW5zLXNlcmlmIiBmb250LXNpemU9IjE0IiBsZW5ndGhBZGp1c3Q9InNwYWNpbmciIHRleHRMZW5ndGg9IjI0MCIgeD0iNjE4IiB5PSIxMTQxLjEwOTQiPlNldERlc2NyaXB0aW9uKHN0cmluZyBkZXNjcmlwdGlvbik8L3RleHQ+PGVsbGlwc2UgY3g9IjYwOSIgY3k9IjExNTEuODUxNiIgZmlsbD0iIzg0QkU4NCIgcng9IjMiIHJ5PSIzIiBzdHlsZT0ic3Ryb2tlOiMwMzgwNDg7c3Ryb2tlLXdpZHRoOjEuMDsiLz48dGV4dCBmaWxsPSIjMDAwMDAwIiBmb250LWZhbWlseT0ic2Fucy1zZXJpZiIgZm9udC1zaXplPSIxNCIgbGVuZ3RoQWRqdXN0PSJzcGFjaW5nIiB0ZXh0TGVuZ3RoPSIxNzAiIHg9IjYxOCIgeT0iMTE1Ni4wOTM4Ij5TZXRMZW5ndGgoZG91YmxlIGxlbmd0aCk8L3RleHQ+PGVsbGlwc2UgY3g9IjYwOSIgY3k9IjExNjYuODM1OSIgZmlsbD0iIzg0QkU4NCIgcng9IjMiIHJ5PSIzIiBzdHlsZT0ic3Ryb2tlOiMwMzgwNDg7c3Ryb2tlLXdpZHRoOjEuMDsiLz48dGV4dCBmaWxsPSIjMDAwMDAwIiBmb250LWZhbWlseT0ic2Fucy1zZXJpZiIgZm9udC1zaXplPSIxNCIgbGVuZ3RoQWRqdXN0PSJzcGFjaW5nIiB0ZXh0TGVuZ3RoPSIxNTciIHg9IjYxOCIgeT0iMTE3MS4wNzgxIj5TZXRXaWR0aChkb3VibGUgd2lkdGgpPC90ZXh0PjxlbGxpcHNlIGN4PSI2MDkiIGN5PSIxMTgxLjgyMDMiIGZpbGw9IiM4NEJFODQiIHJ4PSIzIiByeT0iMyIgc3R5bGU9InN0cm9rZTojMDM4MDQ4O3N0cm9rZS13aWR0aDoxLjA7Ii8+PHRleHQgZmlsbD0iIzAwMDAwMCIgZm9udC1mYW1pbHk9InNhbnMtc2VyaWYiIGZvbnQtc2l6ZT0iMTQiIGxlbmd0aEFkanVzdD0ic3BhY2luZyIgdGV4dExlbmd0aD0iMTU2IiB4PSI2MTgiIHk9IjExODYuMDYyNSI+U2V0RGVwdGgoZG91YmxlIGRlcHRoKTwvdGV4dD48ZWxsaXBzZSBjeD0iNjA5IiBjeT0iMTE5Ni44MDQ3IiBmaWxsPSIjODRCRTg0IiByeD0iMyIgcnk9IjMiIHN0eWxlPSJzdHJva2U6IzAzODA0ODtzdHJva2Utd2lkdGg6MS4wOyIvPjx0ZXh0IGZpbGw9IiMwMDAwMDAiIGZvbnQtZmFtaWx5PSJzYW5zLXNlcmlmIiBmb250LXNpemU9IjE0IiBsZW5ndGhBZGp1c3Q9InNwYWNpbmciIHRleHRMZW5ndGg9IjIxMyIgeD0iNjE4IiB5PSIxMjAxLjA0NjkiPlNldFdhdGVyU2FsdHkoYm9vbCB3YXRlclNhbHR5KTwvdGV4dD48ZWxsaXBzZSBjeD0iNjA5IiBjeT0iMTIxMS43ODkxIiBmaWxsPSIjODRCRTg0IiByeD0iMyIgcnk9IjMiIHN0eWxlPSJzdHJva2U6IzAzODA0ODtzdHJva2Utd2lkdGg6MS4wOyIvPjx0ZXh0IGZpbGw9IiMwMDAwMDAiIGZvbnQtZmFtaWx5PSJzYW5zLXNlcmlmIiBmb250LXNpemU9IjE0IiBsZW5ndGhBZGp1c3Q9InNwYWNpbmciIHRleHRMZW5ndGg9IjE5MSIgeD0iNjE4IiB5PSIxMjE2LjAzMTMiPlNldEFkZHJlc3MoQWRkcmVzcyBhZGRyZXNzKTwvdGV4dD48ZWxsaXBzZSBjeD0iNjA5IiBjeT0iMTIyNi43NzM0IiBmaWxsPSIjODRCRTg0IiByeD0iMyIgcnk9IjMiIHN0eWxlPSJzdHJva2U6IzAzODA0ODtzdHJva2Utd2lkdGg6MS4wOyIvPjx0ZXh0IGZpbGw9IiMwMDAwMDAiIGZvbnQtZmFtaWx5PSJzYW5zLXNlcmlmIiBmb250LXNpemU9IjE0IiBsZW5ndGhBZGp1c3Q9InNwYWNpbmciIHRleHRMZW5ndGg9IjEyMiIgeD0iNjE4IiB5PSIxMjMxLjAxNTYiPkdldE5hbWUoKTogc3RyaW5nPC90ZXh0PjxlbGxpcHNlIGN4PSI2MDkiIGN5PSIxMjQxLjc1NzgiIGZpbGw9IiM4NEJFODQiIHJ4PSIzIiByeT0iMyIgc3R5bGU9InN0cm9rZTojMDM4MDQ4O3N0cm9rZS13aWR0aDoxLjA7Ii8+PHRleHQgZmlsbD0iIzAwMDAwMCIgZm9udC1mYW1pbHk9InNhbnMtc2VyaWYiIGZvbnQtc2l6ZT0iMTQiIGxlbmd0aEFkanVzdD0ic3BhY2luZyIgdGV4dExlbmd0aD0iMTcwIiB4PSI2MTgiIHk9IjEyNDYiPkdldERlc2NyaXB0aW9uKCk6IHN0cmluZzwvdGV4dD48ZWxsaXBzZSBjeD0iNjA5IiBjeT0iMTI1Ni43NDIyIiBmaWxsPSIjODRCRTg0IiByeD0iMyIgcnk9IjMiIHN0eWxlPSJzdHJva2U6IzAzODA0ODtzdHJva2Utd2lkdGg6MS4wOyIvPjx0ZXh0IGZpbGw9IiMwMDAwMDAiIGZvbnQtZmFtaWx5PSJzYW5zLXNlcmlmIiBmb250LXNpemU9IjE0IiBsZW5ndGhBZGp1c3Q9InNwYWNpbmciIHRleHRMZW5ndGg9IjEzNSIgeD0iNjE4IiB5PSIxMjYwLjk4NDQiPkdldExlbmd0aCgpOiBkb3VibGU8L3RleHQ+PGVsbGlwc2UgY3g9IjYwOSIgY3k9IjEyNzEuNzI2NiIgZmlsbD0iIzg0QkU4NCIgcng9IjMiIHJ5PSIzIiBzdHlsZT0ic3Ryb2tlOiMwMzgwNDg7c3Ryb2tlLXdpZHRoOjEuMDsiLz48dGV4dCBmaWxsPSIjMDAwMDAwIiBmb250LWZhbWlseT0ic2Fucy1zZXJpZiIgZm9udC1zaXplPSIxNCIgbGVuZ3RoQWRqdXN0PSJzcGFjaW5nIiB0ZXh0TGVuZ3RoPSIxMjgiIHg9IjYxOCIgeT0iMTI3NS45Njg4Ij5HZXRXaWR0aCgpOiBkb3VibGU8L3RleHQ+PGVsbGlwc2UgY3g9IjYwOSIgY3k9IjEyODYuNzEwOSIgZmlsbD0iIzg0QkU4NCIgcng9IjMiIHJ5PSIzIiBzdHlsZT0ic3Ryb2tlOiMwMzgwNDg7c3Ryb2tlLXdpZHRoOjEuMDsiLz48dGV4dCBmaWxsPSIjMDAwMDAwIiBmb250LWZhbWlseT0ic2Fucy1zZXJpZiIgZm9udC1zaXplPSIxNCIgbGVuZ3RoQWRqdXN0PSJzcGFjaW5nIiB0ZXh0TGVuZ3RoPSIxMjgiIHg9IjYxOCIgeT0iMTI5MC45NTMxIj5HZXREZXB0aCgpOiBkb3VibGU8L3RleHQ+PGVsbGlwc2UgY3g9IjYwOSIgY3k9IjEzMDEuNjk1MyIgZmlsbD0iIzg0QkU4NCIgcng9IjMiIHJ5PSIzIiBzdHlsZT0ic3Ryb2tlOiMwMzgwNDg7c3Ryb2tlLXdpZHRoOjEuMDsiLz48dGV4dCBmaWxsPSIjMDAwMDAwIiBmb250LWZhbWlseT0ic2Fucy1zZXJpZiIgZm9udC1zaXplPSIxNCIgbGVuZ3RoQWRqdXN0PSJzcGFjaW5nIiB0ZXh0TGVuZ3RoPSIxNDkiIHg9IjYxOCIgeT0iMTMwNS45Mzc1Ij5HZXRXYXRlclNhbHR5KCk6IGJvb2w8L3RleHQ+PGVsbGlwc2UgY3g9IjYwOSIgY3k9IjEzMTYuNjc5NyIgZmlsbD0iIzg0QkU4NCIgcng9IjMiIHJ5PSIzIiBzdHlsZT0ic3Ryb2tlOiMwMzgwNDg7c3Ryb2tlLXdpZHRoOjEuMDsiLz48dGV4dCBmaWxsPSIjMDAwMDAwIiBmb250LWZhbWlseT0ic2Fucy1zZXJpZiIgZm9udC1zaXplPSIxNCIgbGVuZ3RoQWRqdXN0PSJzcGFjaW5nIiB0ZXh0TGVuZ3RoPSIxNDkiIHg9IjYxOCIgeT0iMTMyMC45MjE5Ij5HZXRBZGRyZXNzKCk6IEFkZHJlc3M8L3RleHQ+PGVsbGlwc2UgY3g9IjYwOSIgY3k9IjEzMzEuNjY0MSIgZmlsbD0iIzg0QkU4NCIgcng9IjMiIHJ5PSIzIiBzdHlsZT0ic3Ryb2tlOiMwMzgwNDg7c3Ryb2tlLXdpZHRoOjEuMDsiLz48dGV4dCBmaWxsPSIjMDAwMDAwIiBmb250LWZhbWlseT0ic2Fucy1zZXJpZiIgZm9udC1zaXplPSIxNCIgbGVuZ3RoQWRqdXN0PSJzcGFjaW5nIiB0ZXh0TGVuZ3RoPSIxMjgiIHg9IjYxOCIgeT0iMTMzNS45MDYzIj5Ub1N0cmluZygpOiBzdHJpbmc8L3RleHQ+PC9nPjwhLS1jbGFzcyBEaXZlUmVndWxhdGlvbi0tPjxnIGlkPSJlbGVtX0RpdmVSZWd1bGF0aW9uIj48cmVjdCBjb2RlTGluZT0iMTM0IiBmaWxsPSIjRjFGMUYxIiBoZWlnaHQ9IjI0Mi43OTY5IiBpZD0iRGl2ZVJlZ3VsYXRpb24iIHJ4PSIyLjUiIHJ5PSIyLjUiIHN0eWxlPSJzdHJva2U6IzE4MTgxODtzdHJva2Utd2lkdGg6MC41OyIgd2lkdGg9IjMyNCIgeD0iNjc4IiB5PSIyMTczIi8+PGVsbGlwc2UgY3g9Ijc4Ni43NSIgY3k9IjIxODkiIGZpbGw9IiNBREQxQjIiIHJ4PSIxMSIgcnk9IjExIiBzdHlsZT0ic3Ryb2tlOiMxODE4MTg7c3Ryb2tlLXdpZHRoOjEuMDsiLz48cGF0aCBkPSJNNzg0LjM3NSwyMTkzLjI1IEw3ODQuMzc1LDIxOTUgTDc4OS4zMTI1LDIxOTUgTDc4OS4zMTI1LDIxOTMuMjUgTDc4NC4zNzUsMjE5My4yNSBaIE03ODUuMDYyNSwyMTkzLjkzNzUgUTc4NS4wNjI1LDIxOTMuOTM3NSA3ODUuMDYyNSwyMTg0Ljc1IEw3ODMuMzEyNSwyMTg0Ljc1IFE3ODMuMzEyNSwyMTg0Ljc1IDc4My4zMTI1LDIxOTMuOTM3NSBMNzg1LjA2MjUsMjE5My45Mzc1IFogTTc4OC42MjUsMjE5My45Mzc1IEw3OTAuMzc1LDIxOTMuOTM3NSBRNzkwLjM3NSwyMTkzLjkzNzUgNzkwLjM3NSwyMTkxLjEyNSBMNzg4LjYyNSwyMTkxLjEyNSBRNzg4LjYyNSwyMTkxLjEyNSA3ODguNjI1LDIxOTMuOTM3NSBaIE03ODguNjI1LDIxODQuNzUgUTc4OC42MjUsMjE4NC43NSA3ODguNjI1LDIxODcuNTYyNSBMNzkwLjM3NSwyMTg3LjU2MjUgUTc5MC4zNzUsMjE4Ny41NjI1IDc5MC4zNzUsMjE4NC43NSBMNzg4LjYyNSwyMTg0Ljc1IFogTTc4NC4zNzUsMjE4NS40Mzc1IEw3ODkuMzEyNSwyMTg1LjQzNzUgTDc4OS4zMTI1LDIxODMuNjg3NSBMNzg0LjM3NSwyMTgzLjY4NzUgTDc4NC4zNzUsMjE4NS40Mzc1IFogIiBmaWxsPSIjMDAwMDAwIi8+PHRleHQgZmlsbD0iIzAwMDAwMCIgZm9udC1mYW1pbHk9InNhbnMtc2VyaWYiIGZvbnQtc2l6ZT0iMTQiIGxlbmd0aEFkanVzdD0ic3BhY2luZyIgdGV4dExlbmd0aD0iOTgiIHg9IjgwNy4yNSIgeT0iMjE5NC43NDIyIj5EaXZlUmVndWxhdGlvbjwvdGV4dD48bGluZSBzdHlsZT0ic3Ryb2tlOiMxODE4MTg7c3Ryb2tlLXdpZHRoOjAuNTsiIHgxPSI2NzkiIHgyPSIxMDAxIiB5MT0iMjIwNSIgeTI9IjIyMDUiLz48cmVjdCBmaWxsPSJub25lIiBoZWlnaHQ9IjYiIHN0eWxlPSJzdHJva2U6I0M4MjkzMDtzdHJva2Utd2lkdGg6MS4wOyIgd2lkdGg9IjYiIHg9IjY4NiIgeT0iMjIxNC45OTIyIi8+PHRleHQgZmlsbD0iIzAwMDAwMCIgZm9udC1mYW1pbHk9InNhbnMtc2VyaWYiIGZvbnQtc2l6ZT0iMTQiIGxlbmd0aEFkanVzdD0ic3BhY2luZyIgdGV4dExlbmd0aD0iNzgiIHg9IjY5OCIgeT0iMjIyMi4yMzQ0Ij5zdHJpbmcgbmFtZTwvdGV4dD48cmVjdCBmaWxsPSJub25lIiBoZWlnaHQ9IjYiIHN0eWxlPSJzdHJva2U6I0M4MjkzMDtzdHJva2Utd2lkdGg6MS4wOyIgd2lkdGg9IjYiIHg9IjY4NiIgeT0iMjIyOS45NzY2Ii8+PHRleHQgZmlsbD0iIzAwMDAwMCIgZm9udC1mYW1pbHk9InNhbnMtc2VyaWYiIGZvbnQtc2l6ZT0iMTQiIGxlbmd0aEFkanVzdD0ic3BhY2luZyIgdGV4dExlbmd0aD0iMTQ4IiB4PSI2OTgiIHk9IjIyMzcuMjE4OCI+Ym9vbCBhdExlYXN0VHdvRGl2ZXJzPC90ZXh0PjxyZWN0IGZpbGw9Im5vbmUiIGhlaWdodD0iNiIgc3R5bGU9InN0cm9rZTojQzgyOTMwO3N0cm9rZS13aWR0aDoxLjA7IiB3aWR0aD0iNiIgeD0iNjg2IiB5PSIyMjQ0Ljk2MDkiLz48dGV4dCBmaWxsPSIjMDAwMDAwIiBmb250LWZhbWlseT0ic2Fucy1zZXJpZiIgZm9udC1zaXplPSIxNCIgbGVuZ3RoQWRqdXN0PSJzcGFjaW5nIiB0ZXh0TGVuZ3RoPSIxMjYiIHg9IjY5OCIgeT0iMjI1Mi4yMDMxIj5ib29sW10gcmVndWxhdGlvbnM8L3RleHQ+PHJlY3QgZmlsbD0ibm9uZSIgaGVpZ2h0PSI2IiBzdHlsZT0ic3Ryb2tlOiNDODI5MzA7c3Ryb2tlLXdpZHRoOjEuMDsiIHdpZHRoPSI2IiB4PSI2ODYiIHk9IjIyNTkuOTQ1MyIvPjx0ZXh0IGZpbGw9IiMwMDAwMDAiIGZvbnQtZmFtaWx5PSJzYW5zLXNlcmlmIiBmb250LXNpemU9IjE0IiBsZW5ndGhBZGp1c3Q9InNwYWNpbmciIHRleHRMZW5ndGg9Ijc3IiB4PSI2OTgiIHk9IjIyNjcuMTg3NSI+Ym9vbCBwYXNzZWQ8L3RleHQ+PGxpbmUgc3R5bGU9InN0cm9rZTojMTgxODE4O3N0cm9rZS13aWR0aDowLjU7IiB4MT0iNjc5IiB4Mj0iMTAwMSIgeTE9IjIyNzIuOTM3NSIgeTI9IjIyNzIuOTM3NSIvPjxlbGxpcHNlIGN4PSI2ODkiIGN5PSIyMjg1LjkyOTciIGZpbGw9IiM4NEJFODQiIHJ4PSIzIiByeT0iMyIgc3R5bGU9InN0cm9rZTojMDM4MDQ4O3N0cm9rZS13aWR0aDoxLjA7Ii8+PHRleHQgZmlsbD0iIzAwMDAwMCIgZm9udC1mYW1pbHk9InNhbnMtc2VyaWYiIGZvbnQtc2l6ZT0iMTQiIGxlbmd0aEFkanVzdD0ic3BhY2luZyIgdGV4dExlbmd0aD0iMTQ0IiB4PSI2OTgiIHk9IjIyOTAuMTcxOSI+U2V0TmFtZShzdHJpbmcgbmFtZSk8L3RleHQ+PGVsbGlwc2UgY3g9IjY4OSIgY3k9IjIzMDAuOTE0MSIgZmlsbD0iIzg0QkU4NCIgcng9IjMiIHJ5PSIzIiBzdHlsZT0ic3Ryb2tlOiMwMzgwNDg7c3Ryb2tlLXdpZHRoOjEuMDsiLz48dGV4dCBmaWxsPSIjMDAwMDAwIiBmb250LWZhbWlseT0ic2Fucy1zZXJpZiIgZm9udC1zaXplPSIxNCIgbGVuZ3RoQWRqdXN0PSJzcGFjaW5nIiB0ZXh0TGVuZ3RoPSIyOTgiIHg9IjY5OCIgeT0iMjMwNS4xNTYzIj5TZXRBdExlYXN0VHdvRGl2ZXJzKGJvb2wgYXRMZWFzdFR3b0RpdmVycyk8L3RleHQ+PGVsbGlwc2UgY3g9IjY4OSIgY3k9IjIzMTUuODk4NCIgZmlsbD0iIzg0QkU4NCIgcng9IjMiIHJ5PSIzIiBzdHlsZT0ic3Ryb2tlOiMwMzgwNDg7c3Ryb2tlLXdpZHRoOjEuMDsiLz48dGV4dCBmaWxsPSIjMDAwMDAwIiBmb250LWZhbWlseT0ic2Fucy1zZXJpZiIgZm9udC1zaXplPSIxNCIgbGVuZ3RoQWRqdXN0PSJzcGFjaW5nIiB0ZXh0TGVuZ3RoPSIyNDAiIHg9IjY5OCIgeT0iMjMyMC4xNDA2Ij5TZXRSZWd1bGF0aW9ucyhib29sW10gcmVndWxhdGlvbnMpPC90ZXh0PjxlbGxpcHNlIGN4PSI2ODkiIGN5PSIyMzMwLjg4MjgiIGZpbGw9IiM4NEJFODQiIHJ4PSIzIiByeT0iMyIgc3R5bGU9InN0cm9rZTojMDM4MDQ4O3N0cm9rZS13aWR0aDoxLjA7Ii8+PHRleHQgZmlsbD0iIzAwMDAwMCIgZm9udC1mYW1pbHk9InNhbnMtc2VyaWYiIGZvbnQtc2l6ZT0iMTQiIGxlbmd0aEFkanVzdD0ic3BhY2luZyIgdGV4dExlbmd0aD0iNzkiIHg9IjY5OCIgeT0iMjMzNS4xMjUiPlNldFBhc3NlZCgpPC90ZXh0PjxlbGxpcHNlIGN4PSI2ODkiIGN5PSIyMzQ1Ljg2NzIiIGZpbGw9IiM4NEJFODQiIHJ4PSIzIiByeT0iMyIgc3R5bGU9InN0cm9rZTojMDM4MDQ4O3N0cm9rZS13aWR0aDoxLjA7Ii8+PHRleHQgZmlsbD0iIzAwMDAwMCIgZm9udC1mYW1pbHk9InNhbnMtc2VyaWYiIGZvbnQtc2l6ZT0iMTQiIGxlbmd0aEFkanVzdD0ic3BhY2luZyIgdGV4dExlbmd0aD0iMTIyIiB4PSI2OTgiIHk9IjIzNTAuMTA5NCI+R2V0TmFtZSgpOiBzdHJpbmc8L3RleHQ+PGVsbGlwc2UgY3g9IjY4OSIgY3k9IjIzNjAuODUxNiIgZmlsbD0iIzg0QkU4NCIgcng9IjMiIHJ5PSIzIiBzdHlsZT0ic3Ryb2tlOiMwMzgwNDg7c3Ryb2tlLXdpZHRoOjEuMDsiLz48dGV4dCBmaWxsPSIjMDAwMDAwIiBmb250LWZhbWlseT0ic2Fucy1zZXJpZiIgZm9udC1zaXplPSIxNCIgbGVuZ3RoQWRqdXN0PSJzcGFjaW5nIiB0ZXh0TGVuZ3RoPSIxOTIiIHg9IjY5OCIgeT0iMjM2NS4wOTM4Ij5HZXRBdExlYXN0VHdvRGl2ZXJzKCk6IGJvb2w8L3RleHQ+PGVsbGlwc2UgY3g9IjY4OSIgY3k9IjIzNzUuODM1OSIgZmlsbD0iIzg0QkU4NCIgcng9IjMiIHJ5PSIzIiBzdHlsZT0ic3Ryb2tlOiMwMzgwNDg7c3Ryb2tlLXdpZHRoOjEuMDsiLz48dGV4dCBmaWxsPSIjMDAwMDAwIiBmb250LWZhbWlseT0ic2Fucy1zZXJpZiIgZm9udC1zaXplPSIxNCIgbGVuZ3RoQWRqdXN0PSJzcGFjaW5nIiB0ZXh0TGVuZ3RoPSIxNzAiIHg9IjY5OCIgeT0iMjM4MC4wNzgxIj5HZXRSZWd1bGF0aW9ucygpOiBib29sW108L3RleHQ+PGVsbGlwc2UgY3g9IjY4OSIgY3k9IjIzOTAuODIwMyIgZmlsbD0iIzg0QkU4NCIgcng9IjMiIHJ5PSIzIiBzdHlsZT0ic3Ryb2tlOiMwMzgwNDg7c3Ryb2tlLXdpZHRoOjEuMDsiLz48dGV4dCBmaWxsPSIjMDAwMDAwIiBmb250LWZhbWlseT0ic2Fucy1zZXJpZiIgZm9udC1zaXplPSIxNCIgbGVuZ3RoQWRqdXN0PSJzcGFjaW5nIiB0ZXh0TGVuZ3RoPSIxMjEiIHg9IjY5OCIgeT0iMjM5NS4wNjI1Ij5HZXRQYXNzZWQoKTogYm9vbDwvdGV4dD48ZWxsaXBzZSBjeD0iNjg5IiBjeT0iMjQwNS44MDQ3IiBmaWxsPSIjODRCRTg0IiByeD0iMyIgcnk9IjMiIHN0eWxlPSJzdHJva2U6IzAzODA0ODtzdHJva2Utd2lkdGg6MS4wOyIvPjx0ZXh0IGZpbGw9IiMwMDAwMDAiIGZvbnQtZmFtaWx5PSJzYW5zLXNlcmlmIiBmb250LXNpemU9IjE0IiBsZW5ndGhBZGp1c3Q9InNwYWNpbmciIHRleHRMZW5ndGg9IjEyOCIgeD0iNjk4IiB5PSIyNDEwLjA0NjkiPlRvU3RyaW5nKCk6IHN0cmluZzwvdGV4dD48L2c+PCEtLWNsYXNzIERpdmluZ0luZm8tLT48ZyBpZD0iZWxlbV9EaXZpbmdJbmZvIj48cmVjdCBjb2RlTGluZT0iMTUwIiBmaWxsPSIjRjFGMUYxIiBoZWlnaHQ9IjI4Ny43NSIgaWQ9IkRpdmluZ0luZm8iIHJ4PSIyLjUiIHJ5PSIyLjUiIHN0eWxlPSJzdHJva2U6IzE4MTgxODtzdHJva2Utd2lkdGg6MC41OyIgd2lkdGg9IjI1MiIgeD0iNzkxIiB5PSI2MTYiLz48ZWxsaXBzZSBjeD0iODc3Ljc1IiBjeT0iNjMyIiBmaWxsPSIjQUREMUIyIiByeD0iMTEiIHJ5PSIxMSIgc3R5bGU9InN0cm9rZTojMTgxODE4O3N0cm9rZS13aWR0aDoxLjA7Ii8+PHBhdGggZD0iTTg3NS4zNzUsNjM2LjI1IEw4NzUuMzc1LDYzOCBMODgwLjMxMjUsNjM4IEw4ODAuMzEyNSw2MzYuMjUgTDg3NS4zNzUsNjM2LjI1IFogTTg3Ni4wNjI1LDYzNi45Mzc1IFE4NzYuMDYyNSw2MzYuOTM3NSA4NzYuMDYyNSw2MjcuNzUgTDg3NC4zMTI1LDYyNy43NSBRODc0LjMxMjUsNjI3Ljc1IDg3NC4zMTI1LDYzNi45Mzc1IEw4NzYuMDYyNSw2MzYuOTM3NSBaIE04NzkuNjI1LDYzNi45Mzc1IEw4ODEuMzc1LDYzNi45Mzc1IFE4ODEuMzc1LDYzNi45Mzc1IDg4MS4zNzUsNjM0LjEyNSBMODc5LjYyNSw2MzQuMTI1IFE4NzkuNjI1LDYzNC4xMjUgODc5LjYyNSw2MzYuOTM3NSBaIE04NzkuNjI1LDYyNy43NSBRODc5LjYyNSw2MjcuNzUgODc5LjYyNSw2MzAuNTYyNSBMODgxLjM3NSw2MzAuNTYyNSBRODgxLjM3NSw2MzAuNTYyNSA4ODEuMzc1LDYyNy43NSBMODc5LjYyNSw2MjcuNzUgWiBNODc1LjM3NSw2MjguNDM3NSBMODgwLjMxMjUsNjI4LjQzNzUgTDg4MC4zMTI1LDYyNi42ODc1IEw4NzUuMzc1LDYyNi42ODc1IEw4NzUuMzc1LDYyOC40Mzc1IFogIiBmaWxsPSIjMDAwMDAwIi8+PHRleHQgZmlsbD0iIzAwMDAwMCIgZm9udC1mYW1pbHk9InNhbnMtc2VyaWYiIGZvbnQtc2l6ZT0iMTQiIGxlbmd0aEFkanVzdD0ic3BhY2luZyIgdGV4dExlbmd0aD0iNzAiIHg9Ijg5OC4yNSIgeT0iNjM3Ljc0MjIiPkRpdmluZ0luZm88L3RleHQ+PGxpbmUgc3R5bGU9InN0cm9rZTojMTgxODE4O3N0cm9rZS13aWR0aDowLjU7IiB4MT0iNzkyIiB4Mj0iMTA0MiIgeTE9IjY0OCIgeTI9IjY0OCIvPjxyZWN0IGZpbGw9Im5vbmUiIGhlaWdodD0iNiIgc3R5bGU9InN0cm9rZTojQzgyOTMwO3N0cm9rZS13aWR0aDoxLjA7IiB3aWR0aD0iNiIgeD0iNzk5IiB5PSI2NTcuOTkyMiIvPjx0ZXh0IGZpbGw9IiMwMDAwMDAiIGZvbnQtZmFtaWx5PSJzYW5zLXNlcmlmIiBmb250LXNpemU9IjE0IiBsZW5ndGhBZGp1c3Q9InNwYWNpbmciIHRleHRMZW5ndGg9IjcwIiB4PSI4MTEiIHk9IjY2NS4yMzQ0Ij5pbnQgZGl2ZUlEPC90ZXh0PjxyZWN0IGZpbGw9Im5vbmUiIGhlaWdodD0iNiIgc3R5bGU9InN0cm9rZTojQzgyOTMwO3N0cm9rZS13aWR0aDoxLjA7IiB3aWR0aD0iNiIgeD0iNzk5IiB5PSI2NzIuOTc2NiIvPjx0ZXh0IGZpbGw9IiMwMDAwMDAiIGZvbnQtZmFtaWx5PSJzYW5zLXNlcmlmIiBmb250LXNpemU9IjE0IiBsZW5ndGhBZGp1c3Q9InNwYWNpbmciIHRleHRMZW5ndGg9IjEzMyIgeD0iODExIiB5PSI2ODAuMjE4OCI+VXNlciBkaXZlSW5mb0ZpbGxlcjwvdGV4dD48cmVjdCBmaWxsPSJub25lIiBoZWlnaHQ9IjYiIHN0eWxlPSJzdHJva2U6I0M4MjkzMDtzdHJva2Utd2lkdGg6MS4wOyIgd2lkdGg9IjYiIHg9Ijc5OSIgeT0iNjg3Ljk2MDkiLz48dGV4dCBmaWxsPSIjMDAwMDAwIiBmb250LWZhbWlseT0ic2Fucy1zZXJpZiIgZm9udC1zaXplPSIxNCIgbGVuZ3RoQWRqdXN0PSJzcGFjaW5nIiB0ZXh0TGVuZ3RoPSIxMTkiIHg9IjgxMSIgeT0iNjk1LjIwMzEiPkRhdGVPbmx5IGRpdmVEYXRlPC90ZXh0PjxyZWN0IGZpbGw9Im5vbmUiIGhlaWdodD0iNiIgc3R5bGU9InN0cm9rZTojQzgyOTMwO3N0cm9rZS13aWR0aDoxLjA7IiB3aWR0aD0iNiIgeD0iNzk5IiB5PSI3MDIuOTQ1MyIvPjx0ZXh0IGZpbGw9IiMwMDAwMDAiIGZvbnQtZmFtaWx5PSJzYW5zLXNlcmlmIiBmb250LXNpemU9IjE0IiBsZW5ndGhBZGp1c3Q9InNwYWNpbmciIHRleHRMZW5ndGg9IjE0NyIgeD0iODExIiB5PSI3MTAuMTg3NSI+RGl2aW5nQ2x1YiBkaXZpbmdDbHViPC90ZXh0PjxyZWN0IGZpbGw9Im5vbmUiIGhlaWdodD0iNiIgc3R5bGU9InN0cm9rZTojQzgyOTMwO3N0cm9rZS13aWR0aDoxLjA7IiB3aWR0aD0iNiIgeD0iNzk5IiB5PSI3MTcuOTI5NyIvPjx0ZXh0IGZpbGw9IiMwMDAwMDAiIGZvbnQtZmFtaWx5PSJzYW5zLXNlcmlmIiBmb250LXNpemU9IjE0IiBsZW5ndGhBZGp1c3Q9InNwYWNpbmciIHRleHRMZW5ndGg9IjE0NyIgeD0iODExIiB5PSI3MjUuMTcxOSI+RGl2aW5nU2l0ZSBkaXZpbmdTaXRlPC90ZXh0PjxyZWN0IGZpbGw9Im5vbmUiIGhlaWdodD0iNiIgc3R5bGU9InN0cm9rZTojQzgyOTMwO3N0cm9rZS13aWR0aDoxLjA7IiB3aWR0aD0iNiIgeD0iNzk5IiB5PSI3MzIuOTE0MSIvPjx0ZXh0IGZpbGw9IiMwMDAwMDAiIGZvbnQtZmFtaWx5PSJzYW5zLXNlcmlmIiBmb250LXNpemU9IjE0IiBsZW5ndGhBZGp1c3Q9InNwYWNpbmciIHRleHRMZW5ndGg9IjIwMyIgeD0iODExIiB5PSI3NDAuMTU2MyI+RGl2ZVJlZ3VsYXRpb24gZGl2ZVJlZ3VsYXRpb248L3RleHQ+PHJlY3QgZmlsbD0ibm9uZSIgaGVpZ2h0PSI2IiBzdHlsZT0ic3Ryb2tlOiNDODI5MzA7c3Ryb2tlLXdpZHRoOjEuMDsiIHdpZHRoPSI2IiB4PSI3OTkiIHk9Ijc0Ny44OTg0Ii8+PHRleHQgZmlsbD0iIzAwMDAwMCIgZm9udC1mYW1pbHk9InNhbnMtc2VyaWYiIGZvbnQtc2l6ZT0iMTQiIGxlbmd0aEFkanVzdD0ic3BhY2luZyIgdGV4dExlbmd0aD0iMTc1IiB4PSI4MTEiIHk9Ijc1NS4xNDA2Ij5EaXZlckluc3RydWN0b3IgaGVhZERpdmVyPC90ZXh0PjxyZWN0IGZpbGw9Im5vbmUiIGhlaWdodD0iNiIgc3R5bGU9InN0cm9rZTojQzgyOTMwO3N0cm9rZS13aWR0aDoxLjA7IiB3aWR0aD0iNiIgeD0iNzk5IiB5PSI3NjIuODgyOCIvPjx0ZXh0IGZpbGw9IiMwMDAwMDAiIGZvbnQtZmFtaWx5PSJzYW5zLXNlcmlmIiBmb250LXNpemU9IjE0IiBsZW5ndGhBZGp1c3Q9InNwYWNpbmciIHRleHRMZW5ndGg9Ijk4IiB4PSI4MTEiIHk9Ijc3MC4xMjUiPkRpdmVyW10gZGl2ZXJzPC90ZXh0PjxyZWN0IGZpbGw9Im5vbmUiIGhlaWdodD0iNiIgc3R5bGU9InN0cm9rZTojQzgyOTMwO3N0cm9rZS13aWR0aDoxLjA7IiB3aWR0aD0iNiIgeD0iNzk5IiB5PSI3NzcuODY3MiIvPjx0ZXh0IGZpbGw9IiMwMDAwMDAiIGZvbnQtZmFtaWx5PSJzYW5zLXNlcmlmIiBmb250LXNpemU9IjE0IiBsZW5ndGhBZGp1c3Q9InNwYWNpbmciIHRleHRMZW5ndGg9IjIyNiIgeD0iODExIiB5PSI3ODUuMTA5NCI+RGljdGlvbmFyeSZsdDtJdGVtLCBpbnQmZ3Q7IGl0ZW1zVGFrZW48L3RleHQ+PHJlY3QgZmlsbD0ibm9uZSIgaGVpZ2h0PSI2IiBzdHlsZT0ic3Ryb2tlOiNDODI5MzA7c3Ryb2tlLXdpZHRoOjEuMDsiIHdpZHRoPSI2IiB4PSI3OTkiIHk9Ijc5Mi44NTE2Ii8+PHRleHQgZmlsbD0iIzAwMDAwMCIgZm9udC1mYW1pbHk9InNhbnMtc2VyaWYiIGZvbnQtc2l6ZT0iMTQiIGxlbmd0aEFkanVzdD0ic3BhY2luZyIgdGV4dExlbmd0aD0iMTM1IiB4PSI4MTEiIHk9IjgwMC4wOTM4Ij5UaW1lT25seSB3YXRlckVudGVyPC90ZXh0PjxyZWN0IGZpbGw9Im5vbmUiIGhlaWdodD0iNiIgc3R5bGU9InN0cm9rZTojQzgyOTMwO3N0cm9rZS13aWR0aDoxLjA7IiB3aWR0aD0iNiIgeD0iNzk5IiB5PSI4MDcuODM1OSIvPjx0ZXh0IGZpbGw9IiMwMDAwMDAiIGZvbnQtZmFtaWx5PSJzYW5zLXNlcmlmIiBmb250LXNpemU9IjE0IiBsZW5ndGhBZGp1c3Q9InNwYWNpbmciIHRleHRMZW5ndGg9IjEyOCIgeD0iODExIiB5PSI4MTUuMDc4MSI+VGltZU9ubHkgd2F0ZXJFeGl0PC90ZXh0PjxyZWN0IGZpbGw9Im5vbmUiIGhlaWdodD0iNiIgc3R5bGU9InN0cm9rZTojQzgyOTMwO3N0cm9rZS13aWR0aDoxLjA7IiB3aWR0aD0iNiIgeD0iNzk5IiB5PSI4MjIuODIwMyIvPjx0ZXh0IGZpbGw9IiMwMDAwMDAiIGZvbnQtZmFtaWx5PSJzYW5zLXNlcmlmIiBmb250LXNpemU9IjE0IiBsZW5ndGhBZGp1c3Q9InNwYWNpbmciIHRleHRMZW5ndGg9IjExNCIgeD0iODExIiB5PSI4MzAuMDYyNSI+ZG91YmxlIHdhdGVyVGVtcDwvdGV4dD48cmVjdCBmaWxsPSJub25lIiBoZWlnaHQ9IjYiIHN0eWxlPSJzdHJva2U6I0M4MjkzMDtzdHJva2Utd2lkdGg6MS4wOyIgd2lkdGg9IjYiIHg9Ijc5OSIgeT0iODM3LjgwNDciLz48dGV4dCBmaWxsPSIjMDAwMDAwIiBmb250LWZhbWlseT0ic2Fucy1zZXJpZiIgZm9udC1zaXplPSIxNCIgbGVuZ3RoQWRqdXN0PSJzcGFjaW5nIiB0ZXh0TGVuZ3RoPSIxMTIiIHg9IjgxMSIgeT0iODQ1LjA0NjkiPmRvdWJsZSB0aWRlTGV2ZWw8L3RleHQ+PHJlY3QgZmlsbD0ibm9uZSIgaGVpZ2h0PSI2IiBzdHlsZT0ic3Ryb2tlOiNDODI5MzA7c3Ryb2tlLXdpZHRoOjEuMDsiIHdpZHRoPSI2IiB4PSI3OTkiIHk9Ijg1Mi43ODkxIi8+PHRleHQgZmlsbD0iIzAwMDAwMCIgZm9udC1mYW1pbHk9InNhbnMtc2VyaWYiIGZvbnQtc2l6ZT0iMTQiIGxlbmd0aEFkanVzdD0ic3BhY2luZyIgdGV4dExlbmd0aD0iMTg5IiB4PSI4MTEiIHk9Ijg2MC4wMzEzIj5TaWduYXR1cmVbXSBzaWduYXR1cmVEaXZlcnM8L3RleHQ+PHJlY3QgZmlsbD0ibm9uZSIgaGVpZ2h0PSI2IiBzdHlsZT0ic3Ryb2tlOiNDODI5MzA7c3Ryb2tlLXdpZHRoOjEuMDsiIHdpZHRoPSI2IiB4PSI3OTkiIHk9Ijg2Ny43NzM0Ii8+PHRleHQgZmlsbD0iIzAwMDAwMCIgZm9udC1mYW1pbHk9InNhbnMtc2VyaWYiIGZvbnQtc2l6ZT0iMTQiIGxlbmd0aEFkanVzdD0ic3BhY2luZyIgdGV4dExlbmd0aD0iMTYxIiB4PSI4MTEiIHk9Ijg3NS4wMTU2Ij5TaWduYXR1cmUgc2lnbmF0dXJlQ2x1YjwvdGV4dD48bGluZSBzdHlsZT0ic3Ryb2tlOiMxODE4MTg7c3Ryb2tlLXdpZHRoOjAuNTsiIHgxPSI3OTIiIHgyPSIxMDQyIiB5MT0iODgwLjc2NTYiIHkyPSI4ODAuNzY1NiIvPjxlbGxpcHNlIGN4PSI4MDIiIGN5PSI4OTMuNzU3OCIgZmlsbD0iIzg0QkU4NCIgcng9IjMiIHJ5PSIzIiBzdHlsZT0ic3Ryb2tlOiMwMzgwNDg7c3Ryb2tlLXdpZHRoOjEuMDsiLz48dGV4dCBmaWxsPSIjMDAwMDAwIiBmb250LWZhbWlseT0ic2Fucy1zZXJpZiIgZm9udC1zaXplPSIxNCIgbGVuZ3RoQWRqdXN0PSJzcGFjaW5nIiB0ZXh0TGVuZ3RoPSIxMjgiIHg9IjgxMSIgeT0iODk4Ij5Ub1N0cmluZygpOiBzdHJpbmc8L3RleHQ+PC9nPjwhLS1jbGFzcyBJdGVtLS0+PGcgaWQ9ImVsZW1fSXRlbSI+PHJlY3QgY29kZUxpbmU9IjE2OSIgZmlsbD0iI0YxRjFGMSIgaGVpZ2h0PSIxMjIuOTIxOSIgaWQ9Ikl0ZW0iIHJ4PSIyLjUiIHJ5PSIyLjUiIHN0eWxlPSJzdHJva2U6IzE4MTgxODtzdHJva2Utd2lkdGg6MC41OyIgd2lkdGg9IjE1NCIgeD0iNDA5IiB5PSIxMDkxLjUiLz48ZWxsaXBzZSBjeD0iNDY3LjI1IiBjeT0iMTEwNy41IiBmaWxsPSIjQUREMUIyIiByeD0iMTEiIHJ5PSIxMSIgc3R5bGU9InN0cm9rZTojMTgxODE4O3N0cm9rZS13aWR0aDoxLjA7Ii8+PHBhdGggZD0iTTQ2NC44NzUsMTExMS43NSBMNDY0Ljg3NSwxMTEzLjUgTDQ2OS44MTI1LDExMTMuNSBMNDY5LjgxMjUsMTExMS43NSBMNDY0Ljg3NSwxMTExLjc1IFogTTQ2NS41NjI1LDExMTIuNDM3NSBRNDY1LjU2MjUsMTExMi40Mzc1IDQ2NS41NjI1LDExMDMuMjUgTDQ2My44MTI1LDExMDMuMjUgUTQ2My44MTI1LDExMDMuMjUgNDYzLjgxMjUsMTExMi40Mzc1IEw0NjUuNTYyNSwxMTEyLjQzNzUgWiBNNDY5LjEyNSwxMTEyLjQzNzUgTDQ3MC44NzUsMTExMi40Mzc1IFE0NzAuODc1LDExMTIuNDM3NSA0NzAuODc1LDExMDkuNjI1IEw0NjkuMTI1LDExMDkuNjI1IFE0NjkuMTI1LDExMDkuNjI1IDQ2OS4xMjUsMTExMi40Mzc1IFogTTQ2OS4xMjUsMTEwMy4yNSBRNDY5LjEyNSwxMTAzLjI1IDQ2OS4xMjUsMTEwNi4wNjI1IEw0NzAuODc1LDExMDYuMDYyNSBRNDcwLjg3NSwxMTA2LjA2MjUgNDcwLjg3NSwxMTAzLjI1IEw0NjkuMTI1LDExMDMuMjUgWiBNNDY0Ljg3NSwxMTAzLjkzNzUgTDQ2OS44MTI1LDExMDMuOTM3NSBMNDY5LjgxMjUsMTEwMi4xODc1IEw0NjQuODc1LDExMDIuMTg3NSBMNDY0Ljg3NSwxMTAzLjkzNzUgWiAiIGZpbGw9IiMwMDAwMDAiLz48dGV4dCBmaWxsPSIjMDAwMDAwIiBmb250LWZhbWlseT0ic2Fucy1zZXJpZiIgZm9udC1zaXplPSIxNCIgbGVuZ3RoQWRqdXN0PSJzcGFjaW5nIiB0ZXh0TGVuZ3RoPSIyOSIgeD0iNDg3Ljc1IiB5PSIxMTEzLjI0MjIiPkl0ZW08L3RleHQ+PGxpbmUgc3R5bGU9InN0cm9rZTojMTgxODE4O3N0cm9rZS13aWR0aDowLjU7IiB4MT0iNDEwIiB4Mj0iNTYyIiB5MT0iMTEyMy41IiB5Mj0iMTEyMy41Ii8+PHJlY3QgZmlsbD0ibm9uZSIgaGVpZ2h0PSI2IiBzdHlsZT0ic3Ryb2tlOiNDODI5MzA7c3Ryb2tlLXdpZHRoOjEuMDsiIHdpZHRoPSI2IiB4PSI0MTciIHk9IjExMzMuNDkyMiIvPjx0ZXh0IGZpbGw9IiMwMDAwMDAiIGZvbnQtZmFtaWx5PSJzYW5zLXNlcmlmIiBmb250LXNpemU9IjE0IiBsZW5ndGhBZGp1c3Q9InNwYWNpbmciIHRleHRMZW5ndGg9IjYzIiB4PSI0MjkiIHk9IjExNDAuNzM0NCI+c3RyaW5nIGlkPC90ZXh0PjxyZWN0IGZpbGw9Im5vbmUiIGhlaWdodD0iNiIgc3R5bGU9InN0cm9rZTojQzgyOTMwO3N0cm9rZS13aWR0aDoxLjA7IiB3aWR0aD0iNiIgeD0iNDE3IiB5PSIxMTQ4LjQ3NjYiLz48dGV4dCBmaWxsPSIjMDAwMDAwIiBmb250LWZhbWlseT0ic2Fucy1zZXJpZiIgZm9udC1zaXplPSIxNCIgbGVuZ3RoQWRqdXN0PSJzcGFjaW5nIiB0ZXh0TGVuZ3RoPSI3OCIgeD0iNDI5IiB5PSIxMTU1LjcxODgiPnN0cmluZyBuYW1lPC90ZXh0PjxyZWN0IGZpbGw9Im5vbmUiIGhlaWdodD0iNiIgc3R5bGU9InN0cm9rZTojQzgyOTMwO3N0cm9rZS13aWR0aDoxLjA7IiB3aWR0aD0iNiIgeD0iNDE3IiB5PSIxMTYzLjQ2MDkiLz48dGV4dCBmaWxsPSIjMDAwMDAwIiBmb250LWZhbWlseT0ic2Fucy1zZXJpZiIgZm9udC1zaXplPSIxNCIgbGVuZ3RoQWRqdXN0PSJzcGFjaW5nIiB0ZXh0TGVuZ3RoPSIxMjYiIHg9IjQyOSIgeT0iMTE3MC43MDMxIj5zdHJpbmcgZGVzY3JpcHRpb248L3RleHQ+PHJlY3QgZmlsbD0ibm9uZSIgaGVpZ2h0PSI2IiBzdHlsZT0ic3Ryb2tlOiNDODI5MzA7c3Ryb2tlLXdpZHRoOjEuMDsiIHdpZHRoPSI2IiB4PSI0MTciIHk9IjExNzguNDQ1MyIvPjx0ZXh0IGZpbGw9IiMwMDAwMDAiIGZvbnQtZmFtaWx5PSJzYW5zLXNlcmlmIiBmb250LXNpemU9IjE0IiBsZW5ndGhBZGp1c3Q9InNwYWNpbmciIHRleHRMZW5ndGg9Ijg0IiB4PSI0MjkiIHk9IjExODUuNjg3NSI+aW50IHF1YW50aXR5PC90ZXh0PjxsaW5lIHN0eWxlPSJzdHJva2U6IzE4MTgxODtzdHJva2Utd2lkdGg6MC41OyIgeDE9IjQxMCIgeDI9IjU2MiIgeTE9IjExOTEuNDM3NSIgeTI9IjExOTEuNDM3NSIvPjxlbGxpcHNlIGN4PSI0MjAiIGN5PSIxMjA0LjQyOTciIGZpbGw9IiM4NEJFODQiIHJ4PSIzIiByeT0iMyIgc3R5bGU9InN0cm9rZTojMDM4MDQ4O3N0cm9rZS13aWR0aDoxLjA7Ii8+PHRleHQgZmlsbD0iIzAwMDAwMCIgZm9udC1mYW1pbHk9InNhbnMtc2VyaWYiIGZvbnQtc2l6ZT0iMTQiIGxlbmd0aEFkanVzdD0ic3BhY2luZyIgdGV4dExlbmd0aD0iMTI4IiB4PSI0MjkiIHk9IjEyMDguNjcxOSI+VG9TdHJpbmcoKTogc3RyaW5nPC90ZXh0PjwvZz48IS0tY2xhc3MgU2lnbmF0dXJlLS0+PGcgaWQ9ImVsZW1fU2lnbmF0dXJlIj48cmVjdCBjb2RlTGluZT0iMTc3IiBmaWxsPSIjRjFGMUYxIiBoZWlnaHQ9Ijc3Ljk2ODgiIGlkPSJTaWduYXR1cmUiIHJ4PSIyLjUiIHJ5PSIyLjUiIHN0eWxlPSJzdHJva2U6IzE4MTgxODtzdHJva2Utd2lkdGg6MC41OyIgd2lkdGg9IjE1NCIgeD0iMTA0MSIgeT0iMTExNCIvPjxlbGxpcHNlIGN4PSIxMDgyLjU1IiBjeT0iMTEzMCIgZmlsbD0iI0FERDFCMiIgcng9IjExIiByeT0iMTEiIHN0eWxlPSJzdHJva2U6IzE4MTgxODtzdHJva2Utd2lkdGg6MS4wOyIvPjxwYXRoIGQ9Ik0xMDgwLjE3NSwxMTM0LjI1IEwxMDgwLjE3NSwxMTM2IEwxMDg1LjExMjUsMTEzNiBMMTA4NS4xMTI1LDExMzQuMjUgTDEwODAuMTc1LDExMzQuMjUgWiBNMTA4MC44NjI1LDExMzQuOTM3NSBRMTA4MC44NjI1LDExMzQuOTM3NSAxMDgwLjg2MjUsMTEyNS43NSBMMTA3OS4xMTI1LDExMjUuNzUgUTEwNzkuMTEyNSwxMTI1Ljc1IDEwNzkuMTEyNSwxMTM0LjkzNzUgTDEwODAuODYyNSwxMTM0LjkzNzUgWiBNMTA4NC40MjUsMTEzNC45Mzc1IEwxMDg2LjE3NSwxMTM0LjkzNzUgUTEwODYuMTc1LDExMzQuOTM3NSAxMDg2LjE3NSwxMTMyLjEyNSBMMTA4NC40MjUsMTEzMi4xMjUgUTEwODQuNDI1LDExMzIuMTI1IDEwODQuNDI1LDExMzQuOTM3NSBaIE0xMDg0LjQyNSwxMTI1Ljc1IFExMDg0LjQyNSwxMTI1Ljc1IDEwODQuNDI1LDExMjguNTYyNSBMMTA4Ni4xNzUsMTEyOC41NjI1IFExMDg2LjE3NSwxMTI4LjU2MjUgMTA4Ni4xNzUsMTEyNS43NSBMMTA4NC40MjUsMTEyNS43NSBaIE0xMDgwLjE3NSwxMTI2LjQzNzUgTDEwODUuMTEyNSwxMTI2LjQzNzUgTDEwODUuMTEyNSwxMTI0LjY4NzUgTDEwODAuMTc1LDExMjQuNjg3NSBMMTA4MC4xNzUsMTEyNi40Mzc1IFogIiBmaWxsPSIjMDAwMDAwIi8+PHRleHQgZmlsbD0iIzAwMDAwMCIgZm9udC1mYW1pbHk9InNhbnMtc2VyaWYiIGZvbnQtc2l6ZT0iMTQiIGxlbmd0aEFkanVzdD0ic3BhY2luZyIgdGV4dExlbmd0aD0iNjMiIHg9IjExMDIuNDUiIHk9IjExMzUuNzQyMiI+U2lnbmF0dXJlPC90ZXh0PjxsaW5lIHN0eWxlPSJzdHJva2U6IzE4MTgxODtzdHJva2Utd2lkdGg6MC41OyIgeDE9IjEwNDIiIHgyPSIxMTk0IiB5MT0iMTE0NiIgeTI9IjExNDYiLz48cmVjdCBmaWxsPSJub25lIiBoZWlnaHQ9IjYiIHN0eWxlPSJzdHJva2U6I0M4MjkzMDtzdHJva2Utd2lkdGg6MS4wOyIgd2lkdGg9IjYiIHg9IjEwNDkiIHk9IjExNTUuOTkyMiIvPjx0ZXh0IGZpbGw9IiMwMDAwMDAiIGZvbnQtZmFtaWx5PSJzYW5zLXNlcmlmIiBmb250LXNpemU9IjE0IiBsZW5ndGhBZGp1c3Q9InNwYWNpbmciIHRleHRMZW5ndGg9Ijk4IiB4PSIxMDYxIiB5PSIxMTYzLjIzNDQiPnN0cmluZyBkZXRhaWxzPC90ZXh0PjxsaW5lIHN0eWxlPSJzdHJva2U6IzE4MTgxODtzdHJva2Utd2lkdGg6MC41OyIgeDE9IjEwNDIiIHgyPSIxMTk0IiB5MT0iMTE2OC45ODQ0IiB5Mj0iMTE2OC45ODQ0Ii8+PGVsbGlwc2UgY3g9IjEwNTIiIGN5PSIxMTgxLjk3NjYiIGZpbGw9IiM4NEJFODQiIHJ4PSIzIiByeT0iMyIgc3R5bGU9InN0cm9rZTojMDM4MDQ4O3N0cm9rZS13aWR0aDoxLjA7Ii8+PHRleHQgZmlsbD0iIzAwMDAwMCIgZm9udC1mYW1pbHk9InNhbnMtc2VyaWYiIGZvbnQtc2l6ZT0iMTQiIGxlbmd0aEFkanVzdD0ic3BhY2luZyIgdGV4dExlbmd0aD0iMTI4IiB4PSIxMDYxIiB5PSIxMTg2LjIxODgiPlRvU3RyaW5nKCk6IHN0cmluZzwvdGV4dD48L2c+PCEtLWNsYXNzIEFkZHJlc3MtLT48ZyBpZD0iZWxlbV9BZGRyZXNzIj48cmVjdCBjb2RlTGluZT0iMTgyIiBmaWxsPSIjRjFGMUYxIiBoZWlnaHQ9IjE1Mi44OTA2IiBpZD0iQWRkcmVzcyIgcng9IjIuNSIgcnk9IjIuNSIgc3R5bGU9InN0cm9rZTojMTgxODE4O3N0cm9rZS13aWR0aDowLjU7IiB3aWR0aD0iMTU0IiB4PSI2NTQiIHk9IjE1MjIiLz48ZWxsaXBzZSBjeD0iNzAyLjI1IiBjeT0iMTUzOCIgZmlsbD0iI0FERDFCMiIgcng9IjExIiByeT0iMTEiIHN0eWxlPSJzdHJva2U6IzE4MTgxODtzdHJva2Utd2lkdGg6MS4wOyIvPjxwYXRoIGQ9Ik02OTkuODc1LDE1NDIuMjUgTDY5OS44NzUsMTU0NCBMNzA0LjgxMjUsMTU0NCBMNzA0LjgxMjUsMTU0Mi4yNSBMNjk5Ljg3NSwxNTQyLjI1IFogTTcwMC41NjI1LDE1NDIuOTM3NSBRNzAwLjU2MjUsMTU0Mi45Mzc1IDcwMC41NjI1LDE1MzMuNzUgTDY5OC44MTI1LDE1MzMuNzUgUTY5OC44MTI1LDE1MzMuNzUgNjk4LjgxMjUsMTU0Mi45Mzc1IEw3MDAuNTYyNSwxNTQyLjkzNzUgWiBNNzA0LjEyNSwxNTQyLjkzNzUgTDcwNS44NzUsMTU0Mi45Mzc1IFE3MDUuODc1LDE1NDIuOTM3NSA3MDUuODc1LDE1NDAuMTI1IEw3MDQuMTI1LDE1NDAuMTI1IFE3MDQuMTI1LDE1NDAuMTI1IDcwNC4xMjUsMTU0Mi45Mzc1IFogTTcwNC4xMjUsMTUzMy43NSBRNzA0LjEyNSwxNTMzLjc1IDcwNC4xMjUsMTUzNi41NjI1IEw3MDUuODc1LDE1MzYuNTYyNSBRNzA1Ljg3NSwxNTM2LjU2MjUgNzA1Ljg3NSwxNTMzLjc1IEw3MDQuMTI1LDE1MzMuNzUgWiBNNjk5Ljg3NSwxNTM0LjQzNzUgTDcwNC44MTI1LDE1MzQuNDM3NSBMNzA0LjgxMjUsMTUzMi42ODc1IEw2OTkuODc1LDE1MzIuNjg3NSBMNjk5Ljg3NSwxNTM0LjQzNzUgWiAiIGZpbGw9IiMwMDAwMDAiLz48dGV4dCBmaWxsPSIjMDAwMDAwIiBmb250LWZhbWlseT0ic2Fucy1zZXJpZiIgZm9udC1zaXplPSIxNCIgbGVuZ3RoQWRqdXN0PSJzcGFjaW5nIiB0ZXh0TGVuZ3RoPSI0OSIgeD0iNzIyLjc1IiB5PSIxNTQzLjc0MjIiPkFkZHJlc3M8L3RleHQ+PGxpbmUgc3R5bGU9InN0cm9rZTojMTgxODE4O3N0cm9rZS13aWR0aDowLjU7IiB4MT0iNjU1IiB4Mj0iODA3IiB5MT0iMTU1NCIgeTI9IjE1NTQiLz48cmVjdCBmaWxsPSJub25lIiBoZWlnaHQ9IjYiIHN0eWxlPSJzdHJva2U6I0M4MjkzMDtzdHJva2Utd2lkdGg6MS4wOyIgd2lkdGg9IjYiIHg9IjY2MiIgeT0iMTU2My45OTIyIi8+PHRleHQgZmlsbD0iIzAwMDAwMCIgZm9udC1mYW1pbHk9InNhbnMtc2VyaWYiIGZvbnQtc2l6ZT0iMTQiIGxlbmd0aEFkanVzdD0ic3BhY2luZyIgdGV4dExlbmd0aD0iOTEiIHg9IjY3NCIgeT0iMTU3MS4yMzQ0Ij5zdHJpbmcgc3RyZWV0PC90ZXh0PjxyZWN0IGZpbGw9Im5vbmUiIGhlaWdodD0iNiIgc3R5bGU9InN0cm9rZTojQzgyOTMwO3N0cm9rZS13aWR0aDoxLjA7IiB3aWR0aD0iNiIgeD0iNjYyIiB5PSIxNTc4Ljk3NjYiLz48dGV4dCBmaWxsPSIjMDAwMDAwIiBmb250LWZhbWlseT0ic2Fucy1zZXJpZiIgZm9udC1zaXplPSIxNCIgbGVuZ3RoQWRqdXN0PSJzcGFjaW5nIiB0ZXh0TGVuZ3RoPSI5MiIgeD0iNjc0IiB5PSIxNTg2LjIxODgiPnN0cmluZyBudW1iZXI8L3RleHQ+PHJlY3QgZmlsbD0ibm9uZSIgaGVpZ2h0PSI2IiBzdHlsZT0ic3Ryb2tlOiNDODI5MzA7c3Ryb2tlLXdpZHRoOjEuMDsiIHdpZHRoPSI2IiB4PSI2NjIiIHk9IjE1OTMuOTYwOSIvPjx0ZXh0IGZpbGw9IiMwMDAwMDAiIGZvbnQtZmFtaWx5PSJzYW5zLXNlcmlmIiBmb250LXNpemU9IjE0IiBsZW5ndGhBZGp1c3Q9InNwYWNpbmciIHRleHRMZW5ndGg9Ijc3IiB4PSI2NzQiIHk9IjE2MDEuMjAzMSI+c3RyaW5nIGNpdHk8L3RleHQ+PHJlY3QgZmlsbD0ibm9uZSIgaGVpZ2h0PSI2IiBzdHlsZT0ic3Ryb2tlOiNDODI5MzA7c3Ryb2tlLXdpZHRoOjEuMDsiIHdpZHRoPSI2IiB4PSI2NjIiIHk9IjE2MDguOTQ1MyIvPjx0ZXh0IGZpbGw9IiMwMDAwMDAiIGZvbnQtZmFtaWx5PSJzYW5zLXNlcmlmIiBmb250LXNpemU9IjE0IiBsZW5ndGhBZGp1c3Q9InNwYWNpbmciIHRleHRMZW5ndGg9Ijg0IiB4PSI2NzQiIHk9IjE2MTYuMTg3NSI+c3RyaW5nIHN0YXRlPC90ZXh0PjxyZWN0IGZpbGw9Im5vbmUiIGhlaWdodD0iNiIgc3R5bGU9InN0cm9rZTojQzgyOTMwO3N0cm9rZS13aWR0aDoxLjA7IiB3aWR0aD0iNiIgeD0iNjYyIiB5PSIxNjIzLjkyOTciLz48dGV4dCBmaWxsPSIjMDAwMDAwIiBmb250LWZhbWlseT0ic2Fucy1zZXJpZiIgZm9udC1zaXplPSIxNCIgbGVuZ3RoQWRqdXN0PSJzcGFjaW5nIiB0ZXh0TGVuZ3RoPSI3MCIgeD0iNjc0IiB5PSIxNjMxLjE3MTkiPnN0cmluZyB6aXA8L3RleHQ+PHJlY3QgZmlsbD0ibm9uZSIgaGVpZ2h0PSI2IiBzdHlsZT0ic3Ryb2tlOiNDODI5MzA7c3Ryb2tlLXdpZHRoOjEuMDsiIHdpZHRoPSI2IiB4PSI2NjIiIHk9IjE2MzguOTE0MSIvPjx0ZXh0IGZpbGw9IiMwMDAwMDAiIGZvbnQtZmFtaWx5PSJzYW5zLXNlcmlmIiBmb250LXNpemU9IjE0IiBsZW5ndGhBZGp1c3Q9InNwYWNpbmciIHRleHRMZW5ndGg9IjEwNSIgeD0iNjc0IiB5PSIxNjQ2LjE1NjMiPkNvdW50cnkgY291bnRyeTwvdGV4dD48bGluZSBzdHlsZT0ic3Ryb2tlOiMxODE4MTg7c3Ryb2tlLXdpZHRoOjAuNTsiIHgxPSI2NTUiIHgyPSI4MDciIHkxPSIxNjUxLjkwNjMiIHkyPSIxNjUxLjkwNjMiLz48ZWxsaXBzZSBjeD0iNjY1IiBjeT0iMTY2NC44OTg0IiBmaWxsPSIjODRCRTg0IiByeD0iMyIgcnk9IjMiIHN0eWxlPSJzdHJva2U6IzAzODA0ODtzdHJva2Utd2lkdGg6MS4wOyIvPjx0ZXh0IGZpbGw9IiMwMDAwMDAiIGZvbnQtZmFtaWx5PSJzYW5zLXNlcmlmIiBmb250LXNpemU9IjE0IiBsZW5ndGhBZGp1c3Q9InNwYWNpbmciIHRleHRMZW5ndGg9IjEyOCIgeD0iNjc0IiB5PSIxNjY5LjE0MDYiPlRvU3RyaW5nKCk6IHN0cmluZzwvdGV4dD48L2c+PCEtLWNsYXNzIENvdW50cnktLT48ZyBpZD0iZWxlbV9Db3VudHJ5Ij48cmVjdCBjb2RlTGluZT0iMTkyIiBmaWxsPSIjRjFGMUYxIiBoZWlnaHQ9IjEwNy45Mzc1IiBpZD0iQ291bnRyeSIgcng9IjIuNSIgcnk9IjIuNSIgc3R5bGU9InN0cm9rZTojMTgxODE4O3N0cm9rZS13aWR0aDowLjU7IiB3aWR0aD0iMjAxIiB4PSI2NDYuNSIgeT0iMTkzMCIvPjxlbGxpcHNlIGN4PSI3MTguMjUiIGN5PSIxOTQ2IiBmaWxsPSIjQUREMUIyIiByeD0iMTEiIHJ5PSIxMSIgc3R5bGU9InN0cm9rZTojMTgxODE4O3N0cm9rZS13aWR0aDoxLjA7Ii8+PHBhdGggZD0iTTcxNS44NzUsMTk1MC4yNSBMNzE1Ljg3NSwxOTUyIEw3MjAuODEyNSwxOTUyIEw3MjAuODEyNSwxOTUwLjI1IEw3MTUuODc1LDE5NTAuMjUgWiBNNzE2LjU2MjUsMTk1MC45Mzc1IFE3MTYuNTYyNSwxOTUwLjkzNzUgNzE2LjU2MjUsMTk0MS43NSBMNzE0LjgxMjUsMTk0MS43NSBRNzE0LjgxMjUsMTk0MS43NSA3MTQuODEyNSwxOTUwLjkzNzUgTDcxNi41NjI1LDE5NTAuOTM3NSBaIE03MjAuMTI1LDE5NTAuOTM3NSBMNzIxLjg3NSwxOTUwLjkzNzUgUTcyMS44NzUsMTk1MC45Mzc1IDcyMS44NzUsMTk0OC4xMjUgTDcyMC4xMjUsMTk0OC4xMjUgUTcyMC4xMjUsMTk0OC4xMjUgNzIwLjEyNSwxOTUwLjkzNzUgWiBNNzIwLjEyNSwxOTQxLjc1IFE3MjAuMTI1LDE5NDEuNzUgNzIwLjEyNSwxOTQ0LjU2MjUgTDcyMS44NzUsMTk0NC41NjI1IFE3MjEuODc1LDE5NDQuNTYyNSA3MjEuODc1LDE5NDEuNzUgTDcyMC4xMjUsMTk0MS43NSBaIE03MTUuODc1LDE5NDIuNDM3NSBMNzIwLjgxMjUsMTk0Mi40Mzc1IEw3MjAuODEyNSwxOTQwLjY4NzUgTDcxNS44NzUsMTk0MC42ODc1IEw3MTUuODc1LDE5NDIuNDM3NSBaICIgZmlsbD0iIzAwMDAwMCIvPjx0ZXh0IGZpbGw9IiMwMDAwMDAiIGZvbnQtZmFtaWx5PSJzYW5zLXNlcmlmIiBmb250LXNpemU9IjE0IiBsZW5ndGhBZGp1c3Q9InNwYWNpbmciIHRleHRMZW5ndGg9IjQ5IiB4PSI3MzguNzUiIHk9IjE5NTEuNzQyMiI+Q291bnRyeTwvdGV4dD48bGluZSBzdHlsZT0ic3Ryb2tlOiMxODE4MTg7c3Ryb2tlLXdpZHRoOjAuNTsiIHgxPSI2NDcuNSIgeDI9Ijg0Ni41IiB5MT0iMTk2MiIgeTI9IjE5NjIiLz48cmVjdCBmaWxsPSJub25lIiBoZWlnaHQ9IjYiIHN0eWxlPSJzdHJva2U6I0M4MjkzMDtzdHJva2Utd2lkdGg6MS4wOyIgd2lkdGg9IjYiIHg9IjY1NC41IiB5PSIxOTcxLjk5MjIiLz48dGV4dCBmaWxsPSIjMDAwMDAwIiBmb250LWZhbWlseT0ic2Fucy1zZXJpZiIgZm9udC1zaXplPSIxNCIgbGVuZ3RoQWRqdXN0PSJzcGFjaW5nIiB0ZXh0TGVuZ3RoPSI3OCIgeD0iNjY2LjUiIHk9IjE5NzkuMjM0NCI+c3RyaW5nIG5hbWU8L3RleHQ+PHJlY3QgZmlsbD0ibm9uZSIgaGVpZ2h0PSI2IiBzdHlsZT0ic3Ryb2tlOiNDODI5MzA7c3Ryb2tlLXdpZHRoOjEuMDsiIHdpZHRoPSI2IiB4PSI2NTQuNSIgeT0iMTk4Ni45NzY2Ii8+PHRleHQgZmlsbD0iIzAwMDAwMCIgZm9udC1mYW1pbHk9InNhbnMtc2VyaWYiIGZvbnQtc2l6ZT0iMTQiIGxlbmd0aEFkanVzdD0ic3BhY2luZyIgdGV4dExlbmd0aD0iMTc1IiB4PSI2NjYuNSIgeT0iMTk5NC4yMTg4Ij5EaXZlUmVndWxhdGlvbiByZWd1bGF0aW9uPC90ZXh0PjxyZWN0IGZpbGw9Im5vbmUiIGhlaWdodD0iNiIgc3R5bGU9InN0cm9rZTojQzgyOTMwO3N0cm9rZS13aWR0aDoxLjA7IiB3aWR0aD0iNiIgeD0iNjU0LjUiIHk9IjIwMDEuOTYwOSIvPjx0ZXh0IGZpbGw9IiMwMDAwMDAiIGZvbnQtZmFtaWx5PSJzYW5zLXNlcmlmIiBmb250LXNpemU9IjE0IiBsZW5ndGhBZGp1c3Q9InNwYWNpbmciIHRleHRMZW5ndGg9IjEyNiIgeD0iNjY2LjUiIHk9IjIwMDkuMjAzMSI+c3RyaW5nW10gbGFuZ3VhZ2VzPC90ZXh0PjxsaW5lIHN0eWxlPSJzdHJva2U6IzE4MTgxODtzdHJva2Utd2lkdGg6MC41OyIgeDE9IjY0Ny41IiB4Mj0iODQ2LjUiIHkxPSIyMDE0Ljk1MzEiIHkyPSIyMDE0Ljk1MzEiLz48ZWxsaXBzZSBjeD0iNjU3LjUiIGN5PSIyMDI3Ljk0NTMiIGZpbGw9IiM4NEJFODQiIHJ4PSIzIiByeT0iMyIgc3R5bGU9InN0cm9rZTojMDM4MDQ4O3N0cm9rZS13aWR0aDoxLjA7Ii8+PHRleHQgZmlsbD0iIzAwMDAwMCIgZm9udC1mYW1pbHk9InNhbnMtc2VyaWYiIGZvbnQtc2l6ZT0iMTQiIGxlbmd0aEFkanVzdD0ic3BhY2luZyIgdGV4dExlbmd0aD0iMTI4IiB4PSI2NjYuNSIgeT0iMjAzMi4xODc1Ij5Ub1N0cmluZygpOiBzdHJpbmc8L3RleHQ+PC9nPjwhLS1saW5rIERpdmVySW5zdHJ1Y3RvciB0byBEaXZlci0tPjxnIGlkPSJsaW5rX0RpdmVySW5zdHJ1Y3Rvcl9EaXZlciI+PHBhdGggY29kZUxpbmU9Ijc2IiBkPSJNMTE5NS4xNiw1OC42MSBDMTM1Ny42LDg3Ljg5IDE3MjAsMTgwLjcgMTcyMCw0MjYgQzE3MjAsNDI2IDE3MjAsNDI2IDE3MjAsNzYxIEMxNzIwLDEwMjMuNDggMTcyMy4wMiwxMTAzLjIzIDE2MTQsMTM0MiBDMTYwMi45LDEzNjYuMzEgMTU5OC45NTgxLDEzNzUuMzQyMSAxNTgzLjYwODEsMTM5OC4zMjIxICIgZmlsbD0ibm9uZSIgaWQ9IkRpdmVySW5zdHJ1Y3Rvci10by1EaXZlciIgc3R5bGU9InN0cm9rZTojMTgxODE4O3N0cm9rZS13aWR0aDoxLjA7Ii8+PHBvbHlnb24gZmlsbD0ibm9uZSIgcG9pbnRzPSIxNTczLjYxLDE0MTMuMjksMTU4OC41OTc0LDE0MDEuNjU0OCwxNTc4LjYxODgsMTM5NC45ODk0LDE1NzMuNjEsMTQxMy4yOSIgc3R5bGU9InN0cm9rZTojMTgxODE4O3N0cm9rZS13aWR0aDoxLjA7Ii8+PC9nPjwhLS1saW5rIFVzZXIgdG8gRGl2ZXItLT48ZyBpZD0ibGlua19Vc2VyX0RpdmVyIj48cGF0aCBjb2RlTGluZT0iMTk5IiBkPSJNMTQxMS45OCwxMjY3LjA2IEMxNDExLjYxLDEzMDguMTIgMTQxMS4yMzQ2LDEzNDkuNzkwMiAxNDEwLjgxNDYsMTM5NS45MzAyICIgZmlsbD0ibm9uZSIgaWQ9IlVzZXItdG8tRGl2ZXIiIHN0eWxlPSJzdHJva2U6IzE4MTgxODtzdHJva2Utd2lkdGg6MS4wOyIvPjxwb2x5Z29uIGZpbGw9IiMxODE4MTgiIHBvaW50cz0iMTQxMC43NiwxNDAxLjkzLDE0MTQuODQxOCwxMzkyLjk2NjgsMTQxMC44MDU1LDEzOTYuOTMwMiwxNDA2Ljg0MjEsMTM5Mi44OTQsMTQxMC43NiwxNDAxLjkzIiBzdHlsZT0ic3Ryb2tlOiMxODE4MTg7c3Ryb2tlLXdpZHRoOjEuMDsiLz48L2c+PCEtLWxpbmsgRGl2ZXJJbnN0cnVjdG9yIHRvIERpdmVSYW5rR2l2ZW4tLT48ZyBpZD0ibGlua19EaXZlckluc3RydWN0b3JfRGl2ZVJhbmtHaXZlbiI+PHBhdGggY29kZUxpbmU9IjIwMCIgZD0iTTEwODMuNSw4NS4wOCBDMTA2Ni44OCwxMDMuNDMgMTA1MC44Mzg0LDEyMS4xMzM1IDEwMzMuMzk4NCwxNDAuMzgzNSAiIGZpbGw9Im5vbmUiIGlkPSJEaXZlckluc3RydWN0b3ItdG8tRGl2ZVJhbmtHaXZlbiIgc3R5bGU9InN0cm9rZTojMTgxODE4O3N0cm9rZS13aWR0aDoxLjA7Ii8+PHBvbHlnb24gZmlsbD0iIzE4MTgxOCIgcG9pbnRzPSIxMDI5LjM3LDE0NC44MywxMDM4LjM3NywxNDAuODQ1OCwxMDMyLjcyNywxNDEuMTI0NiwxMDMyLjQ0ODMsMTM1LjQ3NDYsMTAyOS4zNywxNDQuODMiIHN0eWxlPSJzdHJva2U6IzE4MTgxODtzdHJva2Utd2lkdGg6MS4wOyIvPjwvZz48IS0tbGluayBEaXZlUmFua0dpdmVuIHRvIERpdmVSYW5rLS0+PGcgaWQ9ImxpbmtfRGl2ZVJhbmtHaXZlbl9EaXZlUmFuayI+PHBhdGggY29kZUxpbmU9IjIwMSIgZD0iTTk4OCwyMzguMDggQzk4OCwyNzQuMzEgOTg4LDMxOS4zMyA5ODgsMzU5LjA3ICIgZmlsbD0ibm9uZSIgaWQ9IkRpdmVSYW5rR2l2ZW4tdG8tRGl2ZVJhbmsiIHN0eWxlPSJzdHJva2U6IzE4MTgxODtzdHJva2Utd2lkdGg6MS4wOyIvPjxwb2x5Z29uIGZpbGw9IiMxODE4MTgiIHBvaW50cz0iOTg4LDM2NS4wNyw5OTIsMzU2LjA3LDk4OCwzNjAuMDcsOTg0LDM1Ni4wNyw5ODgsMzY1LjA3IiBzdHlsZT0ic3Ryb2tlOiMxODE4MTg7c3Ryb2tlLXdpZHRoOjEuMDsiLz48L2c+PCEtLWxpbmsgRGl2ZVJhbmtHaXZlbiB0byBEaXZpbmdDbHViLS0+PGcgaWQ9ImxpbmtfRGl2ZVJhbmtHaXZlbl9EaXZpbmdDbHViIj48cGF0aCBjb2RlTGluZT0iMjAyIiBkPSJNOTM3Ljg0LDIzOC4wOCBDOTE4LjYzLDI1NS41MyA5MDAuMDgwNSwyNzIuMzc0OSA4NzYuNTMwNSwyOTMuNzc0OSAiIGZpbGw9Im5vbmUiIGlkPSJEaXZlUmFua0dpdmVuLXRvLURpdmluZ0NsdWIiIHN0eWxlPSJzdHJva2U6IzE4MTgxODtzdHJva2Utd2lkdGg6MS4wOyIvPjxwb2x5Z29uIGZpbGw9IiMxODE4MTgiIHBvaW50cz0iODcyLjA5LDI5Ny44MSw4ODEuNDQwOCwyOTQuNzE3Nyw4NzUuNzkwNCwyOTQuNDQ3NCw4NzYuMDYwNywyODguNzk3LDg3Mi4wOSwyOTcuODEiIHN0eWxlPSJzdHJva2U6IzE4MTgxODtzdHJva2Utd2lkdGg6MS4wOyIvPjwvZz48IS0tbGluayBEaXZpbmdDbHViIHRvIFBlcnNvbi0tPjxnIGlkPSJsaW5rX0RpdmluZ0NsdWJfUGVyc29uIj48cGF0aCBjb2RlTGluZT0iMjAzIiBkPSJNNTg1Ljc0LDQ3Ny41MiBDNTE5LjM5LDUwNy40NiA0NDUuNzgsNTUyLjM3IDQwMSw2MTYgQzI2Mi4xNyw4MTMuMjggMjcwLjIyMDYsMTU0OC4yMzMgMjc5LjcyMDYsMTg0OC45NjMgIiBmaWxsPSJub25lIiBpZD0iRGl2aW5nQ2x1Yi10by1QZXJzb24iIHN0eWxlPSJzdHJva2U6IzE4MTgxODtzdHJva2Utd2lkdGg6MS4wOyIvPjxwb2x5Z29uIGZpbGw9IiMxODE4MTgiIHBvaW50cz0iMjc5LjkxLDE4NTQuOTYsMjgzLjYyMzgsMTg0NS44MzgyLDI3OS43NTIxLDE4NDkuOTYyNSwyNzUuNjI3OCwxODQ2LjA5MDgsMjc5LjkxLDE4NTQuOTYiIHN0eWxlPSJzdHJva2U6IzE4MTgxODtzdHJva2Utd2lkdGg6MS4wOyIvPjwvZz48IS0tbGluayBEaXZpbmdDbHViIHRvIEFkZHJlc3MtLT48ZyBpZD0ibGlua19EaXZpbmdDbHViX0FkZHJlc3MiPjxwYXRoIGNvZGVMaW5lPSIyMDQiIGQ9Ik02MTAuMTEsNTU2LjIgQzU5NC4xMSw1NzUuNiA1NzguNTgsNTk1Ljg4IDU2NSw2MTYgQzQ2OC4yOSw3NTkuMzUgNDMwLjczLDc5NS43IDM5MSw5NjQgQzM1Mi40LDExMjcuNTEgMzE1Ljk0LDExOTEuNyAzOTEsMTM0MiBDNDQ1LjUyLDE0NTEuMTYgNTY1LjkwMzUsMTUyMy4yNjkgNjQ4LjI1MzUsMTU2Mi41MDkgIiBmaWxsPSJub25lIiBpZD0iRGl2aW5nQ2x1Yi10by1BZGRyZXNzIiBzdHlsZT0ic3Ryb2tlOiMxODE4MTg7c3Ryb2tlLXdpZHRoOjEuMDsiLz48cG9seWdvbiBmaWxsPSIjMTgxODE4IiBwb2ludHM9IjY1My42NywxNTY1LjA5LDY0Ny4yNjU5LDE1NTcuNjA3NSw2NDkuMTU2MiwxNTYyLjkzOTIsNjQzLjgyNDYsMTU2NC44Mjk1LDY1My42NywxNTY1LjA5IiBzdHlsZT0ic3Ryb2tlOiMxODE4MTg7c3Ryb2tlLXdpZHRoOjEuMDsiLz48L2c+PCEtLWxpbmsgRGl2aW5nQ2x1YiB0byBEaXZpbmdTaXRlLS0+PGcgaWQ9ImxpbmtfRGl2aW5nQ2x1Yl9EaXZpbmdTaXRlIj48cGF0aCBjb2RlTGluZT0iMjA1IiBkPSJNNzMxLDU1Ni4xOSBDNzMxLDY2OS4zIDczMSw4MjkuNjQgNzMxLDk1Ny44NCAiIGZpbGw9Im5vbmUiIGlkPSJEaXZpbmdDbHViLXRvLURpdmluZ1NpdGUiIHN0eWxlPSJzdHJva2U6IzE4MTgxODtzdHJva2Utd2lkdGg6MS4wOyIvPjxwb2x5Z29uIGZpbGw9IiMxODE4MTgiIHBvaW50cz0iNzMxLDk2My44NCw3MzUsOTU0Ljg0LDczMSw5NTguODQsNzI3LDk1NC44NCw3MzEsOTYzLjg0IiBzdHlsZT0ic3Ryb2tlOiMxODE4MTg7c3Ryb2tlLXdpZHRoOjEuMDsiLz48L2c+PCEtLWxpbmsgRGl2aW5nQ2x1YiB0byBJdGVtLS0+PGcgaWQ9ImxpbmtfRGl2aW5nQ2x1Yl9JdGVtIj48cGF0aCBjb2RlTGluZT0iMjA2IiBkPSJNNjg3LjYyLDU1Ni4xOSBDNjM0LjM2LDcxMy41NyA1NDguMTUzMiw5NjguMzI2NiA1MDguNDQzMiwxMDg1LjY3NjYgIiBmaWxsPSJub25lIiBpZD0iRGl2aW5nQ2x1Yi10by1JdGVtIiBzdHlsZT0ic3Ryb2tlOiMxODE4MTg7c3Ryb2tlLXdpZHRoOjEuMDsiLz48cG9seWdvbiBmaWxsPSIjMTgxODE4IiBwb2ludHM9IjUwNi41MiwxMDkxLjM2LDUxMy4xOTM4LDEwODQuMTE3LDUwOC4xMjI3LDEwODYuNjIzOCw1MDUuNjE1OSwxMDgxLjU1MjcsNTA2LjUyLDEwOTEuMzYiIHN0eWxlPSJzdHJva2U6IzE4MTgxODtzdHJva2Utd2lkdGg6MS4wOyIvPjwvZz48IS0tbGluayBEaXZpbmdDbHViIHRvIERpdmluZ0luZm8tLT48ZyBpZD0ibGlua19EaXZpbmdDbHViX0RpdmluZ0luZm8iPjxwYXRoIGNvZGVMaW5lPSIyMDciIGQ9Ik03OTAuNzIsNTU2LjQ1IEM4MDEuMzQsNTc1Ljg5IDgwOS42MzUyLDU5MC44Mzk0IDgyMC45MDUyLDYxMC41Nzk0ICIgZmlsbD0ibm9uZSIgaWQ9IkRpdmluZ0NsdWItdG8tRGl2aW5nSW5mbyIgc3R5bGU9InN0cm9rZTojMTgxODE4O3N0cm9rZS13aWR0aDoxLjA7Ii8+PHBvbHlnb24gZmlsbD0iIzE4MTgxOCIgcG9pbnRzPSI4MjMuODgsNjE1Ljc5LDgyMi44OTE1LDYwNS45OTA5LDgyMS40MDEsNjExLjQ0NzgsODE1Ljk0NCw2MDkuOTU3Myw4MjMuODgsNjE1Ljc5IiBzdHlsZT0ic3Ryb2tlOiMxODE4MTg7c3Ryb2tlLXdpZHRoOjEuMDsiLz48L2c+PCEtLWxpbmsgRGl2aW5nSW5mbyB0byBEaXZpbmdDbHViLS0+PGcgaWQ9ImxpbmtfRGl2aW5nSW5mb19EaXZpbmdDbHViIj48cGF0aCBjb2RlTGluZT0iMjEwIiBkPSJNODQ5LjkxLDYxNS43OSBDODM5LjAyLDU5Ni4wNSA4MzAuNjM3Myw1ODEuMDgxOSA4MTkuMzc3Myw1NjEuNjQxOSAiIGZpbGw9Im5vbmUiIGlkPSJEaXZpbmdJbmZvLXRvLURpdmluZ0NsdWIiIHN0eWxlPSJzdHJva2U6IzE4MTgxODtzdHJva2Utd2lkdGg6MS4wOyIvPjxwb2x5Z29uIGZpbGw9IiMxODE4MTgiIHBvaW50cz0iODE2LjM3LDU1Ni40NSw4MTcuNDE5Niw1NjYuMjQyOCw4MTguODc2MSw1NjAuNzc2Niw4MjQuMzQyMiw1NjIuMjMzMSw4MTYuMzcsNTU2LjQ1IiBzdHlsZT0ic3Ryb2tlOiMxODE4MTg7c3Ryb2tlLXdpZHRoOjEuMDsiLz48L2c+PCEtLWxpbmsgRGl2aW5nU2l0ZSB0byBBZGRyZXNzLS0+PGcgaWQ9ImxpbmtfRGl2aW5nU2l0ZV9BZGRyZXNzIj48cGF0aCBjb2RlTGluZT0iMjA4IiBkPSJNNzMxLDEzNDIuMDggQzczMSwxNDA1LjM1IDczMSwxNDY2LjM3IDczMSwxNTE1Ljg3ICIgZmlsbD0ibm9uZSIgaWQ9IkRpdmluZ1NpdGUtdG8tQWRkcmVzcyIgc3R5bGU9InN0cm9rZTojMTgxODE4O3N0cm9rZS13aWR0aDoxLjA7Ii8+PHBvbHlnb24gZmlsbD0iIzE4MTgxOCIgcG9pbnRzPSI3MzEsMTUyMS44Nyw3MzUsMTUxMi44Nyw3MzEsMTUxNi44Nyw3MjcsMTUxMi44Nyw3MzEsMTUyMS44NyIgc3R5bGU9InN0cm9rZTojMTgxODE4O3N0cm9rZS13aWR0aDoxLjA7Ii8+PC9nPjwhLS1saW5rIERpdmluZ0luZm8gdG8gVXNlci0tPjxnIGlkPSJsaW5rX0RpdmluZ0luZm9fVXNlciI+PHBhdGggY29kZUxpbmU9IjIwOSIgZD0iTTEwNDMuMDUsODQxLjcgQzEwOTYuNDcsODc3LjQzIDExNTguNTksOTIxLjA0IDEyMTIsOTY0IEMxMjQwLjc2LDk4Ny4xMyAxMjY2LjA2ODYsMTAwOS4zNDIzIDEyOTMuNTI4NiwxMDM0Ljc4MjMgIiBmaWxsPSJub25lIiBpZD0iRGl2aW5nSW5mby10by1Vc2VyIiBzdHlsZT0ic3Ryb2tlOiMxODE4MTg7c3Ryb2tlLXdpZHRoOjEuMDsiLz48cG9seWdvbiBmaWxsPSIjMTgxODE4IiBwb2ludHM9IjEyOTcuOTMsMTAzOC44NiwxMjk0LjA0NjMsMTAyOS44MDkyLDEyOTQuMjYyMSwxMDM1LjQ2MTksMTI4OC42MDk0LDEwMzUuNjc3OCwxMjk3LjkzLDEwMzguODYiIHN0eWxlPSJzdHJva2U6IzE4MTgxODtzdHJva2Utd2lkdGg6MS4wOyIvPjwvZz48IS0tbGluayBEaXZpbmdJbmZvIHRvIERpdmluZ1NpdGUtLT48ZyBpZD0ibGlua19EaXZpbmdJbmZvX0RpdmluZ1NpdGUiPjxwYXRoIGNvZGVMaW5lPSIyMTEiIGQ9Ik04NDguOTMsOTA0LjEgQzgzOS43LDkyMy41IDgzMi42ODc5LDkzOC4yMzIgODIzLjE0NzksOTU4LjI4MiAiIGZpbGw9Im5vbmUiIGlkPSJEaXZpbmdJbmZvLXRvLURpdmluZ1NpdGUiIHN0eWxlPSJzdHJva2U6IzE4MTgxODtzdHJva2Utd2lkdGg6MS4wOyIvPjxwb2x5Z29uIGZpbGw9IiMxODE4MTgiIHBvaW50cz0iODIwLjU3LDk2My43LDgyOC4wNDg5LDk1Ny4yOTE3LDgyMi43MTgzLDk1OS4xODUsODIwLjgyNDksOTUzLjg1NDQsODIwLjU3LDk2My43IiBzdHlsZT0ic3Ryb2tlOiMxODE4MTg7c3Ryb2tlLXdpZHRoOjEuMDsiLz48L2c+PCEtLWxpbmsgRGl2aW5nSW5mbyB0byBEaXZlUmVndWxhdGlvbi0tPjxnIGlkPSJsaW5rX0RpdmluZ0luZm9fRGl2ZVJlZ3VsYXRpb24iPjxwYXRoIGNvZGVMaW5lPSIyMTIiIGQ9Ik05MTYuMTUsOTA0LjM3IEM5MTMuNjQsMTE1MS41NSA5MDMuNzgsMTY3My42OSA4NjUsMjExMyBDODYzLjI5LDIxMzIuMzggODYxLjcyNCwyMTQ2LjkxODggODU5LjE2NCwyMTY2Ljg1ODggIiBmaWxsPSJub25lIiBpZD0iRGl2aW5nSW5mby10by1EaXZlUmVndWxhdGlvbiIgc3R5bGU9InN0cm9rZTojMTgxODE4O3N0cm9rZS13aWR0aDoxLjA7Ii8+PHBvbHlnb24gZmlsbD0iIzE4MTgxOCIgcG9pbnRzPSI4NTguNCwyMTcyLjgxLDg2My41MTM1LDIxNjQuMzkyNiw4NTkuMDM2NywyMTY3Ljg1MDcsODU1LjU3ODYsMjE2My4zNzM5LDg1OC40LDIxNzIuODEiIHN0eWxlPSJzdHJva2U6IzE4MTgxODtzdHJva2Utd2lkdGg6MS4wOyIvPjwvZz48IS0tbGluayBEaXZpbmdJbmZvIHRvIERpdmVySW5zdHJ1Y3Rvci0tPjxnIGlkPSJsaW5rX0RpdmluZ0luZm9fRGl2ZXJJbnN0cnVjdG9yIj48cGF0aCBjb2RlTGluZT0iMjEzIiBkPSJNMTA0My4wNSw2MjYuNSBDMTA1OC41NSw2MDQuMzEgMTA3Mi4zMSw1ODAuNSAxMDgyLDU1NiBDMTE0Ny4zMSwzOTAuODIgMTEzMy4wNTMsMTc4LjEyNDQgMTEyMy41MjMsOTEuMDc0NCAiIGZpbGw9Im5vbmUiIGlkPSJEaXZpbmdJbmZvLXRvLURpdmVySW5zdHJ1Y3RvciIgc3R5bGU9InN0cm9rZTojMTgxODE4O3N0cm9rZS13aWR0aDoxLjA7Ii8+PHBvbHlnb24gZmlsbD0iIzE4MTgxOCIgcG9pbnRzPSIxMTIyLjg3LDg1LjExLDExMTkuODczMiw5NC40OTE5LDExMjMuNDE0MSw5MC4wODAzLDExMjcuODI1Nyw5My42MjEyLDExMjIuODcsODUuMTEiIHN0eWxlPSJzdHJva2U6IzE4MTgxODtzdHJva2Utd2lkdGg6MS4wOyIvPjwvZz48IS0tbGluayBEaXZpbmdJbmZvIHRvIERpdmVyLS0+PGcgaWQ9ImxpbmtfRGl2aW5nSW5mb19EaXZlciI+PHBhdGggY29kZUxpbmU9IjIxNCIgZD0iTTkzNy4xNCw5MDQuMTcgQzk2MC41OSwxMDY0LjIyIDk5OS4xNCwxMzA1Ljg0IDEwMjMsMTM0MiBDMTA3Ni40NSwxNDIzIDExNjAuMDYwMiwxNDgxLjU5ODMgMTIzOS4wODAyLDE1MjMuODk4MyAiIGZpbGw9Im5vbmUiIGlkPSJEaXZpbmdJbmZvLXRvLURpdmVyIiBzdHlsZT0ic3Ryb2tlOiMxODE4MTg7c3Ryb2tlLXdpZHRoOjEuMDsiLz48cG9seWdvbiBmaWxsPSIjMTgxODE4IiBwb2ludHM9IjEyNDQuMzcsMTUyNi43MywxMjM4LjMyMzEsMTUxOC45NTYsMTIzOS45NjE5LDE1MjQuMzcwMywxMjM0LjU0NzYsMTUyNi4wMDksMTI0NC4zNywxNTI2LjczIiBzdHlsZT0ic3Ryb2tlOiMxODE4MTg7c3Ryb2tlLXdpZHRoOjEuMDsiLz48L2c+PCEtLWxpbmsgRGl2aW5nSW5mbyB0byBJdGVtLS0+PGcgaWQ9ImxpbmtfRGl2aW5nSW5mb19JdGVtIj48cGF0aCBjb2RlTGluZT0iMjE1IiBkPSJNNzkwLjk3LDgxNS4zNyBDNzIxLjk1LDg1MC4wNCA2MzguNzcsOTAwLjQzIDU4MCw5NjQgQzU0Ni4xOSwxMDAwLjU4IDUyMy44OTI4LDEwNDYuMDExMiA1MDguNDAyOCwxMDg1LjY3MTIgIiBmaWxsPSJub25lIiBpZD0iRGl2aW5nSW5mby10by1JdGVtIiBzdHlsZT0ic3Ryb2tlOiMxODE4MTg7c3Ryb2tlLXdpZHRoOjEuMDsiLz48cG9seWdvbiBmaWxsPSIjMTgxODE4IiBwb2ludHM9IjUwNi4yMiwxMDkxLjI2LDUxMy4yMjAyLDEwODQuMzMyLDUwOC4wMzksMTA4Ni42MDI2LDUwNS43Njg0LDEwODEuNDIxNSw1MDYuMjIsMTA5MS4yNiIgc3R5bGU9InN0cm9rZTojMTgxODE4O3N0cm9rZS13aWR0aDoxLjA7Ii8+PC9nPjwhLS1saW5rIERpdmluZ0luZm8gdG8gU2lnbmF0dXJlLS0+PGcgaWQ9ImxpbmtfRGl2aW5nSW5mb19TaWduYXR1cmUiPjxwYXRoIGNvZGVMaW5lPSIyMTYiIGQ9Ik05OTAuNTYsOTA0LjEgQzEwMjkuMTIsOTc5LjExIDEwNzAuNjQ2MSwxMDU5Ljg5NDIgMTA5NS41NTYxLDExMDguMzM0MiAiIGZpbGw9Im5vbmUiIGlkPSJEaXZpbmdJbmZvLXRvLVNpZ25hdHVyZSIgc3R5bGU9InN0cm9rZTojMTgxODE4O3N0cm9rZS13aWR0aDoxLjA7Ii8+PHBvbHlnb24gZmlsbD0iIzE4MTgxOCIgcG9pbnRzPSIxMDk4LjMsMTExMy42NywxMDk3Ljc0MTMsMTEwMy44MzcsMTA5Ni4wMTM0LDExMDkuMjIzNSwxMDkwLjYyNjksMTEwNy40OTU2LDEwOTguMywxMTEzLjY3IiBzdHlsZT0ic3Ryb2tlOiMxODE4MTg7c3Ryb2tlLXdpZHRoOjEuMDsiLz48L2c+PCEtLWxpbmsgQWRkcmVzcyB0byBDb3VudHJ5LS0+PGcgaWQ9ImxpbmtfQWRkcmVzc19Db3VudHJ5Ij48cGF0aCBjb2RlTGluZT0iMjE3IiBkPSJNNzM0LjE2LDE2NzUuMjcgQzczNy4zLDE3NTAuNDcgNzQxLjc4MDYsMTg1Ny43OTUyIDc0NC41MzA2LDE5MjMuODk1MiAiIGZpbGw9Im5vbmUiIGlkPSJBZGRyZXNzLXRvLUNvdW50cnkiIHN0eWxlPSJzdHJva2U6IzE4MTgxODtzdHJva2Utd2lkdGg6MS4wOyIvPjxwb2x5Z29uIGZpbGw9IiMxODE4MTgiIHBvaW50cz0iNzQ0Ljc4LDE5MjkuODksNzQ4LjQwMjQsMTkyMC43MzE1LDc0NC41NzIyLDE5MjQuODk0Myw3NDAuNDA5MywxOTIxLjA2NCw3NDQuNzgsMTkyOS44OSIgc3R5bGU9InN0cm9rZTojMTgxODE4O3N0cm9rZS13aWR0aDoxLjA7Ii8+PC9nPjwhLS1saW5rIENvdW50cnkgdG8gRGl2ZVJlZ3VsYXRpb24tLT48ZyBpZD0ibGlua19Db3VudHJ5X0RpdmVSZWd1bGF0aW9uIj48cGF0aCBjb2RlTGluZT0iMjE4IiBkPSJNNzYyLjk5LDIwMzguMDMgQzc3NC4xNSwyMDc1LjA3IDc4Ny43ODg1LDIxMjAuMzA1MyA4MDEuODU4NSwyMTY2Ljk4NTMgIiBmaWxsPSJub25lIiBpZD0iQ291bnRyeS10by1EaXZlUmVndWxhdGlvbiIgc3R5bGU9InN0cm9rZTojMTgxODE4O3N0cm9rZS13aWR0aDoxLjA7Ii8+PHBvbHlnb24gZmlsbD0iIzE4MTgxOCIgcG9pbnRzPSI4MDMuNTksMjE3Mi43Myw4MDQuODIyNSwyMTYyLjk1ODYsODAyLjE0NzEsMjE2Ny45NDI3LDc5Ny4xNjI5LDIxNjUuMjY3Myw4MDMuNTksMjE3Mi43MyIgc3R5bGU9InN0cm9rZTojMTgxODE4O3N0cm9rZS13aWR0aDoxLjA7Ii8+PC9nPjwhLS1saW5rIERpdmVyIHRvIFBlcnNvbi0tPjxnIGlkPSJsaW5rX0RpdmVyX1BlcnNvbiI+PHBhdGggY29kZUxpbmU9IjIyMCIgZD0iTTEyNDQuNDksMTY1NS44NCBDMTEyNy42OSwxNjk1LjUzIDk2Ny4wNCwxNzQ5LjQ5IDgyNSwxNzk1IEM3MzguMjQsMTgyMi44IDcxNS4yOCwxODI1Ljc3IDYyOSwxODU1IEM2MDcuNTcsMTg2Mi4yNiA2MDIuNDM5LDE4NjMuOTM3MyA1ODAuMjU5LDE4NzEuODI3MyAiIGZpbGw9Im5vbmUiIGlkPSJEaXZlci10by1QZXJzb24iIHN0eWxlPSJzdHJva2U6IzE4MTgxODtzdHJva2Utd2lkdGg6MS4wO3N0cm9rZS1kYXNoYXJyYXk6Ny4wLDcuMDsiLz48cG9seWdvbiBmaWxsPSJub25lIiBwb2ludHM9IjU2My4zLDE4NzcuODYsNTgyLjI2OTksMTg3Ny40ODAyLDU3OC4yNDgsMTg2Ni4xNzQzLDU2My4zLDE4NzcuODYiIHN0eWxlPSJzdHJva2U6IzE4MTgxODtzdHJva2Utd2lkdGg6MS4wOyIvPjwvZz48IS0tbGluayBEaXZlckluc3RydWN0b3IgdG8gUGVyc29uLS0+PGcgaWQ9ImxpbmtfRGl2ZXJJbnN0cnVjdG9yX1BlcnNvbiI+PHBhdGggY29kZUxpbmU9IjIyMSIgZD0iTTEwNDAuOTMsNjIuMDEgQzgyMi4zMSwxMDYuNzUgMjE0LDI0Ny4zMSAyMTQsNDI2IEMyMTQsNDI2IDIxNCw0MjYgMjE0LDExNTQgQzIxNCwxNDAyLjgyIDI0My44MzA5LDE2NzQuMjU4NyAyNjQuODcwOSwxODM2LjkxODcgIiBmaWxsPSJub25lIiBpZD0iRGl2ZXJJbnN0cnVjdG9yLXRvLVBlcnNvbiIgc3R5bGU9InN0cm9rZTojMTgxODE4O3N0cm9rZS13aWR0aDoxLjA7c3Ryb2tlLWRhc2hhcnJheTo3LjAsNy4wOyIvPjxwb2x5Z29uIGZpbGw9Im5vbmUiIHBvaW50cz0iMjY3LjE4LDE4NTQuNzcsMjcwLjgyMTQsMTgzNi4xNDksMjU4LjkyMDUsMTgzNy42ODg0LDI2Ny4xOCwxODU0Ljc3IiBzdHlsZT0ic3Ryb2tlOiMxODE4MTg7c3Ryb2tlLXdpZHRoOjEuMDsiLz48L2c+PCEtLWxpbmsgRGl2ZXIgdG8gSURpdmVhYmxlLS0+PGcgaWQ9ImxpbmtfRGl2ZXJfSURpdmVhYmxlIj48cGF0aCBjb2RlTGluZT0iMjIyIiBkPSJNMTI4Ny4zNCwxNzk1LjI3IEMxMjc1LjUyLDE4MTUuMzIgMTI2My44OSwxODM1LjQ5IDEyNTMsMTg1NSBDMTIzNC43MiwxODg3Ljc1IDEyMjMuMzYzNiwxOTEwLjA2MzEgMTIxMC42MDM2LDE5MzYuMjEzMSAiIGZpbGw9Im5vbmUiIGlkPSJEaXZlci10by1JRGl2ZWFibGUiIHN0eWxlPSJzdHJva2U6IzE4MTgxODtzdHJva2Utd2lkdGg6MS4wO3N0cm9rZS1kYXNoYXJyYXk6Ny4wLDcuMDsiLz48cG9seWdvbiBmaWxsPSJub25lIiBwb2ludHM9IjEyMDIuNzEsMTk1Mi4zOSwxMjE1Ljk5NTksMTkzOC44NDQzLDEyMDUuMjExMywxOTMzLjU4MTksMTIwMi43MSwxOTUyLjM5IiBzdHlsZT0ic3Ryb2tlOiMxODE4MTg7c3Ryb2tlLXdpZHRoOjEuMDsiLz48L2c+PCEtLWxpbmsgRGl2ZXIgdG8gSUJvcnJvdy0tPjxnIGlkPSJsaW5rX0RpdmVyX0lCb3Jyb3ciPjxwYXRoIGNvZGVMaW5lPSIyMjMiIGQ9Ik0xNDA5LDE3OTUuMTggQzE0MDksMTg1Ni40OSAxNDA5LDE4OTkuMjYgMTQwOSwxOTM0LjQxICIgZmlsbD0ibm9uZSIgaWQ9IkRpdmVyLXRvLUlCb3Jyb3ciIHN0eWxlPSJzdHJva2U6IzE4MTgxODtzdHJva2Utd2lkdGg6MS4wO3N0cm9rZS1kYXNoYXJyYXk6Ny4wLDcuMDsiLz48cG9seWdvbiBmaWxsPSJub25lIiBwb2ludHM9IjE0MDksMTk1Mi40MSwxNDE1LDE5MzQuNDEsMTQwMywxOTM0LjQxLDE0MDksMTk1Mi40MSIgc3R5bGU9InN0cm9rZTojMTgxODE4O3N0cm9rZS13aWR0aDoxLjA7Ii8+PC9nPjwhLS1saW5rIERpdmVyIHRvIElTaWduLS0+PGcgaWQ9ImxpbmtfRGl2ZXJfSVNpZ24iPjxwYXRoIGNvZGVMaW5lPSIyMjQiIGQ9Ik0xNTMzLjUsMTc5NS4xOCBDMTU3Mi41MSwxODU2LjQ5IDE2MDEuNTA1NywxOTAyLjA3NDQgMTYyMy44NzU3LDE5MzcuMjI0NCAiIGZpbGw9Im5vbmUiIGlkPSJEaXZlci10by1JU2lnbiIgc3R5bGU9InN0cm9rZTojMTgxODE4O3N0cm9rZS13aWR0aDoxLjA7c3Ryb2tlLWRhc2hhcnJheTo3LjAsNy4wOyIvPjxwb2x5Z29uIGZpbGw9Im5vbmUiIHBvaW50cz0iMTYzMy41NCwxOTUyLjQxLDE2MjguOTM3NSwxOTM0LjAwMywxNjE4LjgxMzgsMTk0MC40NDU5LDE2MzMuNTQsMTk1Mi40MSIgc3R5bGU9InN0cm9rZTojMTgxODE4O3N0cm9rZS13aWR0aDoxLjA7Ii8+PC9nPjwhLS1saW5rIERpdmVySW5zdHJ1Y3RvciB0byBJU2lnbi0tPjxnIGlkPSJsaW5rX0RpdmVySW5zdHJ1Y3Rvcl9JU2lnbiI+PHBhdGggY29kZUxpbmU9IjIyNSIgZD0iTTExOTUuMzEsNDkuNjYgQzEyOTEuMzMsNTUuOTMgMTQ1Ny41Miw3Ni42OSAxNTgxLDE0NSBDMTcxNy40MywyMjAuNDcgMTc5MSwyNzAuMDkgMTc5MSw0MjYgQzE3OTEsNDI2IDE3OTEsNDI2IDE3OTEsMTE1NCBDMTc5MSwxNDM5LjkgMTgwOC4zMiwxNTE4LjE0IDE3MzcsMTc5NSBDMTcyMi4wMiwxODUzLjE2IDE2OTkuMTY2MSwxOTAwLjE2MjUgMTY3OS4yODYxLDE5MzYuNDYyNSAiIGZpbGw9Im5vbmUiIGlkPSJEaXZlckluc3RydWN0b3ItdG8tSVNpZ24iIHN0eWxlPSJzdHJva2U6IzE4MTgxODtzdHJva2Utd2lkdGg6MS4wO3N0cm9rZS1kYXNoYXJyYXk6Ny4wLDcuMDsiLz48cG9seWdvbiBmaWxsPSJub25lIiBwb2ludHM9IjE2NzAuNjQsMTk1Mi4yNSwxNjg0LjU0ODYsMTkzOS4zNDQ2LDE2NzQuMDIzNywxOTMzLjU4MDUsMTY3MC42NCwxOTUyLjI1IiBzdHlsZT0ic3Ryb2tlOiMxODE4MTg7c3Ryb2tlLXdpZHRoOjEuMDsiLz48L2c+PCEtLWxpbmsgRGl2aW5nQ2x1YiB0byBJU2lnbi0tPjxnIGlkPSJsaW5rX0RpdmluZ0NsdWJfSVNpZ24iPjxwYXRoIGNvZGVMaW5lPSIyMjYiIGQ9Ik04NzYuMDgsNTQ2LjA3IEM4ODEuNzEsNTQ5LjU0IDg4Ny4zNiw1NTIuODcgODkzLDU1NiBDOTYxLjk1LDU5NC4yOCA5ODkuMDgsNTgxLjQ5IDEwNjAsNjE2IEMxMzIxLjQ2LDc0My4yMyAxNDY4LjQ5LDcxMi4yNiAxNjE0LDk2NCBDMTgxMC45LDEzMDQuNjYgMTY5OS44MzczLDE4MDQuNDI4NiAxNjY1LjkzNzMsMTkzNC44Nzg2ICIgZmlsbD0ibm9uZSIgaWQ9IkRpdmluZ0NsdWItdG8tSVNpZ24iIHN0eWxlPSJzdHJva2U6IzE4MTgxODtzdHJva2Utd2lkdGg6MS4wO3N0cm9rZS1kYXNoYXJyYXk6Ny4wLDcuMDsiLz48cG9seWdvbiBmaWxsPSJub25lIiBwb2ludHM9IjE2NjEuNDEsMTk1Mi4zLDE2NzEuNzQ0NCwxOTM2LjM4NzcsMTY2MC4xMzAyLDE5MzMuMzY5NSwxNjYxLjQxLDE5NTIuMyIgc3R5bGU9InN0cm9rZTojMTgxODE4O3N0cm9rZS13aWR0aDoxLjA7Ii8+PC9nPjwhLS1TUkM9W2xMWkRSaml1NEJ4eEFOSGFLQmlGaTJXMlBBcXNEUDJzR1V0NU9iN3FHNWtDR3JJTU44Z2dMdmxray15Q0FQOTNJZFJLT2o0U1I2Yi1GZHYzcFdwN2FQS013ZTdsSEJSQXZKVjFqd044ZGNPUF9CdDhLQzJrUGxfRVBaOU9fTHVoTFAteVpOclRRTjVXLTk1OS05WGRPOXp6Uk5jYmZVdklXQk5TTHp1VE54WGtiSjFGVFo2LVJSSllFdnRqSWp1cXNSckdKVXF5NVhkZVBCTkZQMTZfRnhwZDFuNkJJWTkyR1dObG9Ea1hobEdaVVV5NExwcWZrb0JwQXlzWkhVT0hfam4xcG1GZ3QwRFV6T1l0R2d5QVRsTFJ4bmdhUm4xWko3NXRKZjdwM2lNbUdmMnptcks3cWgtMEcycFNyNmszSGQxWGwtcXNfejQ4dkpTUEpydmIxTng2VW9lRU45UW53MFpVZnJlTF9IZzhtdVpfRjdBVGZydmtYelAyZXdUbmZFdjRfbmUxNjRMQmRFeTFhdnQxbHdOdTQ3eGtPcEN3WXBzb3RIdXRyVU1vRVBReWtvYkJYMEJ6WDNzc1NWc29KRXdEYUx2VUxtdldNelRiamNrTDRmS2tFdzNhT2k5WnRzYlBMcm5yaHJRa1pnekRJSlNhQ0p4b3dpaWpWNVVQV2dVYkhIaEpWX2ZpQkR4QUhqVWcyc1VMRXFPaXVhVEVTbmRKT3NFU1lKY0lSVFc1emlKc08tM0NwYVFKc0ZTSGkwbEhhSm1CdVFLTGNPTzVVZW9DRDBhSlk0ZEZhTFkyN0dzWUpzUkZBeFBvcjVFaEp2X0Z2LWx2cmFwSVU1TTFUUmkzU0RfQ1ZtV2cxTGFpbGJfdExLY01HUnhGNUttcmc5VDJEM2liWnhZM2YxMkstRGZBOUdmcEZYRWhETUo3S3ZCWHZsMjMzM29OUFJrNUV3bFRKaURzN2pFWndzXzI3VEd4Tjhfc2hMVlQ1OEtJV0NsalR6QVg3cUZyWl9Ibm9zS0RYT0FyczNfNnZZVW5STzltS2ZpMGpyTnJLNEVMTUQyeFVqX3lIQ0xFQk9nVklzQ056ekVGUHJISGpwV2hiUUJRLSAteFJvcXdvSTRNNUU3Z0hRTU9kM1dGSGNmVXdrdDIyUGdsQzg0MjhhVHdLMXJQaUk5R090WGNNQkU5Q3I3eVlPS1JQSHVpU1d6QjRHSnJ6NjJtOVluWnJlUjRhSDdCNFB1U1Q0azNPYTZKMzBlc2I1cEdzZVg2NVpNUkM4cUdvUUNpazA1M1NIQ1ZwUkZpRy14UmFJRnoyWWZjRHVuMENSX0pjTDlpVXMxMFROWkdVWG9oQ2EyRUFJUWJvYS0ycHFMTmZsSFVNUDRDTW5GM1VhNjBKSmRGME9SM0hURDVVd0ktZ3N4MUt2RlB5Y3lLLXZGVlZaSG9obDFVT21UVDhtRW9EQjRpX3ktUUc0WC1naVpEUVYxY3MteThfSmNZY0lLT0txSWtUbENjci0yWHVhUEN2dDNwUmZYZ292NDhWdFYwbG1jNWx2Qzc2T3docURWdWE2elZ5Qk5OSXFMMnk0T1RaQkRRbzQ3VlljdDB0WVUtckdCMW5wcjQtWHN4aXpTamZEd1J2VFZhX0pHQmtmLWM0UEdGWGZuSFBtbkt3Zkg2dWpmUzBtOVNHRVdjV0ZNcEpkcm14d1V5OHh5ZEoyX2VWd092Y01SVUxMWHJDMlVQeDBaX2RTUnYzOU9jaHFnSXI3ZDNlOVFfc0JUeV9DcndQWWJpaXRCV3RkMElsYXVhc2RpSWVWYnBiSWY4S0FjaHdZSWNIa2V3VVk0Q1hmbmhDbjc1aHgyMHBxVzY2eUFPTGVIWnQ4OUtEYzJTUUdlUGdRMUNQcVBBajdMTWRHWEFVYl9hZ2NCYmFIY2NWRTNFTkcyRHl4RTVjQnJ6LWZ6aVY3VlQwUG9OLXRyNkhxRnd4QUg4WGp0NUdodDhkNVFKXzBHMDBdLS0+PC9nPjwvc3ZnPg==;" vertex="1" parent="1">
            <mxGeometry x="-300" y="-710" width="1817" height="2422" as="geometry" />
          </mxCell>
        </UserObject>
      </root>
    </mxGraphModel>
  </diagram>
</mxfile>
